<?xml version="1.0" encoding="UTF-8"?>
<svg width="20px" height="20px" viewBox="0 0 20 20" version="1.1" xmlns="http://www.w3.org/2000/svg" xmlns:xlink="http://www.w3.org/1999/xlink">
    <!-- Generator: Sketch 61.1 (89650) - https://sketch.com -->
    <title>beef</title>
    <desc>Created with Sketch.</desc>
    <g id="0.-Onboarding" stroke="none" stroke-width="1" fill="none" fill-rule="evenodd">
        <g id="onboarding-icons-copy" transform="translate(-18.000000, -257.000000)" fill="#333230">
            <g id="icon/food/protein/beef" transform="translate(18.000000, 257.000000)">
                <path d="M7.31201886,17.4169874 C7.72996495,18.0439066 8.61288078,18.375 10,18.375 C11.3829962,18.375 12.1973749,18.1528967 12.4379811,17.7919874 C12.5528633,17.6196642 12.7856893,17.573099 12.9580126,17.6879811 C13.1303358,17.8028633 13.176901,18.0356893 13.0620189,18.2080126 C12.6359584,18.8471033 11.6170038,19.125 10,19.125 C8.38711922,19.125 7.27003505,18.7060934 6.68798114,17.8330126 C6.57309897,17.6606893 6.61966417,17.4278633 6.79198743,17.3129811 C6.96431068,17.198099 7.19713669,17.2446642 7.31201886,17.4169874 Z M8.99915691,8.31921342 L9.01909642,9.95834805 L9.02004001,10.3201833 C9.01746106,11.6633278 8.93845116,12.3418789 8.64016504,12.640165 C8.55669701,12.7236331 8.07458565,13.1173574 7.94194865,13.2421344 C7.50781081,13.6505455 7.2720077,14.0569679 7.25146803,14.5534512 L7.25,14.625 L7.24975,15.45775 L7.25553478,15.4561409 C7.49654617,15.388203 7.74456173,15.4053654 7.99012531,15.5147387 L8.0427051,15.5395898 C8.47097199,15.7537232 8.68816666,16.2225285 8.73847161,16.9147585 L8.74125,16.95925 L8.75000735,16.9615701 C9.15249653,17.0598702 9.53027,17.1136083 9.88325611,17.123373 L10,17.125 C10.3339194,17.125 10.6683012,17.0844479 11.0036741,17.0030552 L11.05525,16.98975 L11.0503414,16.9631529 C10.8936124,16.0852409 11.1222045,15.5258461 11.8251841,15.5008725 L11.875,15.5 C12.1754164,15.5 12.4412686,15.5276622 12.6726483,15.5854932 L12.7385,15.603 L12.7480434,15.5510382 C12.7983654,15.2544131 12.8048159,14.9925035 12.7692204,14.7655731 L12.7572822,14.6985436 C12.7308848,14.5665563 12.5501124,14.3101912 12.1696477,13.8628852 L11.7043484,13.3243761 C11.1605973,12.6898664 11.0156702,12.4671121 11.0012455,12.1769941 L10.9985195,12.034905 C10.9866777,11.6084065 10.9038322,10.3892207 10.7511046,8.40376119 C10.7491747,8.37867323 10.7497748,8.35345474 10.7528958,8.32848697 C10.8712425,7.381713 11.8221906,7.06473031 13.4188155,7.25256852 C13.6245037,7.27676714 13.7716301,7.46312724 13.7474315,7.66881547 C13.7232329,7.87450369 13.5368728,8.02163009 13.3311845,7.99743148 C12.1506901,7.85854977 11.5967587,8.01899447 11.5068145,8.37007375 L11.50225,8.39025 L11.6298079,10.0957707 C11.701212,11.0879535 11.7406764,11.7298054 11.7485342,12.0291704 L11.75,12.125 C11.75,12.1852929 11.9235009,12.4244483 12.3368922,12.9085697 L12.7033194,13.3325972 C13.2189932,13.9330869 13.4294206,14.2349705 13.4927178,14.5514564 C13.5890062,15.0328986 13.5424649,15.5913933 13.3605715,16.2280204 C13.2907754,16.4723066 13.0033793,16.5779468 12.7919874,16.4370189 C12.6134153,16.3179708 12.3075468,16.25 11.875,16.25 C11.7181306,16.25 11.6670497,16.4372964 11.8617864,17.151331 C11.9141534,17.3433432 11.8073972,17.542819 11.6185854,17.6057562 C11.0808475,17.7850022 10.5408608,17.875 10,17.875 C9.46330256,17.875 8.88735237,17.7863923 8.27197958,17.6105715 C8.11099149,17.5645749 8,17.4174301 8,17.25 C8,16.627196 7.87980746,16.2966665 7.7072949,16.2104102 C7.53095834,16.1222419 7.36713145,16.1631986 7.14016504,16.390165 C6.91207432,16.6182558 6.52765772,16.4701483 6.50141745,16.1589563 L6.5,16.125 L6.5,14.625 C6.5,13.8563297 6.83641733,13.2524398 7.42805135,12.6958656 L7.48197239,12.6466236 C7.67532254,12.4738009 8.06444456,12.1552254 8.10983496,12.109835 C8.20227975,12.0173902 8.27228633,11.2562438 8.26979385,10.1099325 L8.26557509,9.61453718 L8.25073461,8.57182956 L8.25,8.375 C8.25,7.87482288 7.66520717,7.69938503 6.19854355,7.99271775 C5.99545864,8.03333473 5.79789923,7.90162846 5.75728225,7.69854355 C5.71666527,7.49545864 5.84837154,7.29789923 6.05145645,7.25728225 C7.88801859,6.88996982 8.96489668,7.19822226 8.99915691,8.31921342 Z M9.85821105,1.74519994 L9.92151303,1.75185543 C10.4191502,1.81449058 10.6553774,1.88915517 10.904314,2.09206244 C11.0705047,2.22752376 11.8177032,3.09992967 11.9026283,3.19345951 C12.0294782,3.33316212 12.1625927,3.46203154 12.3026586,3.58203555 C12.5459665,3.79049384 12.7989273,3.96453913 13.0989317,4.13838597 L13.239416,4.21761725 C13.3682477,4.28706605 13.880951,4.5594551 14.0144857,4.64217903 C14.183282,4.74674723 14.3107913,4.8473935 14.4105511,4.96458565 C14.4879359,5.05549296 14.5628243,5.15248254 14.6345563,5.25482375 C16.3904812,4.31247052 17.9401605,4.32750243 19.2162327,5.33013062 C19.2369013,5.34637023 19.2558052,5.36473794 19.2726326,5.38493085 C19.6853294,5.88016701 19.1209892,6.48142234 18.2193108,6.99447506 C17.3858257,7.46872599 16.5011513,7.69248526 15.8659642,7.48075624 C15.6694855,7.41526332 15.5633005,7.20289333 15.6287934,7.00641459 C15.6942863,6.80993584 15.9066563,6.70375085 16.103135,6.76924376 L16.103135,6.76924376 L16.1470941,6.78223086 C16.5388563,6.8840364 17.2070969,6.70751211 17.8484019,6.34261114 C18.141971,6.17557105 18.3936465,5.98762587 18.5439376,5.82750381 L18.5439376,5.82750381 L18.5768583,5.79075 L18.50327,5.74220513 C17.515195,5.10970423 16.3374533,5.17137967 14.9152692,5.95358097 L15.0106439,5.90355947 C15.4547978,6.8402197 15.6302814,8.01557188 15.2257376,9.08485104 C14.7995107,10.2114422 14.2044441,11.3723654 13.4410758,12.5680478 C13.3296278,12.7426117 13.0977693,12.7937771 12.9232054,12.6823291 C12.7486415,12.570881 12.6974761,12.3390225 12.8089242,12.1644586 C13.5455559,11.0106543 14.117156,9.89551225 14.5242624,8.81945967 C14.9672323,7.64861386 14.5099034,6.23834811 13.8394489,5.45073621 C13.7985076,5.40264067 13.727821,5.34684597 13.6195143,5.27975062 L13.5705857,5.2509036 C13.3884483,5.14655492 12.9140963,4.89532032 12.8481915,4.85853686 C12.4565285,4.63993784 12.1307194,4.42234881 11.8146883,4.15158356 C11.6838843,4.03951491 11.5581345,3.92068807 11.4371864,3.79407146 L11.3473717,3.6976323 C11.2077476,3.54386112 10.5356696,2.75916366 10.4304611,2.67340863 C10.3289873,2.5906978 10.2257182,2.55209999 9.94888441,2.51220064 L9.82848697,2.49606384 C9.56087693,2.46238114 9.3386943,2.61500697 9.09748115,2.97388217 L9.06114839,3.02926281 C9.00670413,3.11420421 8.74660789,3.57591551 8.67404039,3.67181974 L8.63011508,3.72721895 C8.35723865,4.0557329 7.90749603,4.32102535 6.79363197,4.88181295 C5.88385318,5.33985149 5.35304648,6.22842682 5.24925672,7.87443242 C5.17296985,9.08426855 5.7589921,10.4266988 7.03365067,11.9006986 C7.16912072,12.0573546 7.15194617,12.2941695 6.99529023,12.4296395 C6.83863429,12.5651096 6.60181938,12.547935 6.46634933,12.3912791 C5.07434123,10.7815776 4.41036349,9.26057092 4.50074328,7.82723451 C4.54790361,7.07931727 4.68118972,6.45054281 4.89624301,5.92737641 L4.94428047,5.95358097 C3.5220963,5.17137967 2.34435467,5.10970423 1.35627961,5.74220513 L1.28275,5.79075 L1.31561204,5.82750381 C1.46590313,5.98762587 1.71757861,6.17557105 2.01114772,6.34261114 C2.65245276,6.70751211 3.32069334,6.8840364 3.7124555,6.78223086 L3.75641459,6.76924376 C3.95289333,6.70375085 4.16526332,6.80993584 4.23075624,7.00641459 C4.29624915,7.20289333 4.19006416,7.41526332 3.99358541,7.48075624 C3.35839833,7.69248526 2.47372388,7.46872599 1.64023878,6.99447506 C0.738560441,6.48142234 0.174220222,5.88016701 0.58691702,5.38493085 C0.603744444,5.36473794 0.622648323,5.34637023 0.643316918,5.33013062 C1.92473041,4.32330573 3.4820462,4.31236198 5.2474443,5.26467517 C5.56052023,4.80484329 5.96499156,4.45931174 6.45636803,4.21192264 L6.71041446,4.08308331 C7.56612588,3.64548247 7.92363616,3.42058065 8.07595961,3.21927207 C8.11199429,3.17164914 8.3510865,2.74722324 8.42972095,2.62454144 C8.81125387,2.02929155 9.25203714,1.69422515 9.85821105,1.74519994 Z M4.74153557,0.503169216 C4.79917068,0.551442826 4.84153087,0.606390689 4.89198696,0.685242029 L4.9607907,0.799970388 C5.02207585,0.904090956 5.10230541,1.04238543 5.13015391,1.0882773 C5.24349625,1.27505547 5.35400512,1.43539864 5.47871972,1.58662614 C5.96009032,2.17033067 6.55937223,2.5 7.375,2.5 C7.58210678,2.5 7.75,2.66789322 7.75,2.875 C7.75,3.08210678 7.58210678,3.25 7.375,3.25 C6.31625099,3.25 5.51469918,2.80906054 4.90009944,2.06380385 L4.86293843,2.01809931 L4.81775,1.9605 L4.8269562,1.99661291 C4.97394534,2.55202983 5.3074424,3.15013453 5.83463778,3.79093786 L5.91126986,3.88277166 C6.04504888,4.04087414 6.02533082,4.27749084 5.86722834,4.41126986 C5.70912586,4.54504888 5.47250916,4.52533082 5.33873014,4.36722834 C4.36286117,3.21392865 3.90783043,2.12185487 4.00154005,1.0910491 L4.01246842,0.980160956 C4.03856452,0.740719635 4.07199752,0.630317629 4.17914843,0.522023005 C4.35140203,0.347930783 4.58488216,0.371960554 4.74153557,0.503169216 Z M15.1334015,0.503169216 C15.2900549,0.371960554 15.523535,0.347930783 15.6957886,0.522023005 C15.8029395,0.630317629 15.8363725,0.740719635 15.8624686,0.980160956 L15.8624686,0.980160956 L15.873397,1.0910491 C15.9671066,2.12185487 15.5120759,3.21392865 14.5362069,4.36722834 C14.4024279,4.52533082 14.1658112,4.54504888 14.0077087,4.41126986 C13.8496062,4.27749084 13.8298882,4.04087414 13.9636672,3.88277166 L13.9636672,3.88277166 L14.0402993,3.79093786 C14.5674946,3.15013453 14.9009917,2.55202983 15.0479808,1.99661291 L15.0479808,1.99661291 L15.0571037,1.961 L15.0119986,2.01809931 L14.9748376,2.06380385 C14.3602379,2.80906054 13.558686,3.25 12.499937,3.25 C12.2928303,3.25 12.124937,3.08210678 12.124937,2.875 C12.124937,2.66789322 12.2928303,2.5 12.499937,2.5 C13.3155648,2.5 13.9148467,2.17033067 14.3962173,1.58662614 C14.5209319,1.43539864 14.6314408,1.27505547 14.7447831,1.0882773 C14.7761127,1.03664895 14.873737,0.868073547 14.9361009,0.762774296 L14.9361009,0.762774296 L14.9829501,0.685242029 C15.0334062,0.606390689 15.0757664,0.551442826 15.1334015,0.503169216 Z" id="icon"></path>
            </g>
        </g>
    </g>
</svg>