<?xml version="1.0" encoding="UTF-8"?>
<svg width="60px" height="60px" viewBox="0 0 60 60" version="1.1" xmlns="http://www.w3.org/2000/svg" xmlns:xlink="http://www.w3.org/1999/xlink">
    <!-- Generator: Sketch 61.1 (89650) - https://sketch.com -->
    <title>body measurement</title>
    <desc>Created with Sketch.</desc>
    <g id="0.-Onboarding" stroke="none" stroke-width="1" fill="none" fill-rule="evenodd">
        <g id="onboarding-icons" transform="translate(-11.000000, -84.000000)">
            <g id="body-measurement" transform="translate(11.000000, 84.000000)">
                <circle id="Oval" fill="#FAF9F7" cx="30" cy="30" r="30"></circle>
                <circle id="Oval-Copy" fill="#FAF9F7" cx="30" cy="30" r="30"></circle>
                <g id="icon/measurements/body-measurement" transform="translate(12.000000, 12.000000)" fill="#333230">
                    <path d="M16.875,3.6 C24.953203,3.6 28.8,6.67743764 28.8,11.25 C28.8,15.0535104 24.0856166,18 17.775,18 C13.0841521,18 9.45,15.4718942 9.45,12.825 C9.45,9.871875 12.4125,7.65 16.875,7.65 C21.0477121,7.65 23.4,9.04667096 23.4,11.025 C23.4,13.003329 21.0477121,14.4 16.875,14.4 C16.5022078,14.4 16.2,14.0977922 16.2,13.725 C16.2,13.3522078 16.5022078,13.05 16.875,13.05 C20.3996564,13.05 22.05,12.0701085 22.05,11.025 C22.05,9.97989154 20.3996564,9 16.875,9 C13.0875,9 10.8,10.715625 10.8,12.825 C10.8,14.5998449 13.7470979,16.65 17.775,16.65 C23.4343834,16.65 27.45,14.1402396 27.45,11.25 C27.45,7.49756236 24.265547,4.95 16.875,4.95 C10.3704818,4.95 6.77049202,7.80238252 5.87100627,13.6333532 L5.85,13.77225 L5.85,21.5723912 C5.85,21.7117913 5.85417901,21.8511459 5.86252843,21.9902664 L5.8781793,22.198748 C6.1602306,25.3269326 7.77604456,27.4750359 10.7987076,28.6462294 L10.8,23.175 C10.8,22.8022078 11.1022078,22.5 11.475,22.5 C11.8258633,22.5 12.1142019,22.7676996 12.14691,23.109993 L12.15,23.175 L12.15,29.025 L12.1445059,29.0789505 C13.0912791,29.3280993 14.146893,29.5022468 15.3129035,29.6014603 L15.30309,29.540007 L15.30309,29.540007 L15.3,29.475 L15.3,25.875 C15.3,25.5022078 15.6022078,25.2 15.975,25.2 C16.3258633,25.2 16.6142019,25.4676996 16.64691,25.809993 L16.65,25.875 L16.65,29.475 C16.65,29.546546 16.6388688,29.6154921 16.6182437,29.6802011 C16.9928637,29.6931821 17.3788597,29.7 17.775,29.7 C18.4886444,29.7 19.1704414,29.6806892 19.8205764,29.6421808 C19.8123122,29.6084321 19.8063956,29.5746005 19.80309,29.540007 L19.8,29.475 L19.8,23.175 C19.8,22.8022078 20.1022078,22.5 20.475,22.5 C20.8258633,22.5 21.1142019,22.7676996 21.14691,23.109993 L21.15,23.175 L21.15,29.475 L21.1464076,29.5323727 C22.1317023,29.4258523 23.0335469,29.2687352 23.8527394,29.0615087 L23.85,29.025 L23.85,25.875 C23.85,25.5022078 24.1522078,25.2 24.525,25.2 C24.8758633,25.2 25.1642019,25.4676996 25.19691,25.809993 L25.2,25.875 L25.2009499,28.648232 C27.5022387,27.8033997 28.9711524,26.4539457 29.6334146,24.6155793 C29.6664567,24.523858 29.6873895,24.4283616 29.6957911,24.3315076 L29.7,24.2342907 L29.7,18.352645 C29.7,18.3033159 29.6837883,18.2553538 29.6538601,18.2161407 C29.57847,18.117362 29.4372746,18.0984007 29.3384986,18.1737864 C25.9554348,20.7558116 22.0934349,22.05 17.775,22.05 C12.7445291,22.05 9.06851233,20.1320782 6.84194924,16.3151129 C6.65411005,15.9931029 6.76287702,15.5797884 7.08488706,15.3919492 C7.4068971,15.2041101 7.82021157,15.312877 8.00805076,15.6348871 C9.98148767,19.0179218 13.2054709,20.7 17.775,20.7 C21.7986777,20.7 25.3726596,19.5023288 28.5194546,17.1006289 C29.210922,16.5729024 30.1992748,16.7056289 30.7270116,17.397089 C30.9155647,17.6441381 31.0263428,17.9407953 31.0466129,18.2493897 L31.05,18.352645 L31.05,24.2342945 C31.05,24.5202685 31.0004364,24.8040786 30.9035134,25.073126 C29.4565937,29.0896143 25.0281776,31.05 17.775,31.05 C9.57158231,31.05 5.05800204,28.1356627 4.53363328,22.319975 C4.51869279,22.1542634 4.50872483,21.9881611 4.50373958,21.821892 L4.5,21.5723912 L4.5,13.725 L4.50678409,13.6295406 C5.45577479,6.98660567 9.64871515,3.6 16.875,3.6 Z" id="Shape"></path>
                </g>
            </g>
        </g>
    </g>
</svg>