<?xml version="1.0" encoding="UTF-8"?>
<svg width="60px" height="60px" viewBox="0 0 60 60" version="1.1" xmlns="http://www.w3.org/2000/svg" xmlns:xlink="http://www.w3.org/1999/xlink">
    <!-- Generator: Sketch 61.1 (89650) - https://sketch.com -->
    <title>breakfast</title>
    <desc>Created with Sketch.</desc>
    <g id="0.-Onboarding" stroke="none" stroke-width="1" fill="none" fill-rule="evenodd">
        <g id="onboarding-icons" transform="translate(-181.000000, -562.000000)">
            <g id="breakfast" transform="translate(181.000000, 562.000000)">
                <circle id="Oval" fill="#FAF9F7" cx="30" cy="30" r="30"></circle>
                <circle id="Oval-Copy" fill="#FAF9F7" cx="30" cy="30" r="30"></circle>
                <g id="icon/meal/breakfast" transform="translate(12.000000, 12.000000)" fill="#333230">
                    <path d="M19.0185487,11.260749 C20.1528164,10.9201314 21.3047706,10.9539253 23.2664675,11.2527518 L23.2664675,11.2527518 L23.6841496,11.3183238 C24.9215665,11.5178106 25.501917,11.9129067 26.199794,12.7870139 L26.199794,12.7870139 L26.3635864,12.9913524 L26.4520885,13.0971595 C27.0267947,13.7628876 27.6856813,14.0854508 29.2664428,14.2583767 L29.2664428,14.2583767 L29.4655333,14.2824853 C31.4406581,14.5450594 32.9424481,15.4498707 33.9764632,16.782115 C34.720948,17.7413232 35.1807761,18.9284612 35.1807761,19.5788273 L35.1807761,19.5788273 L35.181396,19.5912632 C35.1830663,19.6140539 35.1881802,19.6616085 35.197563,19.7330446 L35.197563,19.7330446 L35.2713485,20.3016324 C35.3666451,21.1550271 35.3499426,21.8814534 35.1461381,22.6337532 C34.7697259,24.0231961 33.7992301,25.078445 32.1427815,25.6421958 C30.3316946,26.2585757 29.4552236,27.033876 28.2499194,28.7796704 L28.2499194,28.7796704 L27.569384,29.7708526 L27.3473151,30.083279 C26.9672457,30.6092188 26.6033174,31.0636876 26.1990102,31.5040098 C23.6858095,34.2410825 18.7867416,34.805503 15.7523254,32.6857008 C12.3974727,30.3420459 11.2884077,26.2388638 13.5967303,22.6250687 C13.9682452,22.0434435 15.3963992,19.9680952 15.6070403,19.5608568 C15.9839228,18.8322192 16.1203357,18.0861892 16.2038606,16.0483615 L16.2038606,16.0483615 L16.2232344,15.5265169 C16.3024205,13.1818694 17.2856155,11.7811443 19.0185487,11.260749 Z M23.270704,12.6195101 C21.3800647,12.3226843 20.3224373,12.2787515 19.4068211,12.5537086 C18.2531517,12.9001525 17.632859,13.7838628 17.5724651,15.5720847 C17.4836489,18.2018732 17.3335603,19.1613898 16.8061334,20.1810791 C16.5666867,20.6440081 15.2563439,22.5558218 14.8150049,23.2277562 L14.8150049,23.2277562 L14.7344403,23.3517845 C12.8390868,26.3190557 13.7336632,29.6286991 16.5254494,31.5790033 C19.002717,33.3095891 23.1467197,32.8321595 25.2046157,30.5909493 C25.5701654,30.1928369 25.9019474,29.778512 26.2531195,29.2925604 L26.2531195,29.2925604 L26.3224623,29.1960586 C26.368842,29.1311507 26.4157657,29.0647599 26.4646846,28.9948684 L26.4646846,28.9948684 L27.2545313,27.8468138 C28.5574459,25.9945526 29.6420884,25.0672311 31.7078268,24.3641839 L31.7078268,24.3641839 L31.8417156,24.3166274 C32.9816518,23.8942276 33.5924805,23.2058843 33.8431072,22.2807508 C34.0065162,21.6775627 34.0085021,21.0547609 33.9083731,20.2741234 C33.9011664,20.217938 33.8832928,20.0868198 33.8710835,19.9973193 L33.8710835,19.9973193 L33.8407765,19.7554073 C33.8340188,19.6883426 33.8307761,19.6332509 33.8307761,19.5788273 C33.8307761,19.2489336 33.4807115,18.3451721 32.9099945,17.6098496 C32.0598425,16.5144979 30.8190693,15.7862785 29.1196366,15.6003707 L29.1196366,15.6003707 L28.9370729,15.5792205 C27.0805352,15.3517341 26.1442481,14.8454128 25.3522569,13.8870344 L25.3522569,13.8870344 L25.3182293,13.8455953 L25.1447921,13.629315 C24.64001,12.9970635 24.3374309,12.7910711 23.4692872,12.6511157 L23.4692872,12.6511157 Z M22.8,17.325 C25.2542598,17.325 27.675,19.374597 27.675,22.5789474 C27.675,25.9701299 25.638898,27.675 22.5,27.675 C19.5407703,27.675 17.325,25.4486279 17.325,22.1052632 C17.325,19.0459099 20.0838337,17.325 22.8,17.325 Z M22.8,18.675 C20.7349163,18.675 18.675,19.9599381 18.675,22.1052632 C18.675,22.2051003 18.6773795,22.3034934 18.682081,22.4004063 L18.7012061,22.3137434 L18.7012061,22.3137434 C19.2640409,20.3532023 20.378952,19.2382912 22.003703,19.1265896 C22.3756173,19.1010205 22.6978413,19.3817887 22.7234104,19.753703 C22.7489795,20.1256173 22.4682113,20.4478413 22.096297,20.4734104 C21.1028662,20.5417088 20.4177773,21.2267977 19.9987939,22.6862566 C19.8959272,23.0445756 19.5220623,23.2516605 19.1637434,23.1487939 C18.9368327,23.083652 18.7705705,22.9098335 18.7052637,22.7001073 C18.9327685,24.9496956 20.4620351,26.325 22.5,26.325 C24.941102,26.325 26.325,25.1662338 26.325,22.5789474 C26.325,20.1746021 24.5538483,18.675 22.8,18.675 Z M16.3027154,5.27119228 C17.6633929,4.45478575 19.1323149,4.86792005 19.8235641,6.07760622 C20.5094028,7.27782383 20.1480657,8.76833907 18.7873127,9.58467527 C13.5416049,12.6110451 11.9964796,15.1157308 11.9274503,20.3233843 L11.9274503,20.3233843 L11.925,20.7 C11.925,23.85 7.425,23.85 7.425,20.7 C7.425,12.8998345 9.22993249,9.9642352 15.8681221,5.55678246 L15.8681221,5.55678246 Z M18.6514359,6.74739378 C18.3301851,6.18520495 17.6991071,6.00771425 16.9972846,6.42880772 L17.002,6.42550658 L16.8222014,6.54432331 C10.6671603,10.5963203 8.93483938,13.076545 8.78583352,19.6922237 L8.77934955,20.0506237 L8.77548981,20.477752 L8.775,20.7 C8.775,22.05 10.575,22.05 10.575,20.7 C10.575,14.7495047 12.3265072,11.7535056 18.1027154,8.42119228 C18.8144343,7.99416093 18.9780972,7.31905117 18.6514359,6.74739378 Z M11.4500787,1.49426557 C12.7829007,0.754213206 14.1987732,1.17602494 14.8735641,2.35690905 C15.5594028,3.55712667 15.1980657,5.04764191 13.8373127,5.86397811 C8.59160494,8.89034795 7.04647956,11.3950337 6.97745032,16.6026872 L6.97745032,16.6026872 L6.975,16.9793028 C6.975,20.1293028 2.475,20.1293028 2.475,16.9793028 C2.475,9.17913738 4.27993249,6.24353803 10.9181221,1.8360853 L10.9181221,1.8360853 L11.3306067,1.56434835 Z M13.7014359,3.02669662 C13.3801851,2.46450779 12.7491071,2.28701709 12.0472846,2.70811056 L12.0472846,2.70811056 L11.4943326,3.07415411 C5.53922168,7.05168398 3.92244167,9.58445671 3.82934955,16.3299265 L3.82934955,16.3299265 L3.82548981,16.7570548 L3.825,16.9793028 C3.825,18.3293028 5.625,18.3293028 5.625,16.9793028 C5.625,11.0288075 7.37650715,8.03280845 13.1527154,4.70049511 C13.8644343,4.27346377 14.0280972,3.59835401 13.7014359,3.02669662 Z" id="icon"></path>
                </g>
            </g>
        </g>
    </g>
</svg>