<?xml version="1.0" encoding="UTF-8"?>
<svg width="60px" height="60px" viewBox="0 0 60 60" version="1.1" xmlns="http://www.w3.org/2000/svg" xmlns:xlink="http://www.w3.org/1999/xlink">
    <!-- Generator: Sketch 61.1 (89650) - https://sketch.com -->
    <title>build muscle</title>
    <desc>Created with Sketch.</desc>
    <g id="0.-Onboarding" stroke="none" stroke-width="1" fill="none" fill-rule="evenodd">
        <g id="onboarding-icons" transform="translate(-266.000000, -307.000000)">
            <g id="build-muscle" transform="translate(266.000000, 307.000000)">
                <circle id="Oval" fill="#FAF9F7" cx="30" cy="30" r="30"></circle>
                <circle id="Oval-Copy" fill="#334D7E" cx="30" cy="30" r="30"></circle>
                <g id="icon/onboarding/build-muscle" transform="translate(12.000000, 12.000000)" fill="#FFFFFF">
                    <path d="M12.3841844,6.31921912 L12.7965984,6.69599032 C13.0410784,6.91696666 13.3243917,7.16966766 13.4413036,7.26248146 L13.4669461,7.28224304 C14.5505319,8.08283784 14.6272617,8.82608375 14.1121105,9.77249997 L13.9701516,10.0246083 L13.9493528,10.0645243 C13.4667609,11.0153507 11.2864698,12.924545 10.2588054,12.924545 C9.36155232,12.924545 8.69605439,12.2689511 8.22988066,11.120861 C8.08963166,10.7754565 8.25594303,10.3817566 8.6013475,10.2415076 C8.94675197,10.1012586 9.3404519,10.26757 9.48070089,10.6129744 C9.7630683,11.3083873 10.0332468,11.574545 10.2588054,11.574545 C10.4130165,11.574545 10.9668753,11.2315863 11.5685182,10.7047515 L11.7333348,10.55709 C12.1958324,10.1335464 12.6103974,9.67775136 12.7264013,9.48780674 L12.7437224,9.45710747 L12.811503,9.32981457 L12.9806109,9.03110227 C13.119287,8.77299068 13.0999246,8.70064078 12.8309469,8.49260934 L12.6647232,8.36803239 C12.5420583,8.27740281 12.4178373,8.17413304 12.2601012,8.03341899 L11.6325718,7.4583762 C11.5826721,7.41314607 11.5360039,7.3713194 11.4896812,7.33033934 L11.2964447,7.16329021 C10.0617998,6.12232266 9.23513652,5.95902826 8.27992501,6.85255216 L8.20618461,6.92337224 C7.92716876,7.19823573 7.64750653,7.44317226 7.33279304,7.69389387 L7.13948355,7.84530675 C6.98144951,7.96712667 6.39103878,8.40512689 6.25792973,8.50883276 L6.12195981,8.61785726 C5.02169114,9.5274763 4.73838663,10.4892625 5.01813439,13.3877542 L5.07311369,13.9528735 C5.10252868,14.2755543 5.12822971,14.6058992 5.15709361,15.0272305 L5.31349398,17.4355794 C5.32921159,17.6547138 5.34426914,17.8473332 5.36118971,18.0473856 L5.37620816,18.2214713 C5.83489516,23.4427428 7.32376161,26.5238126 11.530522,28.9775127 L11.6806852,29.06368 L11.7345296,29.0861855 C12.3470883,29.3338533 12.548417,29.286456 12.9469972,28.929262 L13.0840837,28.8033321 C13.5596286,28.3652843 13.9085599,28.1660723 14.4693493,28.1660723 C14.5311782,28.1660723 14.5927139,28.1745672 14.6522303,28.1913188 L14.9902943,28.28635 C19.119845,29.4430707 21.2958779,29.3714619 23.8187127,27.201613 C24.8974263,26.2738291 25.9357752,24.9636007 26.9371393,23.2210363 L27.0310852,23.05528 L27.0422502,23.0139029 C27.3288374,21.9490391 27.6751437,21.4694733 28.3983279,21.0908605 L28.4869393,21.0458805 C28.5465796,21.0165041 28.6102326,20.9960999 28.6758369,20.9853286 C29.4952435,20.8507932 30.8146285,19.9224006 31.5866441,18.7272878 C32.6073734,17.1471556 32.7015574,15.2605822 31.5582762,13.1206756 C30.4361478,11.020361 28.1490638,10.2665534 25.6900342,10.8984927 C23.4013388,11.4866583 21.7719408,13.1006754 21.8796791,14.6926985 C21.9048498,15.06464 21.6237365,15.386563 21.251795,15.4117337 C20.8798535,15.4369044 20.5579305,15.1557911 20.5327598,14.7838496 C20.3736511,12.4327362 22.5027729,10.3237123 25.3540196,9.59097818 C28.3715163,8.81551999 31.3053972,9.78250754 32.7489908,12.4845162 C34.1255129,15.0609854 34.0051842,17.471257 32.7206229,19.4598122 C31.8106088,20.8685525 30.309916,21.9725486 29.1267009,22.2690975 L29.0065852,22.29613 L28.9772324,22.312021 C28.6450596,22.4951712 28.5230879,22.6896428 28.3439761,23.3707276 L28.3166474,23.4765993 C28.3021259,23.5338206 28.2801606,23.5888897 28.2513135,23.6403969 C27.135105,25.6334161 25.9551838,27.1447104 24.6990149,28.2251207 C23.0588893,29.6357659 21.3129755,30.2991997 19.3976521,30.362229 C18.0690063,30.405952 16.9093594,30.208041 15.0644621,29.7072792 L14.3991352,29.52223 L14.375134,29.5278603 C14.3028418,29.5476812 14.2273573,29.595821 14.1102242,29.6965199 L13.9212752,29.867877 C13.1306414,30.5980652 12.4227079,30.8084226 11.2428379,30.3430566 L11.1190762,30.2924985 L11.0480918,30.2574926 C6.31982163,27.5702407 4.57844131,24.13035 4.05206584,18.566348 L3.99457026,17.8995128 C3.97382568,17.6370232 3.95449207,17.3637867 3.93110752,17.0065012 L3.81076868,15.1272249 C3.78244067,14.7133303 3.75735496,14.3904455 3.72882034,14.0770605 L3.65610673,13.3182187 C3.36924561,10.0799177 3.82746566,8.72839349 5.33980758,7.51382419 L5.42822979,7.44389238 C5.57727918,7.32776732 6.17144836,6.88697887 6.31528942,6.77609956 C6.61186083,6.54748866 6.86649905,6.33413106 7.11217771,6.10284046 L7.25877355,5.96164864 C8.94064249,4.30480957 10.5447664,4.69194946 12.3841844,6.31921912 Z M15.2857756,21.3199294 C15.5340636,21.3090063 15.7441957,21.5014285 15.7551188,21.7497165 C15.7588787,21.8351797 15.7647117,21.9218097 15.7726244,22.0096079 C15.7949324,22.2571329 15.6123579,22.4758756 15.364833,22.4981835 C15.117308,22.5204915 14.8985653,22.337917 14.8762574,22.0903921 C14.8671164,21.988965 14.8603579,21.8885914 14.8559885,21.7892726 C14.8450654,21.5409847 15.0374876,21.3308526 15.2857756,21.3199294 Z M7.65,11.025 C8.00086325,11.025 8.28920191,11.2926996 8.32191004,11.634993 L8.325,11.7 C8.325,12.4867415 9.26840025,13.9228726 10.6824698,15.0606845 L10.8164033,15.1664514 C12.0806014,16.1461149 13.1743247,17.9118601 14.1319388,20.4627695 C14.2629576,20.8117797 14.0862407,21.20092 13.7372305,21.3319388 C13.3882203,21.4629576 12.99908,21.2862407 12.8680612,20.9372305 C11.9903812,18.599251 11.0193986,17.0316629 9.98947904,16.2335486 C8.2042841,14.8501496 6.975,13.0098849 6.975,11.7 C6.975,11.3272078 7.27720779,11.025 7.65,11.025 Z M16.2374635,18.1135573 C16.4147559,17.9393918 16.6996689,17.9419266 16.8738345,18.1192189 C17.048,18.2965113 17.0454652,18.5814243 16.8681728,18.7555899 C16.4652659,19.1513909 16.1734201,19.597209 15.9891378,20.0963606 C15.9030623,20.329507 15.6442818,20.4487315 15.4111355,20.362656 C15.1779891,20.2765804 15.0587646,20.0178 15.1448401,19.7846536 C15.3757058,19.1593246 15.7410794,18.601187 16.2374635,18.1135573 Z M21.5220595,16.3014136 L21.6020145,16.3156488 C22.2868639,16.5019371 22.8607292,16.9107784 23.3130685,17.5285114 C23.4598986,17.7290286 23.4163767,18.0106093 23.2158595,18.1574394 C23.0153422,18.3042695 22.7337616,18.2607475 22.5869315,18.0602303 C22.2520425,17.6028922 21.8485079,17.3154003 21.3657859,17.1840935 C21.1259715,17.1188607 20.9844451,16.8715712 21.0496779,16.6317568 C21.1149106,16.3919425 21.3622001,16.2504161 21.6020145,16.3156488 Z M19.5810768,16.3414339 C19.8227769,16.283578 20.065615,16.4326132 20.1234708,16.6743133 C20.1813267,16.9160134 20.0322915,17.1588515 19.7905914,17.2167073 C19.378274,17.3154039 18.9302314,17.4768194 18.4472757,17.701664 C18.3746909,17.7354565 18.3035982,17.769916 18.2339964,17.8050401 C18.0121197,17.9170086 17.7414847,17.8279104 17.6295161,17.6060336 C17.5175476,17.3841569 17.6066458,17.1135218 17.8285225,17.0015533 C17.9066503,16.9621267 17.9862833,16.9235276 18.0674208,16.8857533 C18.6024975,16.6366433 19.1067789,16.4549667 19.5810768,16.3414339 Z" id="Shape"></path>
                </g>
            </g>
        </g>
    </g>
</svg>