<?xml version="1.0" encoding="UTF-8"?>
<svg width="60px" height="60px" viewBox="0 0 60 60" version="1.1" xmlns="http://www.w3.org/2000/svg" xmlns:xlink="http://www.w3.org/1999/xlink">
    <!-- Generator: Sketch 61.1 (89650) - https://sketch.com -->
    <title>burn fat-selected</title>
    <desc>Created with Sketch.</desc>
    <g id="0.-Onboarding" stroke="none" stroke-width="1" fill="none" fill-rule="evenodd">
        <g id="onboarding-icons" transform="translate(-96.000000, -224.000000)">
            <g id="burn-fat-selected" transform="translate(96.000000, 224.000000)">
                <circle id="Oval" fill="#FAF9F7" cx="30" cy="30" r="30"></circle>
                <circle id="Oval-Copy" fill="#334D7E" cx="30" cy="30" r="30"></circle>
                <g id="icon/onboarding/burn-fat" transform="translate(12.000000, 12.000000)" fill="#FFFFFF">
                    <path d="M7.95958397,3.22518106 C8.29085483,3.39615956 8.42079745,3.80331312 8.24981894,4.13458397 C3.55006035,13.2403662 3.55006035,22.3096338 8.24981894,31.415416 C8.42079745,31.7466869 8.29085483,32.1538404 7.95958397,32.3248189 C7.62831312,32.4957974 7.22115956,32.3658548 7.05018106,32.034584 C2.14993965,22.5403662 2.14993965,13.0096338 7.05018106,3.51541603 C7.22115956,3.18414517 7.62831312,3.05420255 7.95958397,3.22518106 Z M28.040557,3.22518106 C28.3718278,3.05420255 28.7789814,3.18414517 28.9499599,3.51541603 C33.8502013,13.0096338 33.8502013,22.5403662 28.9499599,32.034584 C28.7789814,32.3658548 28.3718278,32.4957974 28.040557,32.3248189 C27.7092861,32.1538404 27.5793435,31.7466869 27.750322,31.415416 C32.4500806,22.3096338 32.4500806,13.2403662 27.750322,4.13458397 C27.5793435,3.80331312 27.7092861,3.39615956 28.040557,3.22518106 Z M25.2081967,28.3588343 L25.2889006,28.3679078 C25.5324078,28.4176118 25.6895163,28.6553065 25.6398123,28.8988136 C25.5192855,29.4892913 25.3891636,30.0797464 25.2494474,30.6701776 C25.1922176,30.9120267 24.9497663,31.0616902 24.7079172,31.0044605 C24.4660681,30.9472307 24.3164046,30.7047794 24.3736343,30.4629303 C24.5112119,29.8815365 24.6393317,29.3001667 24.7579948,28.7188194 C24.8076988,28.4753122 25.0453934,28.3182038 25.2889006,28.3679078 Z M10.7110994,28.3679078 C10.9546066,28.3182038 11.1923012,28.4753122 11.2420052,28.7188194 C11.3606683,29.3001667 11.4887881,29.8815365 11.6263657,30.4629303 C11.6835954,30.7047794 11.5339319,30.9472307 11.2920828,31.0044605 C11.0502337,31.0616902 10.8077824,30.9120267 10.7505526,30.6701776 C10.6108364,30.0797464 10.4807145,29.4892913 10.3601877,28.8988136 C10.3104837,28.6553065 10.4675922,28.4176118 10.7110994,28.3679078 Z M25.7878329,24.8069483 L25.8689512,24.8108561 C26.1151326,24.8449287 26.2870809,25.0721194 26.2530083,25.3183008 C26.1702837,25.9160041 26.0777278,26.5136905 25.9753413,27.1113583 C25.9333773,27.356318 25.7007796,27.5208784 25.4558199,27.4789144 C25.2108603,27.4369504 25.0462998,27.2043527 25.0882638,26.959393 C25.1890246,26.3712151 25.2801052,25.7830557 25.3615065,25.1949133 C25.395579,24.9487319 25.6227697,24.7767836 25.8689512,24.8108561 Z M10.1310488,24.8108561 C10.3772303,24.7767836 10.604421,24.9487319 10.6384935,25.1949133 C10.7198948,25.7830557 10.8109754,26.3712151 10.9117362,26.959393 C10.9537002,27.2043527 10.7891397,27.4369504 10.5441801,27.4789144 C10.2992204,27.5208784 10.0666227,27.356318 10.0246587,27.1113583 C9.9222722,26.5136905 9.82971625,25.9160041 9.74699166,25.3183008 C9.71291914,25.0721194 9.88486738,24.8449287 10.1310488,24.8108561 Z M26.2159036,21.2385428 C26.4637834,21.2564833 26.6501859,21.4719732 26.6322454,21.719853 C26.5886343,22.3224179 26.5350311,22.9249731 26.4714366,23.5275165 C26.445351,23.7746719 26.2238454,23.9538843 25.97669,23.9277987 C25.7295347,23.901713 25.5503222,23.6802074 25.5764079,23.4330521 C25.638967,22.8403185 25.6916954,22.2475966 25.7345934,21.6548846 C25.7525339,21.4070048 25.9680239,21.2206023 26.2159036,21.2385428 Z M9.78409639,21.2385428 C10.0319761,21.2206023 10.2474661,21.4070048 10.2654066,21.6548846 C10.3083046,22.2475966 10.361033,22.8403185 10.4235921,23.4330521 C10.4496778,23.6802074 10.2704653,23.901713 10.02331,23.9277987 C9.77615461,23.9538843 9.55464901,23.7746719 9.52856338,23.5275165 C9.46496886,22.9249731 9.41136574,22.3224179 9.36775457,21.719853 C9.34981405,21.4719732 9.53621664,21.2564833 9.78409639,21.2385428 Z M26.3266848,17.6323698 C26.575209,17.6337904 26.775532,17.8364046 26.7741263,18.0849287 C26.7706791,18.689867 26.7571685,19.2948036 26.7335871,19.8997364 C26.7239064,20.1480759 26.5147397,20.3415471 26.2664002,20.3318664 C26.0180607,20.3221857 25.8245895,20.113019 25.8342702,19.8646795 C25.8574627,19.2697203 25.8707504,18.6747649 25.8741334,18.0798113 C25.8755465,17.8312872 26.0781607,17.6309641 26.3266848,17.6323698 Z M9.67331516,17.6323698 C9.92183928,17.6309641 10.1244535,17.8312872 10.1258666,18.0798113 C10.1292496,18.6747649 10.1425373,19.2697203 10.1657298,19.8646795 C10.1754105,20.113019 9.98193934,20.3221857 9.73359982,20.3318664 C9.4852603,20.3415471 9.27609357,20.1480759 9.26641286,19.8997364 C9.24283151,19.2948036 9.22932089,18.689867 9.22587371,18.0849287 C9.22446801,17.8364046 9.42479104,17.6337904 9.67331516,17.6323698 Z M26.1970156,14.0282062 C26.4450826,14.0130732 26.6584483,14.2019035 26.6735813,14.4499705 C26.7104573,15.0544594 26.7372774,15.6589548 26.7540412,16.2634547 C26.7609306,16.5118874 26.5651212,16.7188668 26.3166886,16.7257562 C26.068256,16.7326457 25.8612765,16.5368363 25.8543871,16.2884036 C25.8378995,15.6938649 25.811521,15.0993217 25.7752513,14.5047719 C25.7601183,14.2567049 25.9489486,14.0433392 26.1970156,14.0282062 Z M9.80298441,14.0282062 C10.0510514,14.0433392 10.2398817,14.2567049 10.2247487,14.5047719 C10.188479,15.0993217 10.1621005,15.6938649 10.1456129,16.2884036 C10.1387235,16.5368363 9.93174404,16.7326457 9.68331142,16.7257562 C9.43487879,16.7188668 9.23906936,16.5118874 9.24595881,16.2634547 C9.26272261,15.6589548 9.28954267,15.0544594 9.3264187,14.4499705 C9.34155169,14.2019035 9.55491743,14.0130732 9.80298441,14.0282062 Z M25.8302929,10.4481115 C26.0768319,10.416731 26.3021302,10.5911515 26.3335106,10.8376906 C26.4100536,11.4390469 26.4766445,12.0404174 26.5332826,12.6418003 C26.5565858,12.8892335 26.3748925,13.1087087 26.1274593,13.1320119 C25.8800261,13.1553151 25.6605509,12.9736218 25.6372476,12.7261886 C25.5815302,12.1345817 25.5160192,11.5429626 25.4407138,10.9513292 C25.4093333,10.7047902 25.5837538,10.4794919 25.8302929,10.4481115 Z M10.088551,10.4450902 L10.1697071,10.4481115 C10.4162462,10.4794919 10.5906667,10.7047902 10.5592862,10.9513292 C10.4839808,11.5429626 10.4184698,12.1345817 10.3627524,12.7261886 C10.3394491,12.9736218 10.1199739,13.1553151 9.8725407,13.1320119 C9.62510748,13.1087087 9.44341421,12.8892335 9.46671742,12.6418003 C9.52335552,12.0404174 9.58994638,11.4390469 9.66648936,10.8376906 C9.69786981,10.5911515 9.92316808,10.416731 10.1697071,10.4481115 Z M25.2319581,6.89535323 C25.4759788,6.84823488 25.7119936,7.00785577 25.759112,7.25187646 C25.8740723,7.84724343 25.9792776,8.44263096 26.074727,9.03803749 C26.1140661,9.28343241 25.9470249,9.51425498 25.70163,9.55359412 C25.4562351,9.59293327 25.2254125,9.42589206 25.1860734,9.18049714 C25.0921356,8.59451997 24.9885898,8.00852381 24.8754349,7.42250709 C24.8283165,7.1784864 24.9879374,6.94247158 25.2319581,6.89535323 Z M10.6872463,6.88713631 L10.7680419,6.89535323 C11.0120626,6.94247158 11.1716835,7.1784864 11.1245651,7.42250709 C11.0114102,8.00852381 10.9078644,8.59451997 10.8139266,9.18049714 C10.7745875,9.42589206 10.5437649,9.59293327 10.29837,9.55359412 C10.0529751,9.51425498 9.88593386,9.28343241 9.92527301,9.03803749 C10.0207224,8.44263096 10.1259277,7.84724343 10.240888,7.25187646 C10.2880064,7.00785577 10.5240212,6.84823488 10.7680419,6.89535323 Z M24.4125549,3.3892752 C24.6531991,3.32717349 24.8986231,3.47191073 24.9607248,3.71255489 C25.1123815,4.30022458 25.2545334,4.8879196 25.3871793,5.47563874 C25.4418949,5.71806902 25.2897221,5.95895334 25.0472918,6.01366893 C24.8048616,6.06838452 24.5639772,5.9162117 24.5092616,5.67378142 C24.378639,5.09502718 24.2386439,4.5162488 24.0892752,3.93744511 C24.0271735,3.69680095 24.1719107,3.45137692 24.4125549,3.3892752 Z M11.5073114,3.37608316 L11.5874451,3.3892752 C11.8280893,3.45137692 11.9728265,3.69680095 11.9107248,3.93744511 C11.7613561,4.5162488 11.621361,5.09502718 11.4907384,5.67378142 C11.4360228,5.9162117 11.1951384,6.06838452 10.9527082,6.01366893 C10.7102779,5.95895334 10.5581051,5.71806902 10.6128207,5.47563874 C10.7454666,4.8879196 10.8876185,4.30022458 11.0392752,3.71255489 C11.1013769,3.47191073 11.3468009,3.32717349 11.5874451,3.3892752 Z" id="icon"></path>
                </g>
            </g>
        </g>
    </g>
</svg>