<?xml version="1.0" encoding="UTF-8"?>
<svg width="17px" height="19px" viewBox="0 0 17 19" version="1.1" xmlns="http://www.w3.org/2000/svg" xmlns:xlink="http://www.w3.org/1999/xlink">
    <!-- Generator: Sketch 61.1 (89650) - https://sketch.com -->
    <title>chicken</title>
    <desc>Created with Sketch.</desc>
    <g id="0.-Onboarding" stroke="none" stroke-width="1" fill="none" fill-rule="evenodd">
        <g id="onboarding-icons-copy" transform="translate(-65.000000, -257.000000)" fill="#333230">
            <g id="icon/food/protein/chicken" transform="translate(63.285714, 257.000000)">
                <path d="M12.3650691,17.586917 C12.524173,17.7195036 12.5456695,17.9559653 12.413083,18.1150691 C12.2804964,18.274173 12.0440347,18.2956695 11.8849309,18.163083 C11.1530411,17.5531748 10.7659663,17.3983449 10.1866496,17.4948977 C9.77911214,17.5628206 9.44423843,17.7637449 9.1678258,18.1092606 C9.03844722,18.2709839 8.80246258,18.2972044 8.64073936,18.1678258 C8.47901613,18.0384472 8.45279562,17.8024626 8.5821742,17.6407394 C8.97242824,17.1529218 9.47088786,16.853846 10.0633504,16.7551023 C10.8957984,16.6163609 11.4815743,16.8506713 12.3650691,17.586917 Z M15.125,2.5 C16.4008992,2.5 16.81905,2.845444 16.9446279,3.67174006 L16.9623141,3.79865943 C17.0012901,4.0721753 17.0515237,4.17287296 17.2402598,4.26508936 L17.3514603,4.31679758 C17.9129562,4.58953919 18.3111163,5.05350168 18.4667222,5.54254863 C18.5459843,5.79165803 18.5552019,6.03131594 18.4680861,6.22214088 C18.3306393,6.52321478 18.0057027,6.60961411 17.7072949,6.4604102 C17.4403532,6.32693937 17.2629232,6.2743675 17.0660802,6.25796392 L17.0122411,6.25420564 C16.966729,6.25168403 16.916713,6.25059052 16.840533,6.250193 L16.75,6.25 C16.4962781,6.25 16.25,6.63061167 16.25,7.625 C16.25,7.96173044 16.264116,8.215962 16.2961449,8.51388269 L16.3724315,9.14368453 L16.398501,9.37971106 C16.4667165,10.0412318 16.5,10.7648285 16.5,11.875 C16.5,13.3261362 15.473971,14.5130257 13.802083,15.40868 C12.6441226,16.029016 11.1648821,16.4753386 10.4341396,16.499011 L10.375,16.5 L9.125,16.5 C8.91789322,16.5 8.75,16.3321068 8.75,16.125 C8.75,15.930076 8.89872202,15.7698878 9.088885,15.7517166 L9.125,15.75 L10.375,15.75 C10.9463379,15.75 12.3590341,15.3309001 13.447917,14.74757 C14.9020646,13.9685624 15.75,12.9876879 15.75,11.875 L15.748615,11.500647 C15.7415297,10.5838422 15.7072121,9.96176419 15.6445569,9.38181654 L15.6202847,9.17089105 C15.6037268,9.03529455 15.5719255,8.78170616 15.5641399,8.71552827 C15.5197465,8.33818446 15.5,8.03488553 15.5,7.625 C15.5,6.2671156 15.9963689,5.5 16.75,5.5 L16.9348491,5.50114096 C17.0094646,5.50246451 17.0640078,5.50519156 17.1283643,5.5105546 C17.3009788,5.52493914 17.4645078,5.5580753 17.6401327,5.61785072 L17.69925,5.639 L17.68827,5.61606403 C17.5665032,5.3777866 17.3412059,5.14948488 17.0386943,4.99876446 L16.9726981,4.96767933 C16.4961576,4.75588355 16.3091324,4.45098156 16.2292547,3.96602873 L16.1988094,3.75458608 C16.1316529,3.32326081 16.0055416,3.25 15.125,3.25 C14.2479946,3.25 13.6130695,3.89195461 13.0676371,5.12841255 L13.0288278,5.2177414 C12.9166432,5.47987995 12.3482408,7.09117972 12.1870189,7.33301257 L12.1462362,7.39663118 C12.1319746,7.41965663 12.1168787,7.44475514 12.1004476,7.4726881 L11.9748399,7.69046064 L11.9116796,7.79718089 C11.891517,7.83049245 11.8719918,7.86192168 11.8523441,7.89260724 L11.8226855,7.93822015 C11.1028042,9.0283556 9.86918629,9.42087037 7.31335038,8.99489772 C5.39297177,8.67483462 3.93104249,8.10982863 2.93593217,7.28914791 L2.893,7.253 L2.90101859,7.28084398 C3.03219136,7.70957739 3.24818065,8.04167728 3.54650108,8.28329886 L3.6,8.325 C3.76568542,8.44926407 3.79926407,8.68431458 3.675,8.85 C3.55073593,9.01568542 3.31568542,9.04926407 3.15,8.925 C2.37830979,8.34623234 2,7.40045787 2,6.125 C2,5.75397202 2.48120956,5.60827348 2.68701886,5.91698743 C3.45281463,7.06568107 5.02916074,7.85385413 7.43664962,8.25510228 C9.72435113,8.63638586 10.6593238,8.33889455 11.1968319,7.52493178 C11.2376354,7.46314197 11.2774217,7.3979173 11.3263101,7.31375251 L11.4539969,7.09242301 C11.4934263,7.0253931 11.5279611,6.96951753 11.5629811,6.91698743 C11.6628941,6.76711796 12.1926569,5.26535333 12.3393162,4.9226586 C12.9991237,3.38090529 13.8423958,2.5 15.125,2.5 Z M4.125,9 C4.33210678,9 4.5,9.16789322 4.5,9.375 C4.5,9.58210678 4.33210678,9.75 4.125,9.75 C3.82114924,9.75 3.43926364,9.86604147 2.98484734,10.1051451 L2.9535,10.12175 L2.99451253,10.1321701 C3.13030381,10.1653649 3.3027983,10.1987126 3.50892754,10.2297986 L3.6745614,10.2532895 C4.00564538,10.2974341 4.11343981,10.7148338 3.86139998,10.9162877 L3.83301257,10.9370189 L3.35925,11.25275 L3.4809132,11.4903546 C4.05585858,12.6053229 4.48385358,13.3122841 4.74268986,13.5866713 L4.76516504,13.609835 C5.06048156,13.9051515 5.56568841,14.216048 6.27730192,14.5323207 C6.31447732,14.5488431 6.34763913,14.5706707 6.37629222,14.5965161 C9.67330778,15.5616088 11.5724143,14.4485303 12.2579535,11.1731763 C12.3003821,10.9704621 12.4991095,10.840525 12.7018237,10.8829535 C12.9045379,10.9253821 13.034475,11.1241095 12.9920465,11.3268237 C12.1955215,15.132443 9.76022923,16.4649614 5.88629863,15.2323472 C5.80460561,15.2063539 5.73803752,15.154985 5.69252404,15.0897044 C5.04608067,14.7800866 4.56079787,14.466128 4.23483496,14.140165 C3.86192814,13.7672582 3.30902661,12.8315787 2.5395898,11.2927051 C2.46065073,11.1348269 2.50296545,10.9451462 2.63689644,10.835265 L2.65975,10.818 L2.60701672,10.801438 C2.45810597,10.753096 2.33853412,10.6986552 2.24595603,10.6362703 L2.2125,10.6125 C1.76037061,10.273403 1.95120708,9.82811786 2.4389479,9.54940882 C3.07409372,9.18646835 3.63349878,9 4.125,9 Z M15.5,4 C15.7598987,4 15.9734829,4.14872202 15.9977111,4.338885 L16,4.375 L16,4.875 C16,5.08210678 15.7761424,5.25 15.5,5.25 C15.2401013,5.25 15.0265171,5.10127798 15.0022889,4.911115 L15,4.875 L15,4.375 C15,4.16789322 15.2238576,4 15.5,4 Z M16.0928916,1.20495363 L16.09425,1.208 L16.1186398,1.20595488 C16.8044274,1.15655365 17.2284285,1.55903946 17.2491999,2.31606928 L17.25,2.375 C17.25,2.58210678 17.0821068,2.75 16.875,2.75 C16.6678932,2.75 16.5,2.58210678 16.5,2.375 C16.5,1.95594328 16.3993479,1.88045419 15.9659509,1.98880344 C15.7859967,2.03379197 15.6001894,1.94045458 15.5288462,1.76923077 C15.4018502,1.46444058 15.2729701,1.27014702 15.1570336,1.17655965 C15.0944674,1.12605447 15.0579662,1.11757895 15.01731,1.12827795 C14.8866788,1.16265458 14.7028144,1.37768246 14.5981788,1.6392715 C14.5285332,1.8133855 14.3409766,1.9092853 14.1590491,1.86380344 C13.9278239,1.80599714 13.723821,1.80312386 13.611707,1.85544368 C13.5095639,1.90311047 13.4585398,2.01997207 13.4971042,2.32848697 C13.5227926,2.53399445 13.3770205,2.72141577 13.171513,2.7471042 C12.9660055,2.77279264 12.7785842,2.6270205 12.7528958,2.42151303 C12.6769421,1.81388373 12.8687896,1.37449124 13.294543,1.17580632 C13.4950689,1.08222754 13.7232612,1.05330716 13.966466,1.07276386 L14.03825,1.07975 L14.0423051,1.07276551 C14.2238425,0.762511718 14.4781879,0.51551602 14.7738431,0.418515154 L14.82644,0.402972049 C15.3222859,0.272486285 15.7584296,0.562113304 16.0928916,1.20495363 Z" id="icon"></path>
            </g>
        </g>
    </g>
</svg>