<?xml version="1.0" encoding="UTF-8"?>
<svg width="12px" height="17px" viewBox="0 0 12 17" version="1.1" xmlns="http://www.w3.org/2000/svg" xmlns:xlink="http://www.w3.org/1999/xlink">
    <!-- Generator: Sketch 61.1 (89650) - https://sketch.com -->
    <title>corn</title>
    <desc>Created with Sketch.</desc>
    <g id="0.-Onboarding" stroke="none" stroke-width="1" fill="none" fill-rule="evenodd">
        <g id="onboarding-icons-copy" transform="translate(-22.000000, -338.000000)" fill="#333230">
            <g id="icon/food/grain/corn" transform="translate(18.000000, 337.000000)">
                <path d="M10,1.875 C12.5478057,1.875 13.7373325,5.14164333 13.7498993,11.5224956 C14.3817972,11.5454632 15.0462419,11.8210583 15.8237496,12.3070006 C16.1143119,12.4886021 16.0292,12.932657 15.692082,12.9939512 C14.9068239,13.1367254 14.5328032,13.6083363 13.953818,14.958394 L13.8219058,15.2692501 C13.3894067,16.2863028 13.0883755,16.8154212 12.5834154,17.2749925 C11.920885,17.8779708 11.0437309,18.1308994 9.87674555,18.0026163 C8.62494812,18.1446494 7.64153169,17.675958 6.88213085,16.6892558 C6.29869685,15.9311903 5.88371116,14.9605714 5.41825252,13.462141 L5.41825252,13.462141 L5.38623078,13.3580232 L4.95254734,11.9200002 C4.62001559,10.8471359 4.37445304,10.2492707 4.075,9.85 C3.8375745,9.53343267 4.18877207,9.11262329 4.5427051,9.2895898 C5.16581409,9.6011443 5.73603223,9.93909554 6.25505308,10.3001199 C6.32999903,4.73601768 7.53055631,1.875 10,1.875 Z M10.6253265,14.7840615 L10.625,14.875 C10.625,14.9591954 10.5417579,15.0336698 10.4141788,15.0789705 C10.3448595,15.1761079 10.2737232,15.2774628 10.2012139,15.3817498 L10.1209899,15.4975262 C10.3040726,16.1723788 10.3833732,16.8199328 10.3384212,17.2871906 C11.7597099,17.348415 12.3756584,16.7253704 13.0936344,15.0645841 L13.2242881,14.7572273 C13.7154775,13.5973948 14.1068541,12.9321921 14.6963357,12.5681824 L14.723,12.552 L14.6893709,12.536389 C13.2896261,11.8940459 12.3672648,12.3857954 10.6253265,14.7840615 Z M5.28025,10.557 L5.33432425,10.6986484 C5.4377549,10.9767415 5.54401787,11.2958422 5.65954681,11.6676381 L5.65954681,11.6676381 L5.73800945,11.923437 C5.7431774,11.9404873 5.83471124,12.2470983 5.93124896,12.5685782 L5.93124896,12.5685782 L6.17149797,13.3578318 C7.04751355,16.1327244 7.94260243,17.3494659 9.55966591,17.2760816 L9.55966591,17.2760816 L9.59375,17.274 L9.59581093,17.2499255 C9.6032432,17.1466141 9.60406298,17.0207314 9.59693791,16.8801777 L9.59693791,16.8801777 L9.59270715,16.8087148 C9.55400463,16.2357939 9.40153957,15.5663259 9.12298584,14.8788876 C8.47499804,13.2797287 7.26694496,11.81704 5.40423583,10.6348859 L5.40423583,10.6348859 L5.28025,10.557 Z M10.6255613,2.739033 L10.6254463,2.84583999 C10.6726308,2.92132088 10.7202777,2.99975693 10.7681452,3.08101831 C10.8382226,3.1999839 10.7985909,3.35323352 10.6796253,3.42331091 C10.6087164,3.4650802 10.5256275,3.46787316 10.4552306,3.43812193 C10.3685666,3.47619743 10.2523427,3.5 10.125,3.5 C9.84885763,3.5 9.625,3.38807119 9.625,3.25 L9.625,3.25 L9.6244533,3.173 L9.52752944,3.33082579 C9.46820248,3.42941057 9.35163735,3.472362 9.24596862,3.4427414 L9.18442003,3.41612488 C9.06611829,3.34493253 9.02792859,3.19131722 9.09912094,3.07301548 C9.16604233,2.96181087 9.23260155,2.85591222 9.29814651,2.75566008 C7.80259639,3.35885521 7.00133555,6.02209918 7.00000167,10.8628881 C7.33800918,11.1393239 7.64911393,11.4268439 7.93469208,11.7242384 C8.04476858,11.7490282 8.12783797,11.8499707 8.12656909,11.969671 L8.12406573,11.9269915 C8.76654406,12.6343813 9.26955584,13.3944829 9.6412713,14.191262 C9.69160899,14.0815786 9.88925079,14 10.125,14 C10.1753079,14 10.2238804,14.0037149 10.2696802,14.010626 C10.8080038,13.3044127 11.2920573,12.7604662 11.7501498,12.3638122 L11.7457929,11.9787601 C11.7441292,11.8406989 11.8547012,11.7274295 11.9927623,11.7257658 C12.1308235,11.7241021 12.2440929,11.8346741 12.2457566,11.9727352 L12.2459275,11.9855233 C12.5006306,11.8184478 12.750115,11.6983033 12.9996609,11.622253 L12.9987278,11.2656249 C12.9620001,6.12898533 12.1309805,3.32038585 10.6255613,2.739033 Z M10.125,12 C10.4011424,12 10.625,12.1119288 10.625,12.25 L10.625,12.25 L10.625,13.25 C10.625,13.3880712 10.4011424,13.5 10.125,13.5 C9.84885763,13.5 9.625,13.3880712 9.625,13.25 L9.625,13.25 L9.625,12.25 C9.625,12.1119288 9.84885763,12 10.125,12 Z M10.125,10 C10.4011424,10 10.625,10.1119288 10.625,10.25 L10.625,10.25 L10.625,11.25 C10.625,11.3880712 10.4011424,11.5 10.125,11.5 C9.84885763,11.5 9.625,11.3880712 9.625,11.25 L9.625,11.25 L9.625,10.25 C9.625,10.1119288 9.84885763,10 10.125,10 Z M11.9464808,9.72706499 C12.0844852,9.72277145 12.1998405,9.83116553 12.204134,9.96916994 L12.2153628,10.3590451 C12.2206413,10.5576649 12.225416,10.7618083 12.2296872,10.9714766 C12.2324992,11.1095191 12.1228732,11.2237043 11.9848307,11.2265164 C11.8467881,11.2293284 11.7326029,11.1197025 11.7297909,10.9816599 L11.7155416,10.3724178 C11.7120418,10.2407229 11.7083199,10.1114896 11.7043758,9.98471824 C11.7000823,9.84671382 11.8084764,9.73135854 11.9464808,9.72706499 Z M7.92259032,9.71805654 C8.06060097,9.72214456 8.16916672,9.8373383 8.16507869,9.97534896 C8.15944228,10.1656329 8.15431322,10.3613993 8.1496917,10.562647 L8.1496917,10.562647 L8.14112541,10.9724506 C8.13851432,11.1104971 8.02448882,11.2202892 7.88644232,11.2176781 C7.74839583,11.215067 7.63860374,11.1010415 7.64121483,10.962995 C7.64517937,10.7533927 7.64965506,10.5492584 7.65464207,10.350591 L7.65464207,10.350591 L7.6652979,9.96054491 C7.66938592,9.82253426 7.78457966,9.71396851 7.92259032,9.71805654 Z M10.125,8 C10.4011424,8 10.625,8.11192881 10.625,8.25 L10.625,8.25 L10.625,9.25 C10.625,9.38807119 10.4011424,9.5 10.125,9.5 C9.84885763,9.5 9.625,9.38807119 9.625,9.25 L9.625,9.25 L9.625,8.25 C9.625,8.11192881 9.84885763,8 10.125,8 Z M11.843836,7.72885792 C11.9815959,7.71959175 12.1007841,7.8237565 12.1100502,7.96151641 C12.1309258,8.27187301 12.1495675,8.60649094 12.1659811,8.965398 C12.1722888,9.10332503 12.0655902,9.22025037 11.9276632,9.22655807 C11.7897362,9.23286576 11.6728108,9.1261672 11.6665031,8.98824017 L11.6495183,8.64091729 C11.6377091,8.41478962 11.6249283,8.19950518 11.6111775,7.99507218 C11.6019113,7.85731228 11.7060761,7.73812409 11.843836,7.72885792 Z M8.02190475,7.71985582 C8.15968164,7.72886588 8.26406777,7.84786023 8.2550577,7.98563712 C8.24167072,8.19034331 8.22926226,8.40571738 8.21783395,8.63175145 L8.21783395,8.63175145 L8.20142677,8.97879658 C8.19533813,9.11673346 8.07858238,9.22361757 7.94064551,9.21752893 C7.80270863,9.21144028 7.69582452,9.09468453 7.70191317,8.95674766 C7.71773545,8.59829723 7.73580373,8.26372645 7.75612345,7.95300877 C7.76513351,7.81523188 7.88412785,7.71084575 8.02190475,7.71985582 Z M10.125,6 C10.4011424,6 10.625,6.11192881 10.625,6.25 L10.625,6.25 L10.625,7.25 C10.625,7.38807119 10.4011424,7.5 10.125,7.5 C9.84885763,7.5 9.625,7.38807119 9.625,7.25 L9.625,7.25 L9.625,6.25 C9.625,6.11192881 9.84885763,6 10.125,6 Z M11.8861734,5.94528662 C11.9384893,6.22434736 11.9850196,6.56112438 12.0259896,6.95619523 C12.0402316,7.09352992 11.9404452,7.21640711 11.8031105,7.23064911 C11.6657758,7.2448911 11.5428986,7.14510476 11.5286566,7.00777006 C11.4890004,6.62536734 11.4442847,6.30172391 11.3947347,6.03741734 C11.3692935,5.90171031 11.4586817,5.77107386 11.5943887,5.74563266 C11.7300957,5.72019147 11.8607322,5.80957959 11.8861734,5.94528662 Z M8.20641485,5.73168022 L8.26399848,5.73536992 C8.39987177,5.75990765 8.49012708,5.88994648 8.46558935,6.02581978 C8.41734317,6.29297434 8.37390406,6.61708318 8.33546661,6.99763834 C8.32159152,7.13501059 8.19898132,7.23512481 8.06160907,7.22124972 C7.92423683,7.20737462 7.8241226,7.08476443 7.8379977,6.94739218 C7.87765525,6.55475716 7.92277402,6.21811602 7.97354862,5.93696079 C7.99808635,5.8010875 8.12812518,5.71083219 8.26399848,5.73536992 Z M10.125,4 C10.4011424,4 10.625,4.11192881 10.625,4.25 L10.625,4.25 L10.625,5.25 C10.625,5.38807119 10.4011424,5.5 10.125,5.5 C9.84885763,5.5 9.625,5.38807119 9.625,5.25 L9.625,5.25 L9.625,4.25 C9.625,4.11192881 9.84885763,4 10.125,4 Z M11.2446944,3.98903888 C11.3895469,4.3021998 11.5172984,4.62112331 11.6247512,4.94419668 C11.6683262,5.07521147 11.5974422,5.21674443 11.4664274,5.26031939 C11.3354126,5.30389434 11.1938796,5.23301035 11.1503047,5.10199556 C11.0489676,4.79731018 10.9281416,4.49567563 10.7908895,4.1989462 C10.7329252,4.07363143 10.7875235,3.92505438 10.9128383,3.86709007 C11.0381531,3.80912577 11.1867301,3.86372411 11.2446944,3.98903888 Z M8.61518106,3.97811652 C8.67386543,3.85313733 8.82275416,3.79939476 8.94773335,3.85807912 C9.07271254,3.91676349 9.12645511,4.06565222 9.06777075,4.19063141 C8.92869451,4.48681993 8.80703308,4.78768204 8.70600304,5.09130402 C8.66240995,5.22231279 8.52086719,5.29317719 8.38985843,5.2495841 C8.25884967,5.20599101 8.18798526,5.06444824 8.23157835,4.93343948 C8.33904135,4.61048478 8.46803278,4.29149595 8.61518106,3.97811652 Z" id="corn"></path>
            </g>
        </g>
    </g>
</svg>