<?xml version="1.0" encoding="UTF-8"?>
<svg width="19px" height="19px" viewBox="0 0 19 19" version="1.1" xmlns="http://www.w3.org/2000/svg" xmlns:xlink="http://www.w3.org/1999/xlink">
    <!-- Generator: Sketch 61.1 (89650) - https://sketch.com -->
    <title>dairy-free</title>
    <desc>Created with Sketch.</desc>
    <g id="0.-Onboarding" stroke="none" stroke-width="1" fill="none" fill-rule="evenodd">
        <g id="onboarding-icons-copy" transform="translate(-19.000000, -178.000000)" fill="#333230">
            <g id="icon/diet/dairy-free" transform="translate(18.000000, 177.000000)">
                <path d="M1.73668444,1.20909239 L1.76516504,1.23483496 L19.015165,18.484835 C19.1616117,18.6312816 19.1616117,18.8687184 19.015165,19.015165 C18.8778713,19.1524587 18.6606057,19.1610396 18.5133156,19.0409076 L18.484835,19.015165 L1.23483496,1.76516504 C1.08838835,1.61871843 1.08838835,1.38128157 1.23483496,1.23483496 C1.37212865,1.09754126 1.58939426,1.0889604 1.73668444,1.20909239 Z M6.375,8 C6.56992403,8 6.73011217,8.14872202 6.74828336,8.338885 L6.75,8.375 L6.75,17.375 C6.75,17.98225 6.98392471,18.2345762 7.56910655,18.2493111 L7.625,18.25 L12.375,18.25 C12.98225,18.25 13.2345762,18.0160753 13.2493111,17.4308935 L13.25,17.375 L13.25,15.125 C13.25,14.9178932 13.4178932,14.75 13.625,14.75 C13.819924,14.75 13.9801122,14.898722 13.9982834,15.088885 L14,15.125 L14,17.375 C14,18.3928219 13.4405795,18.9743689 12.4422071,18.9991726 L12.375,19 L7.625,19 C6.60717815,19 6.02563109,18.4405795 6.00082745,17.4422071 L6,8.375 C6,8.16789322 6.16789322,8 6.375,8 Z M12.125,1 C12.3321068,1 12.5,1.16789322 12.5,1.375 L12.5,1.375 L12.5,3.125 C12.5,3.28624742 12.3982276,3.42372462 12.255413,3.47670132 C12.9009377,4.654702 13.3784339,5.83620913 13.6875657,7.01971902 C13.8790463,7.75280126 13.9832403,8.50571378 13.9981373,9.26280366 L14,9.45215409 L14,12.125 C14,12.3321068 13.8321068,12.5 13.625,12.5 C13.430076,12.5 13.2698878,12.351278 13.2517166,12.161115 L13.25,12.125 L13.25,9.45215419 C13.2499998,8.69529679 13.1531846,7.94154831 12.9619113,7.20925942 C12.6396602,5.97552285 12.1226252,4.73937005 11.409908,3.50056521 L8.581,3.5 L8.51114563,3.61001206 C8.10919325,4.27450646 7.76622624,5.06615258 7.48341713,5.98528219 C7.42250995,6.18323051 7.21266612,6.2943243 7.01471781,6.23341713 C6.81676949,6.17250995 6.7056757,5.96266612 6.76658287,5.76471781 C7.03314188,4.89840104 7.35276314,4.1325697 7.72626486,3.46745532 C7.59297008,3.41151881 7.5,3.27911657 7.5,3.125 L7.5,3.125 L7.5,1.375 C7.5,1.16789322 7.66789322,1 7.875,1 L7.875,1 Z M11.75,1.75 L8.25,1.75 L8.25,2.75 L8.36401154,2.75013109 C8.37035682,2.74993967 8.37671212,2.74990876 8.38307102,2.75003963 L11.75,2.75 L11.75,1.75 Z" id="icon"></path>
            </g>
        </g>
    </g>
</svg>