<?xml version="1.0" encoding="UTF-8"?>
<svg width="60px" height="60px" viewBox="0 0 60 60" version="1.1" xmlns="http://www.w3.org/2000/svg" xmlns:xlink="http://www.w3.org/1999/xlink">
    <!-- Generator: Sketch 61.1 (89650) - https://sketch.com -->
    <title>day selector-selected</title>
    <desc>Created with Sketch.</desc>
    <g id="0.-Onboarding" stroke="none" stroke-width="1" fill="none" fill-rule="evenodd">
        <g id="onboarding-icons" transform="translate(-266.000000, -391.000000)">
            <g id="day-selector-selected" transform="translate(266.000000, 391.000000)">
                <circle id="Oval" fill="#FAF9F7" cx="30" cy="30" r="30"></circle>
                <circle id="Oval-Copy" fill="#334D7E" cx="30" cy="30" r="30"></circle>
                <g id="icon/onboarding/dayselector" transform="translate(12.000000, 12.000000)" fill="#FFFFFF">
                    <path d="M23.625,3.6 C24.7433766,3.6 25.65,4.50662338 25.65,5.625 L25.65,7.199 L27.7166667,7.2 C29.2744698,7.2 30.5437309,8.43539575 30.5981799,9.97991742 L30.6,10.0833333 L30.6,29.5166667 C30.6,31.0744698 29.3646042,32.3437309 27.8200826,32.3981799 L27.7166667,32.4 L8.28333333,32.4 C6.72553015,32.4 5.45626911,31.1646042 5.40182005,29.6200826 L5.4,29.5166667 L5.4,10.0833333 C5.4,8.52553015 6.63539575,7.25626911 8.17991742,7.20182005 L8.28333333,7.2 L10.35,7.199 L10.35,5.625 C10.35,4.50662338 11.2566234,3.6 12.375,3.6 C13.4933766,3.6 14.4,4.50662338 14.4,5.625 L14.4,7.2 L21.6,7.2 L21.6,5.625 C21.6,4.50662338 22.5066234,3.6 23.625,3.6 Z M29.25,14.399 L6.75,14.399 L6.75,29.5166667 C6.75,30.3352754 7.39149304,31.0040554 8.19920363,31.0477312 L8.28333333,31.05 L27.7166667,31.05 C28.5352754,31.05 29.2040554,30.408507 29.2477312,29.6007964 L29.25,29.5166667 L29.25,14.399 Z M14.625,18 C14.9977922,18 15.3,18.3022078 15.3,18.675 L15.3,18.675 L15.3,20.7 L20.7,20.7 L20.7,18.675 C20.7,18.336098 20.9497585,18.0555302 21.2752534,18.0073187 L21.375,18 L24.525,18 C24.8977922,18 25.2,18.3022078 25.2,18.675 L25.2,18.675 L25.2009636,20.7512566 C26.3327744,20.9350288 27,21.60983 27,22.725 C27,23.84017 26.3327744,24.5149712 25.2009636,24.6987434 L25.2,26.775 C25.2,27.1477922 24.8977922,27.45 24.525,27.45 L24.525,27.45 L21.375,27.45 C21.0022078,27.45 20.7,27.1477922 20.7,26.775 L20.7,26.775 L20.7,24.75 L15.3,24.75 L15.3,26.775 C15.3,27.113902 15.0502415,27.3944698 14.7247466,27.4426813 L14.625,27.45 L11.475,27.45 C11.1022078,27.45 10.8,27.1477922 10.8,26.775 L10.8,26.775 L10.800023,24.6989034 C9.66761332,24.5153633 9,23.840494 9,22.725 C9,21.609506 9.66761332,20.9346367 10.800023,20.7510966 L10.8,18.675 C10.8,18.3022078 11.1022078,18 11.475,18 L11.475,18 Z M12.15,26.1 L13.95,26.1 L13.95,19.35 L12.15,19.35 L12.15,26.1 Z M23.85,19.35 L22.05,19.35 L22.05,26.1 L23.85,26.1 L23.85,19.35 Z M20.7,22.05 L15.3,22.05 L15.3,23.4 L20.7,23.4 L20.7,22.05 Z M25.2,22.11885 L25.2,23.3307 L25.2189911,23.3257302 C25.5190252,23.2356329 25.6360826,23.0599189 25.6488159,22.7789249 L25.6488159,22.7789249 L25.65,22.725 C25.65,22.4123798 25.5377774,22.2199982 25.2189911,22.1242698 L25.2189911,22.1242698 L25.2,22.11885 Z M10.8,22.11885 L10.7810089,22.1242698 C10.4622226,22.2199982 10.35,22.4123798 10.35,22.725 L10.3511841,22.7789249 C10.3639174,23.0599189 10.4809748,23.2356329 10.7810089,23.3257302 L10.8,23.3307 L10.8,22.11885 Z M10.35,8.549 L8.28333333,8.55 C7.4647246,8.55 6.7959446,9.19149304 6.75226884,9.99920363 L6.75,10.0833333 L6.75,13.05 L29.25,13.05 L29.25,10.0833333 C29.25,9.2647246 28.608507,8.5959446 27.8007964,8.55226884 L27.7166667,8.55 L25.65,8.549 L25.65,8.775 C25.65,9.89337662 24.7433766,10.8 23.625,10.8 C22.5066234,10.8 21.6,9.89337662 21.6,8.775 L21.6,8.55 L14.4,8.55 L14.4,8.775 C14.4,9.89337662 13.4933766,10.8 12.375,10.8 C11.2566234,10.8 10.35,9.89337662 10.35,8.775 L10.35,8.549 Z M12.375,4.95 C12.0241367,4.95 11.7357981,5.21769964 11.70309,5.559993 L11.7,5.625 L11.7,8.775 C11.7,9.14779221 12.0022078,9.45 12.375,9.45 C12.7258633,9.45 13.0142019,9.18230036 13.04691,8.840007 L13.05,8.775 L13.05,5.625 C13.05,5.25220779 12.7477922,4.95 12.375,4.95 Z M23.625,4.95 C23.2741367,4.95 22.9857981,5.21769964 22.95309,5.559993 L22.95,5.625 L22.95,8.775 C22.95,9.14779221 23.2522078,9.45 23.625,9.45 C23.9758633,9.45 24.2642019,9.18230036 24.29691,8.840007 L24.3,8.775 L24.3,5.625 C24.3,5.25220779 23.9977922,4.95 23.625,4.95 Z" id="icon"></path>
                </g>
            </g>
        </g>
    </g>
</svg>