<?xml version="1.0" encoding="UTF-8"?>
<svg width="60px" height="60px" viewBox="0 0 60 60" version="1.1" xmlns="http://www.w3.org/2000/svg" xmlns:xlink="http://www.w3.org/1999/xlink">
    <!-- Generator: Sketch 61.1 (89650) - https://sketch.com -->
    <title>dinner-selected</title>
    <desc>Created with Sketch.</desc>
    <g id="0.-Onboarding" stroke="none" stroke-width="1" fill="none" fill-rule="evenodd">
        <g id="onboarding-icons" transform="translate(-96.000000, -649.000000)">
            <g id="dinner-selected" transform="translate(96.000000, 649.000000)">
                <circle id="Oval" fill="#FAF9F7" cx="30" cy="30" r="30"></circle>
                <circle id="Oval-Copy" fill="#334D7E" cx="30" cy="30" r="30"></circle>
                <g id="icon/meal/dinner" transform="translate(12.000000, 12.000000)" fill="#FFFFFF">
                    <path d="M30.928623,19.8080013 C31.2969962,19.8652307 31.5492281,20.2102498 31.4919987,20.578623 C30.5040703,26.9377023 25.9294143,30.15 18.0080357,30.15 C10.0971507,30.15 5.3773495,26.9520706 4.06403154,20.6119149 C3.98841553,20.2468721 4.2230423,19.8896475 4.5880851,19.8140315 C4.95312791,19.7384155 5.31035246,19.9730423 5.38596846,20.3380851 C6.55836479,25.9979294 10.6939208,28.8 18.0080357,28.8 C25.3116572,28.8 29.281644,26.0122977 30.1580013,20.371377 C30.2152307,20.0030038 30.5602498,19.7507719 30.928623,19.8080013 Z M14.3534224,14.5155958 C14.3837446,14.8871528 14.1071192,15.2129403 13.7355622,15.2432625 C11.2014132,15.4500707 9.00409169,15.8380594 7.458457,16.3434671 L7.18506719,16.4366304 C5.99837387,16.8581642 5.4,17.3051204 5.4,17.55 C5.4,17.9306794 6.6063357,18.6074484 8.76899965,19.1206229 C11.1873405,19.6944665 14.4806739,20.025 18,20.025 C21.5193261,20.025 24.8126595,19.6944665 27.2310003,19.1206229 C29.3936643,18.6074484 30.6,17.9306794 30.6,17.55 C30.6,17.3588824 30.1819223,16.9898431 29.278469,16.6142023 C28.232748,16.179409 26.7054448,15.8046693 24.8591975,15.5345776 C24.4903315,15.4806154 24.2350516,15.1378454 24.2890139,14.7689794 C24.3429761,14.4001135 24.6857461,14.1448336 25.054612,14.1987958 C29.3262272,14.8237 31.95,15.9146209 31.95,17.55 C31.95,19.8916699 25.9209194,21.3457159 18.2334565,21.3745627 L17.7665435,21.3745627 L17.3073207,21.3711259 C9.84032899,21.287199 4.05,19.8448365 4.05,17.55 C4.05,15.6203934 7.8856307,14.366179 13.6257557,13.8977356 C13.9973127,13.8674134 14.3231002,14.1440388 14.3534224,14.5155958 Z M12.375,6.3 C12.7477922,6.3 13.05,6.60220779 13.05,6.975 C13.05,7.94991228 13.6917615,9.26488407 15.009519,10.8803307 L15.1435494,11.0428755 C16.812609,13.0457471 17.1677535,14.9990417 16.1038077,16.7722846 C15.9120077,17.0919513 15.497382,17.1956077 15.1777154,17.0038077 C14.8580487,16.8120077 14.7543923,16.397382 14.9461923,16.0777154 C15.6628767,14.8832413 15.4495989,13.5750491 14.2092704,12.0326957 L14.1064506,11.9071245 C12.5147413,9.9970733 11.7,8.36759065 11.7,6.975 C11.7,6.60220779 12.0022078,6.3 12.375,6.3 Z M15.75,6.3 C16.1227922,6.3 16.425,6.60220779 16.425,6.975 C16.425,7.94991228 17.0667615,9.26488407 18.384519,10.8803307 L18.5185494,11.0428755 C20.187609,13.0457471 20.5427535,14.9990417 19.4788077,16.7722846 C19.2870077,17.0919513 18.872382,17.1956077 18.5527154,17.0038077 C18.2330487,16.8120077 18.1293923,16.397382 18.3211923,16.0777154 C19.0378767,14.8832413 18.8245989,13.5750491 17.5842704,12.0326957 L17.4814506,11.9071245 C15.8897413,9.9970733 15.075,8.36759065 15.075,6.975 C15.075,6.60220779 15.3772078,6.3 15.75,6.3 Z M18.9,6.3 C19.2727922,6.3 19.575,6.60220779 19.575,6.975 C19.575,7.94991228 20.2167615,9.26488407 21.534519,10.8803307 L21.6685494,11.0428755 C23.337609,13.0457471 23.6927535,14.9990417 22.6288077,16.7722846 C22.4370077,17.0919513 22.022382,17.1956077 21.7027154,17.0038077 C21.3830487,16.8120077 21.2793923,16.397382 21.4711923,16.0777154 C22.1878767,14.8832413 21.9745989,13.5750491 20.7342704,12.0326957 L20.6314506,11.9071245 C19.0397413,9.9970733 18.225,8.36759065 18.225,6.975 C18.225,6.60220779 18.5272078,6.3 18.9,6.3 Z" id="icon"></path>
                </g>
            </g>
        </g>
    </g>
</svg>