<?xml version="1.0" encoding="UTF-8"?>
<svg width="16px" height="13px" viewBox="0 0 16 13" version="1.1" xmlns="http://www.w3.org/2000/svg" xmlns:xlink="http://www.w3.org/1999/xlink">
    <!-- Generator: Sketch 61.1 (89650) - https://sketch.com -->
    <title>dumbbells</title>
    <desc>Created with Sketch.</desc>
    <g id="0.-Onboarding" stroke="none" stroke-width="1" fill="none" fill-rule="evenodd">
        <g id="onboarding-icons-copy" transform="translate(-19.000000, -11.000000)" fill="#333230">
            <g id="icon/equipment/dumbbells" transform="translate(18.000000, 7.000000)">
                <path d="M6.72668332,4.48237298 C6.96830789,4.06386694 7.5034495,3.92047617 7.92195554,4.16210075 L7.92195554,4.16210075 L10.9530445,5.91210075 C11.3715505,6.15372533 11.5149413,6.68886694 11.2733167,7.10737298 L11.2733167,7.10737298 L10.5233167,8.40641109 C10.2816921,8.82491713 9.7465505,8.96830789 9.32804446,8.72668332 L9.32804446,8.72668332 L9.00330944,8.539 L6.37730944,13.086 L6.70304446,13.2733167 C7.08935773,13.4963548 7.24125324,13.9694902 7.07229163,14.3701268 L7.02331668,14.4685889 L6.27331668,15.767627 C6.03169211,16.1861331 5.4965505,16.3295238 5.07804446,16.0878992 L5.07804446,16.0878992 L2.04695554,14.3378992 C1.6284495,14.0962747 1.48505874,13.5611331 1.72668332,13.142627 L1.72668332,13.142627 L2.47668332,11.8435889 C2.71830789,11.4250829 3.2534495,11.2816921 3.67195554,11.5233167 L3.67195554,11.5233167 L3.99530944,11.71 L6.62130944,7.163 L6.29695554,6.97668332 C5.91064227,6.75364524 5.75874676,6.28050982 5.92770837,5.87987317 L5.97668332,5.78141109 Z M16.125,4 C16.6082492,4 17,4.39175084 17,4.875 L17,4.875 L17,6.375 C17,6.85824916 16.6082492,7.25 16.125,7.25 L16.125,7.25 L15.7493094,7.25 L15.7493094,12.5 L16.125,12.5 C16.5710761,12.5 16.9391892,12.8337995 16.9931825,13.2652419 L17,13.375 L17,14.875 C17,15.3582492 16.6082492,15.75 16.125,15.75 L16.125,15.75 L12.625,15.75 C12.1417508,15.75 11.75,15.3582492 11.75,14.875 L11.75,14.875 L11.75,13.375 C11.75,12.8917508 12.1417508,12.5 12.625,12.5 L12.625,12.5 L12.9993094,12.5 L12.9993094,7.25 L12.625,7.25 C12.1789239,7.25 11.8108108,6.91620046 11.7568175,6.48475814 L11.75,6.375 L11.75,4.875 C11.75,4.39175084 12.1417508,4 12.625,4 L12.625,4 Z M3.29695554,12.1728357 C3.23716897,12.1383179 3.16072016,12.1588023 3.12620237,12.2185889 L3.12620237,12.2185889 L2.37620237,13.517627 C2.34168457,13.5774136 2.36216897,13.6538624 2.42195554,13.6883802 L2.42195554,13.6883802 L5.45304446,15.4383802 C5.51283103,15.472898 5.58927984,15.4524136 5.62379763,15.392627 L5.62379763,15.392627 L6.37379763,14.0935889 C6.40831543,14.0338023 6.38783103,13.9573535 6.32804446,13.9228357 L6.32804446,13.9228357 Z M16.125,13.25 L12.625,13.25 C12.5559644,13.25 12.5,13.3059644 12.5,13.375 L12.5,13.375 L12.5,14.875 C12.5,14.9440356 12.5559644,15 12.625,15 L12.625,15 L16.125,15 C16.1940356,15 16.25,14.9440356 16.25,14.875 L16.25,14.875 L16.25,13.375 C16.25,13.3059644 16.1940356,13.25 16.125,13.25 L16.125,13.25 Z M7.27123412,7.53918332 L4.64623412,12.0858167 L5.72876588,12.7108167 L8.35376588,8.16418332 L7.27123412,7.53918332 Z M15,7.25 L13.75,7.25 L13.75,12.5 L15,12.5 L15,7.25 Z M7.54695554,4.81161981 C7.48716897,4.77710201 7.41072016,4.7975864 7.37620237,4.85737298 L7.37620237,4.85737298 L6.62620237,6.15641109 C6.59168457,6.21619766 6.61216897,6.29264647 6.67195554,6.32716426 L6.67195554,6.32716426 L7.31930944,6.701 L7.3214746,6.70216426 L9.0535254,7.70216426 C9.05426048,7.70258866 9.05499359,7.70301517 9.0557247,7.70344379 L9.70304446,8.07716426 C9.76283103,8.11168206 9.83927984,8.09119766 9.87379763,8.03141109 L9.87379763,8.03141109 L10.6237976,6.73237298 C10.6583154,6.6725864 10.637831,6.5961376 10.5780445,6.56161981 L10.5780445,6.56161981 Z M16.125,4.75 L12.625,4.75 C12.5559644,4.75 12.5,4.80596441 12.5,4.875 L12.5,4.875 L12.5,6.375 C12.5,6.44403559 12.5559644,6.5 12.625,6.5 L12.625,6.5 L16.125,6.5 C16.1940356,6.5 16.25,6.44403559 16.25,6.375 L16.25,6.375 L16.25,4.875 C16.25,4.80596441 16.1940356,4.75 16.125,4.75 L16.125,4.75 Z" id="icon"></path>
            </g>
        </g>
    </g>
</svg>