<?xml version="1.0" encoding="UTF-8"?>
<svg width="19px" height="18px" viewBox="0 0 19 18" version="1.1" xmlns="http://www.w3.org/2000/svg" xmlns:xlink="http://www.w3.org/1999/xlink">
    <!-- Generator: Sketch 61.1 (89650) - https://sketch.com -->
    <title>eggs</title>
    <desc>Created with Sketch.</desc>
    <g id="0.-Onboarding" stroke="none" stroke-width="1" fill="none" fill-rule="evenodd">
        <g id="onboarding-icons-copy" transform="translate(-109.000000, -258.000000)" fill="#333230">
            <g id="icon/food/protein/eggs" transform="translate(108.571429, 257.000000)">
                <path d="M6.25,1 C8.59769671,1 11.0001018,4.52282479 11.4316023,8.03453411 C14.945964,7.94841856 18.596677,9.69216972 18.9901566,11.9237032 C19.4401945,14.4759952 15.6739912,17.8394223 11.9002465,18.5048353 C8.60550507,19.0857871 6.32970684,17.3209261 5.73612961,14.4802951 C2.98891639,14.2704706 1,12.355417 1,9.125 C1,5.29303919 3.65833481,1 6.25,1 Z M11.7378764,8.78085929 L11.4930597,8.78304618 C11.4976629,8.89735353 11.5,9.01137945 11.5,9.125 C11.5,12.4542761 9.38748894,14.38645 6.5085339,14.4951513 C7.07319808,16.8586649 8.96529875,18.2607759 11.7700104,17.7662295 C15.1878363,17.1635746 18.6131363,14.1045928 18.2515508,12.0539393 C17.9477903,10.3312279 14.8349959,8.80261784 11.7378764,8.78085929 Z M6.25,1.75 C4.16771184,1.75 1.75,5.65444863 1.75,9.125 C1.75,12.1137535 3.63253316,13.75 6.25,13.75 C8.86746684,13.75 10.75,12.1137535 10.75,9.125 C10.75,5.65444863 8.33228816,1.75 6.25,1.75 Z" id="icon"></path>
            </g>
        </g>
    </g>
</svg>