<?xml version="1.0" encoding="UTF-8"?>
<svg width="60px" height="60px" viewBox="0 0 60 60" version="1.1" xmlns="http://www.w3.org/2000/svg" xmlns:xlink="http://www.w3.org/1999/xlink">
    <!-- Generator: Sketch 61.1 (89650) - https://sketch.com -->
    <title>endurance-selected</title>
    <desc>Created with Sketch.</desc>
    <g id="0.-Onboarding" stroke="none" stroke-width="1" fill="none" fill-rule="evenodd">
        <g id="onboarding-icons" transform="translate(-96.000000, -476.000000)">
            <g id="endurance-selected" transform="translate(96.000000, 476.000000)">
                <circle id="Oval" fill="#FAF9F7" cx="30" cy="30" r="30"></circle>
                <circle id="Oval-Copy" fill="#334D7E" cx="30" cy="30" r="30"></circle>
                <g id="icon/fitness/goals/endurance" transform="translate(12.000000, 12.000000)" fill="#FFFFFF">
                    <path d="M27.3243265,21.1035194 C27.5929938,21.3619606 27.6012838,21.7892666 27.3428425,22.057934 L27.1176647,22.2890785 C25.663455,23.7648562 22.7767702,26.400035 18.4456303,30.2069898 C18.2045923,30.4188557 17.8477094,30.4317233 17.5920391,30.2377666 C13.6546664,27.2507942 10.5945633,24.5323748 8.40967347,22.0771816 C8.1618457,21.7986939 8.18670052,21.3720308 8.46518827,21.1242031 C8.74367602,20.8763753 9.17033905,20.9012301 9.41816682,21.1797179 C11.4130982,23.4214519 14.1854802,25.9118972 17.7335985,28.6466128 L17.9694,28.82745 L20.1256145,26.9195495 C23.1577874,24.2201147 25.2183726,22.3091922 26.3007116,21.1936598 L26.3699119,21.1220355 C26.6283531,20.8533681 27.0556591,20.8450782 27.3243265,21.1035194 Z M15.9127062,13.2160332 L15.9371044,13.2770135 L18.5175,20.65095 L20.0809777,17.0558599 C20.3155232,16.5164052 21.0693387,16.5200148 21.3098069,17.035 L21.3343606,17.0943234 L22.0725,19.125 L31.5,19.125 C31.8508633,19.125 32.1392019,19.3926996 32.17191,19.734993 L32.175,19.8 C32.175,20.1508633 31.9073004,20.4392019 31.565007,20.47191 L31.5,20.475 L21.6,20.475 C21.3379921,20.475 21.1018226,20.3236971 20.9907452,20.0906115 L20.9656394,20.0306766 L20.64375,19.14615 L19.0690223,22.7691401 C18.8329464,23.3121146 18.072761,23.303885 17.8368923,22.7829734 L17.8128956,22.7229865 L15.327,15.6213 L13.9176193,20.0065562 C13.834302,20.2657654 13.6044441,20.4474994 13.3372686,20.4721389 L13.275,20.475 L4.5,20.475 C4.12720779,20.475 3.825,20.1727922 3.825,19.8 C3.825,19.4491367 4.09269964,19.1607981 4.434993,19.12809 L4.5,19.125 L12.78225,19.125 L14.6573807,13.2934438 C14.8486177,12.6984842 15.6642281,12.6675815 15.9127062,13.2160332 Z M24.3,6.075 C29.0460261,6.075 31.725,8.3886593 31.725,13.95 C31.725,15.3157092 31.2533858,16.7976108 30.3260338,18.3984682 C30.13917,18.7210453 29.7261865,18.8310625 29.4036095,18.6441986 C29.0810325,18.4573348 28.9710153,18.0443513 29.1578792,17.7217743 C29.9745852,16.3119212 30.375,15.0537419 30.375,13.95 C30.375,9.18179524 28.340816,7.425 24.3,7.425 C22.127758,7.425 20.2198065,8.51525799 18.54,10.755 C18.27,11.115 17.73,11.115 17.46,10.755 C15.7801935,8.51525799 13.872242,7.425 11.7,7.425 C7.65918397,7.425 5.625,9.18179524 5.625,13.95 C5.625,14.9679394 5.96552985,16.1173738 6.65982852,17.3968879 C6.83762636,17.7245492 6.71613799,18.1343049 6.38847664,18.3121027 C6.0608153,18.4899006 5.65105967,18.3684122 5.47326183,18.0407508 C4.6788336,16.5767093 4.275,15.2135975 4.275,13.95 C4.275,8.3886593 6.95397393,6.075 11.7,6.075 C14.0357849,6.075 16.1063178,7.10985788 17.8862127,9.13797732 L18,9.26955 L18.1137873,9.13797732 C19.8491848,7.16056087 21.8608701,6.12736368 24.1253139,6.07693971 L24.3,6.075 Z" id="icon"></path>
                </g>
            </g>
        </g>
    </g>
</svg>