<?xml version="1.0" encoding="UTF-8"?>
<svg width="19px" height="15px" viewBox="0 0 19 15" version="1.1" xmlns="http://www.w3.org/2000/svg" xmlns:xlink="http://www.w3.org/1999/xlink">
    <!-- Generator: Sketch 61.1 (89650) - https://sketch.com -->
    <title>fish copy</title>
    <desc>Created with Sketch.</desc>
    <g id="0.-Onboarding" stroke="none" stroke-width="1" fill="none" fill-rule="evenodd">
        <g id="onboarding-icons-copy" transform="translate(-154.000000, -299.000000)" fill="#FFFFFF">
            <g id="icon/food/protein/fish" transform="translate(153.857143, 297.000000)">
                <path d="M11.7566713,2.52387656 C13.1663926,3.05252206 14.0732642,4.10467502 14.4559175,5.64422741 C16.0895273,6.32173607 17.6020499,7.64648802 18.9378757,9.66827853 C19.0134739,9.78269734 19.0205855,9.92925726 18.9564205,10.0504579 C17.8664952,12.1092056 16.1177399,13.3082763 13.985279,13.7250513 C13.9842088,13.733052 13.9815721,13.7414471 13.9786214,13.7498075 C13.4403336,15.2749562 12.6039124,16.204313 11.4659509,16.4888034 C10.9386551,16.6206274 10.5374194,16.6875 10.25,16.6875 C9.81946601,16.6875 9.5,16.527767 9.5,16.125 C9.5,16.0772927 9.5091032,16.0300236 9.52682124,15.9857285 C9.67444604,15.6166665 9.75,15.1633427 9.75,14.625 C9.75,14.4178932 9.91789322,14.25 10.125,14.25 C10.3321068,14.25 10.5,14.4178932 10.5,14.625 C10.5,15.0857709 10.4510016,15.5026334 10.3516312,15.8752891 L10.33475,15.93475 C10.5363061,15.92294 10.8254268,15.8725768 11.1968725,15.7826513 L11.2840491,15.7611966 C12.0664634,15.565593 12.6853873,14.9401319 13.1382732,13.8481198 C12.3986653,13.919299 11.6210229,13.9057166 10.8150924,13.8098762 C7.98452021,13.4732676 5.14336578,12.0759786 4.53569299,10.7846739 C4.44750753,10.5972798 4.52793202,10.3738784 4.71532611,10.285693 C4.9027202,10.1975075 5.12612156,10.277932 5.21430701,10.4653261 C5.68662167,11.4689948 8.30331695,12.7558941 10.9036576,13.0651238 C14.053872,13.4397439 16.6702775,12.4744241 18.135541,9.98269221 L18.18625,9.8945 L18.1515388,9.84343426 C16.1619015,6.94941578 13.8374665,5.71271441 11.3181405,5.86691056 L11.2158992,5.8739231 C9.09306773,6.03515081 6.90317252,7.19778608 5.13469944,8.89552025 C4.98285474,9.04129116 4.74080036,9.03356019 4.5985672,8.87839674 L4.47507543,8.7403061 C4.16583856,8.39031183 3.52762133,7.65109473 3.36213727,7.48844754 C3.05692453,7.18846702 2.76177199,7.00253434 2.33649199,6.88865532 L2.23725,6.864 L2.24346662,6.87208547 C2.3138612,6.96521535 2.37290869,7.0473624 2.42696047,7.12784607 L2.45884287,7.17601121 C2.8557983,7.78457119 3,8.38581218 3,9.5 C3,10.5166964 2.70645332,11.501125 2.12479435,12.4485845 L2.0515,12.565 L2.09975021,12.5611131 C2.68014559,12.5024633 3.23132056,12.1464167 3.77008767,11.4700528 L3.827766,11.3963585 C3.95404124,11.2322007 4.18948373,11.2014908 4.35364154,11.327766 C4.51779934,11.4540412 4.54850923,11.6894837 4.422234,11.8536415 C3.50478836,13.0463209 2.44358304,13.5286869 1.28404914,13.2388034 C1.02195711,13.1732804 0.913047594,12.8604924 1.077766,12.6463585 C1.86264758,11.6260124 2.25,10.5801609 2.25,9.5 C2.25,8.55419911 2.14682189,8.0913899 1.86189428,7.63469191 L1.83066727,7.58576164 C1.76874497,7.49083051 1.69779539,7.39237226 1.60214199,7.26793313 L1.07899292,6.60522773 C0.880687295,6.35026336 1.07601631,5.98058181 1.39839186,6.00073028 C2.61374713,6.07668999 3.25427075,6.33082206 3.88786273,6.95355246 L3.93364143,7.00014135 C4.00295331,7.07243636 4.10389386,7.1836689 4.21887401,7.31261871 L4.9005,8.08825 L4.93955654,8.05286279 C6.72799055,6.44128592 8.88494424,5.33696264 11.027919,5.13717521 L11.1591008,5.1260769 C11.9881083,5.0631143 12.7978897,5.13495673 13.5828845,5.34674215 C13.2080731,4.30840372 12.5161283,3.6096733 11.4933287,3.22612344 C10.4645793,2.84034243 9.28129529,2.97678811 7.93132161,3.65613125 L7.80675,3.72 L7.84380491,3.74687105 C8.31383365,4.10132996 8.50444771,4.62092464 8.37918014,5.26830186 L8.36607015,5.33134892 C8.32114238,5.53352388 8.12082604,5.66099792 7.91865108,5.61607015 C7.71647612,5.57114238 7.58900208,5.37082604 7.63392985,5.16865108 C7.755785,4.62030292 7.54573839,4.30523301 6.89224454,4.10918486 C6.58259578,4.01629023 6.52774092,3.60131196 6.80261702,3.43115057 C8.64321238,2.2917344 10.3011756,1.97806568 11.7566713,2.52387656 Z M15,8.5 C15.4142136,8.5 15.75,8.83578644 15.75,9.25 C15.75,9.66421356 15.4142136,10 15,10 C14.5857864,10 14.25,9.66421356 14.25,9.25 C14.25,8.83578644 14.5857864,8.5 15,8.5 Z" id="icon"></path>
            </g>
        </g>
    </g>
</svg>