<?xml version="1.0" encoding="UTF-8"?>
<svg width="60px" height="60px" viewBox="0 0 60 60" version="1.1" xmlns="http://www.w3.org/2000/svg" xmlns:xlink="http://www.w3.org/1999/xlink">
    <!-- Generator: Sketch 61.1 (89650) - https://sketch.com -->
    <title>flexibility-selected</title>
    <desc>Created with Sketch.</desc>
    <g id="0.-Onboarding" stroke="none" stroke-width="1" fill="none" fill-rule="evenodd">
        <g id="onboarding-icons" transform="translate(-266.000000, -476.000000)">
            <g id="flexibility-selected" transform="translate(266.000000, 476.000000)">
                <circle id="Oval" fill="#FAF9F7" cx="30" cy="30" r="30"></circle>
                <circle id="Oval-Copy" fill="#334D7E" cx="30" cy="30" r="30"></circle>
                <g id="icon/fitness/goals/flexibility" transform="translate(12.000000, 12.000000)" fill="#FFFFFF">
                    <path d="M27.45,11.25 C29.189697,11.25 30.6,12.660303 30.6,14.4 C30.6,16.0272166 29.3661683,17.3662563 27.7830182,17.5326057 C28.7873026,19.2801629 29.6362525,21.6170796 30.3492991,24.5364558 C30.4672363,25.0193178 30.1714063,25.5063618 29.6885442,25.6242991 C29.2056822,25.7422363 28.7186382,25.4464063 28.6007009,24.9635442 L28.4738861,24.4566483 C27.1714894,19.3744784 25.4707569,16.4656276 23.5164877,15.6859243 C23.0688165,15.5073151 21.1838997,15.4628224 18.3845205,15.5523193 L17.3440882,15.5892071 L14.0397515,15.7261676 C13.7991589,15.7349075 13.5960036,15.7412036 13.4231475,15.7451216 L13.05,15.75 C9.20660809,15.75 7.70616682,18.500809 8.54174715,24.6283981 C8.61236579,25.1462682 8.22953414,25.609796 7.71749395,25.6475242 L7.65,25.65 L4.95,25.65 C4.45294373,25.65 4.05,25.2470563 4.05,24.75 C4.05,24.2755372 4.41714501,23.8868257 4.88283194,23.8524686 L4.95,23.85 L6.6375,23.85 L6.63656887,23.8349926 C6.01801207,17.4913801 8.10648045,14.0234601 12.8962189,13.9511541 L13.3152621,13.9470045 C13.4421419,13.9444995 13.5903156,13.9404122 13.7629772,13.9347014 L17.2759686,13.7904957 C17.4242059,13.7847868 17.5681455,13.7794062 17.709057,13.7743158 L18.7546088,13.7402216 C21.690245,13.6556124 23.4200406,13.70947 24.1835123,14.0140757 L24.3169786,14.070962 C24.4815,12.4859002 25.82142,11.25 27.45,11.25 Z M27.45,13.05 C26.7044156,13.05 26.1,13.6544156 26.1,14.4 C26.1,15.1455844 26.7044156,15.75 27.45,15.75 C28.1955844,15.75 28.8,15.1455844 28.8,14.4 C28.8,13.6544156 28.1955844,13.05 27.45,13.05 Z" id="Shape"></path>
                </g>
            </g>
        </g>
    </g>
</svg>