<?xml version="1.0" encoding="UTF-8"?>
<svg width="17px" height="18px" viewBox="0 0 17 18" version="1.1" xmlns="http://www.w3.org/2000/svg" xmlns:xlink="http://www.w3.org/1999/xlink">
    <!-- Generator: Sketch 61.1 (89650) - https://sketch.com -->
    <title>foam roller</title>
    <desc>Created with Sketch.</desc>
    <g id="0.-Onboarding" stroke="none" stroke-width="1" fill="none" fill-rule="evenodd">
        <g id="onboarding-icons-copy" transform="translate(-83.000000, -8.000000)" fill="#333230">
            <g id="icon/equipment/foam-roller" transform="translate(81.400000, 7.000000)">
                <path d="M14.75,1.625 C16.7520322,1.625 18.375,3.24796778 18.375,5.25 C18.375,6.19976547 18.0076597,7.09268558 17.3621951,7.76338196 L17.3396925,7.78407188 C17.3312991,7.8019664 17.3213952,7.81937358 17.3099651,7.83611224 L17.2867354,7.86667702 L9.91173545,16.616677 C9.89343652,16.6383876 9.8731997,16.6575009 9.85149223,16.6739771 C9.00457921,17.6403489 7.76098543,18.25 6.375,18.25 C3.82068303,18.25 1.75,16.179317 1.75,13.625 C1.75,12.1184706 2.47030968,10.7801786 3.58531824,9.93573472 L12.1329525,2.71357718 C12.1597048,2.69096968 12.1886998,2.67275374 12.2190604,2.6588557 C12.2244709,2.65023798 12.2327138,2.64153987 12.2414503,2.63316296 C12.9116705,1.99052547 13.802573,1.625 14.75,1.625 Z M6.375,9.75 C5.51086285,9.75 4.71279088,10.0328586 4.06832156,10.5110384 L3.74204745,10.7864228 L3.7250018,10.7977695 C2.97103924,11.5047519 2.5,12.5098674 2.5,13.625 C2.5,15.7651034 4.23489659,17.5 6.375,17.5 C8.51510341,17.5 10.25,15.7651034 10.25,13.625 C10.25,11.4848966 8.51510341,9.75 6.375,9.75 Z M12.7605238,3.17451563 C12.7307381,3.2030755 12.697463,3.22574686 12.6621378,3.24255997 C12.6568071,3.24762948 12.6510708,3.25399558 12.6450829,3.2601961 L12.6170475,3.28642282 L5.81498418,9.03356037 C5.99856044,9.01140298 6.18544857,9 6.375,9 C6.659166,9 6.93734634,9.02562762 7.20735588,9.0746977 L7.81579303,8.51338625 C7.917309,8.41980121 8.07546962,8.42623051 8.16905466,8.52774648 C8.2626397,8.62926246 8.25621041,8.78742308 8.15469443,8.88100812 L8.15469443,8.88100812 L7.78659932,9.21937572 C8.44270612,9.42942573 9.03506413,9.78197725 9.52725924,10.2406161 L10.1332594,9.60324342 C10.2284406,9.50322248 10.3866833,9.49929911 10.4867042,9.59448033 C10.5867251,9.68966155 10.5906485,9.84790416 10.4954673,9.94792511 L10.4954673,9.94792511 L9.87414559,10.6005501 C10.336384,11.134866 10.6782952,11.7761502 10.8577516,12.4822754 L11.0973234,12.2088064 C11.1884662,12.1050922 11.346429,12.0949011 11.4501433,12.1860439 C11.5538575,12.2771867 11.5640486,12.4351495 11.4729058,12.5388638 L11.4729058,12.5388638 L10.9716348,13.1098648 C10.9903773,13.2789939 11,13.4508732 11,13.625 C11,13.8220924 10.9876717,14.0163053 10.9637441,14.2069097 L16.7132646,7.38332298 L16.7540517,7.34057668 C16.7708799,7.30565398 16.7934529,7.27276688 16.8217975,7.24331425 C17.2634258,6.78442239 17.5405285,6.19563185 17.6085754,5.55897585 L17.4139373,5.77837967 C17.3227945,5.8820939 17.1648317,5.89228505 17.0611174,5.80114224 C16.9574032,5.70999943 16.947212,5.55203659 17.0383549,5.44832236 L17.0383549,5.44832236 L17.5927661,4.81804838 C17.5036559,4.22664508 17.2343951,3.6942679 16.8426595,3.27859262 L16.6997375,3.42818349 C16.6045563,3.52820443 16.4463137,3.5321278 16.3462928,3.43694658 C16.2462718,3.34176537 16.2423485,3.18352275 16.3375297,3.08350181 L16.3375297,3.08350181 L16.4689031,2.94522243 C16.0973728,2.66768618 15.6564868,2.47787423 15.1769421,2.40648358 L14.771888,2.78078279 C14.670372,2.87436782 14.5122114,2.86793853 14.4186264,2.76642256 C14.3250413,2.66490658 14.3314706,2.50674596 14.4329866,2.41316092 L14.4329866,2.41316092 L14.4547769,2.38998762 C13.8146616,2.455305 13.2222139,2.73182623 12.7605238,3.17451563 Z M12.4175526,10.7064767 C12.5086954,10.6027624 12.6666582,10.5925713 12.7703725,10.6837141 C12.8740867,10.7748569 12.8842779,10.9328197 12.793135,11.036534 L12.793135,11.036534 L12.1330204,11.7876989 C12.0418776,11.8914131 11.8839148,11.9016042 11.7802006,11.8104614 C11.6764863,11.7193186 11.6662952,11.5613558 11.757438,11.4576416 L11.757438,11.4576416 Z M13.7377818,9.20414686 C13.8289246,9.10043263 13.9868875,9.09024148 14.0906017,9.18138428 C14.1943159,9.27252709 14.2045071,9.43048993 14.1133643,9.53420416 L14.1133643,9.53420416 L13.4532497,10.2853691 C13.3621068,10.3890833 13.204144,10.3992744 13.1004298,10.3081316 C12.9967155,10.2169888 12.9865244,10.059026 13.0776672,9.95531175 L13.0776672,9.95531175 Z M11.5119861,8.15441196 C11.6071674,8.05439101 11.76541,8.05046764 11.8654309,8.14564886 C11.9654519,8.24083008 11.9693752,8.39907269 11.874194,8.49909364 L11.874194,8.49909364 L11.1848307,9.22350937 C11.0896494,9.32353031 10.9314068,9.32745368 10.8313859,9.23227246 C10.7313649,9.13709125 10.7274416,8.97884863 10.8226228,8.87882769 L10.8226228,8.87882769 Z M15.058011,7.70181706 C15.1491538,7.59810283 15.3071167,7.58791168 15.4108309,7.67905449 C15.5145451,7.77019729 15.5247363,7.92816013 15.4335935,8.03187436 L15.4335935,8.03187436 L14.7734789,8.78303926 C14.6823361,8.88675349 14.5243732,8.89694464 14.420659,8.80580183 C14.3169448,8.71465903 14.3067536,8.55669619 14.3978964,8.45298196 L14.3978964,8.45298196 Z M9.28628049,7.15778062 C9.38779647,7.06419558 9.54595709,7.07062488 9.63954213,7.17214085 C9.73312717,7.27365683 9.72669787,7.43181745 9.6251819,7.52540249 L9.6251819,7.52540249 L8.88993817,8.2032053 C8.78842219,8.29679034 8.63026157,8.29036105 8.53667653,8.18884507 C8.44309149,8.0873291 8.44952078,7.92916848 8.55103676,7.83558344 L8.55103676,7.83558344 Z M12.8907129,6.70558049 C12.9858941,6.60555954 13.1441367,6.60163617 13.2441576,6.69681739 C13.3441786,6.79199861 13.348102,6.95024122 13.2529207,7.05026217 L13.2529207,7.05026217 L12.5635574,7.7746779 C12.4683762,7.87469884 12.3101335,7.87862221 12.2101126,7.78344099 C12.1100917,7.68825978 12.1061683,7.53001716 12.2013495,7.42999622 L12.2013495,7.42999622 Z M16.3782402,6.19948726 C16.4693831,6.09577303 16.6273459,6.08558188 16.7310601,6.17672469 C16.8347744,6.2678675 16.8449655,6.42583034 16.7538227,6.52954457 L16.7538227,6.52954457 L16.0937081,7.28070946 C16.0025653,7.38442369 15.8446024,7.39461484 15.7408882,7.30347204 C15.637174,7.21232923 15.6269828,7.05436639 15.7181256,6.95065216 L15.7181256,6.95065216 Z M10.756768,5.80217499 C10.8582839,5.70858995 11.0164445,5.71501925 11.1100296,5.81653522 C11.2036146,5.9180512 11.1971853,6.07621182 11.0956694,6.16979686 L11.0956694,6.16979686 L10.3604256,6.84759967 C10.2589097,6.94118471 10.100749,6.93475542 10.007164,6.83323944 C9.91357895,6.73172347 9.92000825,6.57356285 10.0215242,6.47997781 L10.0215242,6.47997781 Z M14.2694396,5.25674902 C14.3646208,5.15672807 14.5228634,5.1528047 14.6228844,5.24798592 C14.7229053,5.34316714 14.7268287,5.50140976 14.6316475,5.6014307 L14.6316475,5.6014307 L13.9422841,6.32584643 C13.8471029,6.42586737 13.6888603,6.42979074 13.5888393,6.33460952 C13.4888184,6.23942831 13.484895,6.08118569 13.5800762,5.98116475 L13.5800762,5.98116475 Z M12.2272554,4.44656936 C12.3287714,4.35298432 12.486932,4.35941362 12.5805171,4.46092959 C12.6741021,4.56244557 12.6676728,4.72060619 12.5661568,4.81419123 L12.5661568,4.81419123 L11.8309131,5.49199404 C11.7293971,5.58557908 11.5712365,5.57914979 11.4776515,5.47763382 C11.3840664,5.37611784 11.3904957,5.21795722 11.4920117,5.12437218 L11.4920117,5.12437218 Z M15.6481663,3.80791755 C15.7433475,3.7078966 15.9015901,3.70397323 16.0016111,3.79915445 C16.101632,3.89433567 16.1055554,4.05257829 16.0103742,4.15259923 L16.0103742,4.15259923 L15.3210108,4.87701496 C15.2258296,4.9770359 15.067587,4.98095927 14.967566,4.88577805 C14.8675451,4.79059684 14.8636217,4.63235422 14.958803,4.53233328 L14.958803,4.53233328 Z M13.6977429,3.09096373 C13.7992589,2.9973787 13.9574195,3.00380799 14.0510045,3.10532396 C14.1445896,3.20683994 14.1381603,3.36500056 14.0366443,3.4585856 L14.0366443,3.4585856 L13.3014006,4.13638841 C13.1998846,4.22997345 13.041724,4.22354416 12.9481389,4.12202819 C12.8545539,4.02051221 12.8609832,3.86235159 12.9624991,3.76876655 L12.9624991,3.76876655 Z" id="icon"></path>
            </g>
        </g>
    </g>
</svg>