<?xml version="1.0" encoding="UTF-8"?>
<svg width="17px" height="18px" viewBox="0 0 17 18" version="1.1" xmlns="http://www.w3.org/2000/svg" xmlns:xlink="http://www.w3.org/1999/xlink">
    <!-- Generator: Sketch 61.1 (89650) - https://sketch.com -->
    <title>garlic</title>
    <desc>Created with Sketch.</desc>
    <g id="0.-Onboarding" stroke="none" stroke-width="1" fill="none" fill-rule="evenodd">
        <g id="onboarding-icons-copy" transform="translate(-25.000000, -498.000000)" fill="#333230">
            <g id="icon/food/veg/garlic" transform="translate(23.000000, 497.000000)">
                <path d="M11.8270429,9.27633576 C14.6233809,12.6319413 14.3494619,17.618016 10.8439156,18.1373562 C7.23784044,18.6715896 5.53512619,14.9900452 7.19428051,11.1186852 C7.27586386,10.928324 7.49631846,10.8401422 7.68667963,10.9217255 C7.8770408,11.0033089 7.96522264,11.2237635 7.88363928,11.4141246 C6.42555913,14.8163117 7.81819893,17.8274248 10.7340041,17.3954536 C13.4994311,16.9857607 13.732956,12.7349689 11.2508769,9.75647406 C11.1182904,9.59737022 11.1397869,9.36090846 11.2988907,9.22832193 C11.4579946,9.0957354 11.6944563,9.11723192 11.8270429,9.27633576 Z M9.03772257,1.78743496 C9.13506927,1.8282454 9.19826982,1.88484985 9.2727242,1.97642948 L9.3054546,2.01787516 C9.3390211,2.06142142 9.45416017,2.22235655 9.45672745,2.22585966 C9.48603984,2.26585706 9.51167685,2.29905841 9.53438093,2.3263139 L9.55795989,2.35340491 L9.62596053,2.2436553 C9.7594264,2.0301099 9.88742018,1.90736705 10.116718,1.89285836 L10.1639599,1.89140491 C10.4049768,1.89140491 10.5629683,2.00128128 10.7621855,2.22075759 L10.7987099,2.26190491 L10.8839623,2.17337051 L10.9741691,2.08223482 C11.0720962,1.98592481 11.1470174,1.92298334 11.2261627,1.87573066 C11.5399868,1.688366 11.9139599,1.85766301 11.9139599,2.26640491 L11.9118841,2.31100884 C11.9019186,2.46784767 11.8592378,2.93331244 11.8536665,3.00222188 C11.7929061,3.75374972 11.7750904,4.4343823 11.8217148,5.08462648 C11.9082048,6.29085227 12.2112063,7.12439293 12.7354964,7.44703304 L12.9396086,7.56943853 C13.4048892,7.84531906 14.3744849,8.40949054 14.6719496,8.59105483 L14.9126023,8.73979136 C16.4859777,9.72497712 17.4415791,10.5872115 17.8836393,11.6186852 C18.6901516,13.5005473 18.0524868,15.8386516 16.4902882,16.832778 C15.496121,17.4654298 14.5654323,17.698102 13.707611,17.5074751 C13.505436,17.4625473 13.377962,17.2622309 13.4228897,17.060056 C13.4678175,16.857881 13.6681339,16.730407 13.8703088,16.7753348 C14.5124875,16.9180411 15.2484655,16.7340467 16.0876316,16.2000318 C17.3304329,15.4091583 17.8599904,13.4674477 17.1942805,11.9141246 C16.820171,11.0412024 15.9185972,10.2430924 14.3992957,9.30376466 L14.1557461,9.1556818 C13.6921635,8.8789243 12.5973461,8.24265228 12.3424234,8.08577677 C11.5519773,7.59934845 11.1759258,6.56485096 11.0736354,5.13826598 C11.0279658,4.50133732 11.0398955,3.84709754 11.0911623,3.13689137 L11.1002099,3.01490491 L11.0632752,3.04383263 C10.9798685,3.10469414 10.9044462,3.14140491 10.7889599,3.14140491 C10.6343968,3.14140491 10.5420778,3.08592398 10.4354681,2.98077375 L10.390386,2.93421578 L10.2379599,2.75965491 L10.2084599,2.72690491 L10.1860732,2.7620385 C10.0337404,2.99020153 9.86415432,3.12398638 9.59429362,3.13981823 L9.53895989,3.14140491 C9.40384575,3.14140491 9.29542282,3.10738074 9.19416116,3.03815597 L9.18620989,3.03240491 L9.21264175,3.45850921 C9.25378271,4.13047829 9.27054244,4.61521086 9.2597219,5.11346854 C9.22801181,6.57363471 8.95248016,7.58468656 8.25400827,8.07361688 L8.19250487,8.11342184 C7.79985973,8.35717845 6.11319883,9.29318121 5.54186974,9.65919372 C3.36361413,11.0546571 2.37867024,12.4069445 2.89332967,13.8937384 C3.59205242,15.9122708 4.78263392,16.8424126 6.52267093,16.7667588 C6.72958224,16.7577627 6.90460981,16.9182046 6.91360595,17.1251159 C6.9226021,17.3320273 6.76216016,17.5070548 6.55524885,17.516051 C4.46195253,17.6070638 2.98586737,16.4538723 2.18459011,14.1390714 C1.52592241,12.2362535 2.66515905,10.6346999 5.04032932,9.09025386 L5.13729572,9.02767186 C5.78045338,8.61564356 7.6448369,7.58454516 7.82391151,7.45919294 C8.25839489,7.15505457 8.48311617,6.33044922 8.50989869,5.0971848 C8.51879832,4.68738015 8.5078554,4.28192354 8.47875668,3.75605472 L8.42999508,2.95227309 L8.42019556,2.76034908 C8.41685739,2.683769 8.41486947,2.61791365 8.41420782,2.55917802 L8.41395989,2.51640491 C8.41395989,2.32548061 8.42575087,2.19074868 8.45746326,2.0857021 C8.53113294,1.84167293 8.75999004,1.67100178 9.03772257,1.78743496 Z" id="Shape"></path>
            </g>
        </g>
    </g>
</svg>