<?xml version="1.0" encoding="UTF-8"?>
<svg width="19px" height="19px" viewBox="0 0 19 19" version="1.1" xmlns="http://www.w3.org/2000/svg" xmlns:xlink="http://www.w3.org/1999/xlink">
    <!-- Generator: Sketch 61.1 (89650) - https://sketch.com -->
    <title>gluten free copy</title>
    <desc>Created with Sketch.</desc>
    <g id="0.-Onboarding" stroke="none" stroke-width="1" fill="none" fill-rule="evenodd">
        <g id="onboarding-icons-copy" transform="translate(-82.000000, -217.000000)" fill="#FFFFFF">
            <g id="icon/diet/gluten-free" transform="translate(81.400000, 217.000000)">
                <path d="M1.61168444,1.08409239 L1.64016504,1.10983496 L18.890165,18.359835 C19.0366117,18.5062816 19.0366117,18.7437184 18.890165,18.890165 C18.7528713,19.0274587 18.5356057,19.0360396 18.3883156,18.9159076 L18.359835,18.890165 L1.10983496,1.64016504 C0.963388348,1.49371843 0.963388348,1.25628157 1.10983496,1.10983496 C1.24712865,0.972541261 1.46439426,0.963960405 1.61168444,1.08409239 Z M7.45680338,8.28467981 C7.64829102,8.36358293 7.73955881,8.58277795 7.66065569,8.77426559 C7.45436824,9.27489849 7.51453552,9.76921764 7.78074314,10.219251 C7.89057188,10.4049203 8.03096229,10.5721144 8.17928944,10.7012806 C8.29917832,10.8056823 8.41142793,10.8725658 8.46595086,10.8861966 L8.56,10.9085426 L8.84933642,10.619226 C8.85200092,10.6165349 8.85468249,10.6138401 8.85738123,10.6111413 L8.87396288,10.5962874 C8.8834319,10.5877632 8.89329385,10.579765 8.90350078,10.5723088 L8.85738123,10.6111413 C8.88053374,10.5879888 8.90596048,10.5684966 8.93294234,10.5526647 C8.93567543,10.5512381 8.9381493,10.5498072 8.94063811,10.5484053 L8.99153954,10.5248371 C8.99498421,10.5235555 8.99844394,10.5223263 9.0019175,10.5211494 C9.00372734,10.5200617 9.00405529,10.5199501 9.00438337,10.5198389 C9.02869965,10.5116654 9.05389518,10.5058818 9.0795186,10.5027273 C9.09073234,10.5013992 9.10166637,10.5005629 9.11261315,10.5002034 C9.12666126,10.4996553 9.14080877,10.4999698 9.15496356,10.5010993 C9.16910941,10.5022896 9.18394946,10.5043329 9.1986479,10.5072626 C9.20957579,10.5094094 9.22023981,10.5120482 9.23083927,10.5151794 C9.24550092,10.5194675 9.26001585,10.5247037 9.2742273,10.5308614 C9.28026738,10.533581 9.28650863,10.5364916 9.2927051,10.5395898 L9.30501905,10.5459234 C9.31668214,10.5523104 9.32807757,10.5593636 9.33914951,10.567083 L9.2927051,10.5395898 C9.32400756,10.555241 9.35216448,10.5746795 9.37689821,10.5970722 C9.38084486,10.6007506 9.38555013,10.60522 9.39016504,10.609835 L9.39831988,10.6180998 C9.40905308,10.6295215 9.41899846,10.6415504 9.42812646,10.6540978 L9.39016504,10.609835 C9.41309337,10.6327633 9.43243193,10.657922 9.44818074,10.6846127 C9.45109194,10.6896474 9.45406378,10.6949882 9.45690187,10.7003939 C9.46547717,10.7165104 9.47278272,10.7333063 9.47880494,10.7504524 C9.48172598,10.7590645 9.48422271,10.7670449 9.48645232,10.7751021 C9.49060779,10.7898139 9.4939182,10.8056459 9.49620045,10.8215968 C9.50670857,10.8952845 9.49580464,10.9719162 9.4604102,11.0427051 L9.39402959,11.1743662 C9.31701706,11.3250205 9.28081434,11.3846916 9.22338136,11.4564829 L9.21499922,11.4652659 C9.21261328,11.4893212 9.21096301,11.5155646 9.20969017,11.5447082 L9.22349548,11.5716257 C9.23544872,11.5934073 9.25573842,11.6270307 9.28655902,11.6673757 C9.36720748,11.7729465 9.49124347,11.8863975 9.64365515,11.9889832 C10.0089272,12.2348414 10.470538,12.3805748 10.9443239,12.3709293 C11.1513878,12.3667138 11.3226635,12.5311549 11.326879,12.7382188 C11.3310945,12.9452827 11.1666534,13.1165585 10.9595895,13.1207739 C10.9019991,13.1219464 10.8443285,13.1212213 10.7867111,13.1186958 C10.9612782,13.3185064 11.1180772,13.5543822 11.2524465,13.8252532 L11.2524465,13.8252532 L11.3857139,14.0939028 L11.1529395,14.2829764 C10.3627254,14.9248366 9.49450203,15.1531866 8.6640873,15.0278976 C8.78919393,15.1901176 8.90207757,15.3729225 9.00244652,15.5752532 L9.00244652,15.5752532 L9.13571389,15.8439028 L8.90293945,16.0329764 C7.93856748,16.8162984 6.85801141,16.9837547 5.87178282,16.6441678 C5.37843673,16.4742945 4.94068482,16.1795714 4.67572178,15.8547653 L1.89016504,18.640165 C1.74371843,18.7866117 1.50628157,18.7866117 1.35983496,18.640165 C1.22254126,18.5028713 1.2139604,18.2856057 1.33409239,18.1383156 L1.35983496,18.109835 L4.18709561,15.2826064 C3.75919044,15.0289624 3.3622287,14.4436001 3.18309665,13.7941074 C2.88141944,12.7002936 3.21195417,11.6082802 4.27755036,10.8231041 L4.27755036,10.8231041 L4.5189769,10.6452108 L4.74559895,10.8416166 C4.79039034,10.8804358 4.83384724,10.9197588 4.87597734,10.9595611 C4.85602727,10.1157996 5.23973136,9.31289361 6.0740886,8.69810406 L6.0740886,8.69810406 L6.31551514,8.52021082 L6.54213719,8.71661659 C6.64482752,8.80561487 6.74050359,8.8972613 6.82925781,8.99125988 C6.85261701,8.82327889 6.89883354,8.65449139 6.9672176,8.48853212 C7.04612072,8.29704448 7.26531574,8.20577669 7.45680338,8.28467981 Z M6.50093037,14.7183411 L6.33745835,14.7281654 C6.0779643,14.7527817 5.82353467,14.8224243 5.60782002,14.9212054 L5.20055751,15.3274363 C5.3128529,15.4883225 5.64602835,15.7587912 6.0584474,15.9142851 L6.0584474,15.9142851 L6.11595971,15.9350291 C6.76946225,16.1600489 7.47043043,16.092205 8.14353224,15.6590419 L8.14353224,15.6590419 L8.17707814,15.6367756 L8.12856855,15.5636896 C7.6832024,14.9194026 7.0525281,14.6603319 6.33745835,14.7281654 Z M4.48125,11.62525 L4.41790976,11.6857139 C3.86074793,12.2361932 3.71512854,12.9022733 3.90610205,13.5947003 C3.99519112,13.9177173 4.15610302,14.2195719 4.34318674,14.4357267 C4.4230552,14.528006 4.5019524,14.5973962 4.5686776,14.6376686 C4.59539159,14.653792 4.61122287,14.6607584 4.6115,14.6655 L4.6115,14.6655 C4.74496514,14.6181818 5.02497485,14.1825356 5.12265163,13.663505 L5.12265163,13.663505 L5.13309362,13.6032642 C5.24121531,12.9206156 5.05268029,12.2420777 4.50921504,11.6544197 L4.50921504,11.6544197 L4.48125,11.62525 Z M8.75093037,12.9683411 L8.58745835,12.9781654 C8.25387856,13.0098097 7.92866777,13.1158605 7.6833101,13.2625671 C7.57856374,13.325198 7.49652733,13.3908471 7.44528009,13.4495654 C7.42476283,13.4730737 7.41515318,13.4874548 7.41039869,13.4871129 L7.41039869,13.4871129 C7.43385885,13.6265586 7.81426336,13.9779635 8.3084474,14.1642851 L8.3084474,14.1642851 L8.36595971,14.1850291 C9.01946225,14.4100489 9.72043043,14.342205 10.3935322,13.9090419 L10.3935322,13.9090419 L10.4270781,13.8867756 L10.3785685,13.8136896 C9.9332024,13.1694026 9.3025281,12.9103319 8.58745835,12.9781654 Z M6.278,9.50025 L6.214448,9.56071386 C5.65728617,10.1111932 5.51166678,10.7772733 5.70264029,11.4697003 C5.79172936,11.7927173 5.95264127,12.0945719 6.13972498,12.3107267 C6.21959344,12.403006 6.29849064,12.4723962 6.36521584,12.5126686 C6.39192983,12.528792 6.40776111,12.5357584 6.40825,12.5405 L6.40825,12.5405 C6.54150338,12.4931818 6.82151309,12.0575356 6.91918987,11.538505 L6.91918987,11.538505 L6.92963186,11.4782642 C7.03775355,10.7956156 6.84921853,10.1170777 6.30575328,9.52941974 L6.30575328,9.52941974 L6.278,9.50025 Z M15.3237508,2.26822149 C15.883876,1.28146029 16.8897694,0.743013585 18.1984631,0.941300505 L18.1984631,0.941300505 L18.494967,0.986225333 L18.5163331,1.28535118 C18.6048518,2.52461346 18.1222425,3.50580218 17.2783917,4.11889428 L17.3438232,4.06725666 C17.9934347,4.23803652 18.5745178,4.66991244 19.0088264,5.3818613 L19.0088264,5.3818613 L19.165001,5.63787356 L18.9495912,5.84651536 C18.0571599,6.71090708 16.9953105,6.97190286 15.9832379,6.71956364 L16.1571956,6.75668326 C16.4899064,7.01666863 16.7775835,7.37195881 17.0024465,7.8252532 L17.0024465,7.8252532 L17.1357139,8.09390277 L16.9029395,8.28297642 C16.2911032,8.77994728 15.6325012,9.02902345 14.980892,9.05799503 C15.1790449,9.27073285 15.354366,9.52674226 15.5024465,9.8252532 L15.5024465,9.8252532 L15.6357139,10.0939028 L15.4029395,10.2829764 C14.4385675,11.0662984 13.3580114,11.2337547 12.3717828,10.8941678 C11.6193834,10.6350949 10.9962911,10.0856323 10.9182237,9.58194008 C10.7793632,9.65601507 10.6026529,9.63298299 10.484835,9.51516504 C10.3513468,9.38167693 10.339535,9.17258888 10.4493994,9.02572167 C10.0475854,8.85221504 9.62715097,8.50360634 9.31988654,8.07154709 C8.66229632,7.14687796 8.5994068,6.00767152 9.33219362,4.90539193 L9.33219362,4.90539193 L9.49821729,4.65565422 L9.77834709,4.76270598 C10.1140937,4.89101173 10.4100644,5.05351011 10.6659925,5.24446969 C10.4832297,4.40427659 10.7177733,3.53156756 11.4440734,2.7692943 L11.4440734,2.7692943 L11.6509413,2.55218037 L11.908226,2.7062498 C12.1849201,2.87194219 12.4252955,3.05918489 12.6298812,3.26386674 C12.7445369,2.40754111 13.263784,1.6637115 14.2106925,1.19398431 L14.2106925,1.19398431 L14.4793421,1.06071694 L14.6684157,1.29349138 C14.9478074,1.63745913 15.1488503,1.99620751 15.2764822,2.3601845 Z M13.0009304,8.96834107 L12.8374583,8.97816538 C12.5038786,9.00980968 12.1786678,9.11586048 11.9333101,9.26256709 C11.8285637,9.32519804 11.7465273,9.39084712 11.6952801,9.44956539 C11.6747628,9.47307374 11.6651532,9.4874548 11.6603987,9.48711289 L11.6603987,9.48711289 C11.6838588,9.62655857 12.0642634,9.97796346 12.5584474,10.1642851 L12.5584474,10.1642851 L12.6159597,10.1850291 C13.2694623,10.4100489 13.9704304,10.342205 14.6435322,9.90904193 L14.6435322,9.90904193 L14.6770781,9.88677555 L14.6285685,9.81368961 C14.1832024,9.16940259 13.5525281,8.91033189 12.8374583,8.97816538 Z M9.79815773,5.58942075 L9.75911824,5.66797425 C9.42383239,6.37581616 9.51480774,7.05153148 9.93108814,7.6368833 C10.1252828,7.90994973 10.3797309,8.13856513 10.6294614,8.2776978 C10.7360745,8.33709534 10.8339465,8.37531641 10.9104216,8.39033868 C10.9410391,8.39635297 10.9582983,8.39748465 10.9603794,8.40177311 L10.9603794,8.40177311 C11.0694129,8.31173318 11.1835362,7.80659077 11.0978034,7.28545403 L11.0978034,7.28545403 L11.0870121,7.22527489 C10.9551337,6.5468152 10.545895,5.97368089 9.83421392,5.60733915 L9.83421392,5.60733915 L9.79815773,5.58942075 Z M14.5009304,6.96834107 L14.3374583,6.97816538 C14.0038786,7.00980968 13.6786678,7.11586048 13.4333101,7.26256709 C13.3285637,7.32519804 13.2465273,7.39084712 13.1952801,7.44956539 C13.1747628,7.47307374 13.1651532,7.4874548 13.1603987,7.48711289 L13.1603987,7.48711289 C13.1838588,7.62655857 13.5642634,7.97796346 14.0584474,8.16428505 L14.0584474,8.16428505 L14.1159597,8.1850291 C14.7694623,8.41004887 15.4704304,8.34220499 16.1435322,7.90904193 L16.1435322,7.90904193 L16.1770781,7.88677555 L16.1285685,7.81368961 C15.6832024,7.16940259 15.0525281,6.91033189 14.3374583,6.97816538 Z M11.8054196,7.00490293 L11.8232326,7.08216895 C11.8562188,7.25186922 11.8742842,7.42313698 11.8782826,7.59055733 L12.2549162,7.21607012 C12.1074907,7.17959122 11.9551067,7.10664418 11.8054196,7.00490293 Z M11.7841781,3.52384499 L11.7320911,3.59442596 C11.2789835,4.23329239 11.25124,4.91453977 11.5595509,5.56328512 C11.7033778,5.8659246 11.9142616,6.13525127 12.136038,6.31563544 C12.2307172,6.39264378 12.3204653,6.44727947 12.39317,6.47535329 C12.4222779,6.48659288 12.4390784,6.49070439 12.4403832,6.49528909 L12.4403832,6.49528909 C12.5633955,6.42555052 12.763502,5.94789966 12.7695662,5.41979282 L12.7695662,5.41979282 L12.7693888,5.35865405 C12.7573272,4.66760124 12.4538296,4.03211059 11.8165751,3.54775227 L11.8165751,3.54775227 L11.7841781,3.52384499 Z M18.137266,5.4465052 C17.6374412,4.8434861 16.9865873,4.64036813 16.2801507,4.77026593 C15.9505983,4.83086321 15.635868,4.96485443 15.4042303,5.13238711 C15.3937256,5.13998467 15.3834791,5.14759383 15.3734995,5.15520185 L15.1655905,5.36475724 C15.1588609,5.37442987 15.1547649,5.37982033 15.1519278,5.37986425 L15.1519278,5.37986425 C15.1874522,5.51673461 15.5970361,5.83364786 16.1055786,5.97618946 L16.1055786,5.97618946 L16.1646801,5.99184204 C16.8353076,6.15904904 17.5276954,6.03036993 18.1604832,5.5401905 L18.1604832,5.5401905 L18.1919608,5.51508513 Z M14.2722149,2.01935269 L14.1991289,2.06786228 C13.5548419,2.51322843 13.2957712,3.14390273 13.3636047,3.85897248 C13.395249,4.19255227 13.5012998,4.51776306 13.6480064,4.76312073 C13.7106374,4.86786709 13.7762864,4.94990349 13.8350047,5.00115073 C13.8585131,5.02166799 13.8728941,5.03127765 13.8725522,5.03603213 L13.8725522,5.03603213 C14.0119979,5.01257198 14.3634028,4.63216747 14.5497244,4.13798343 L14.5497244,4.13798343 L14.5704684,4.08047112 C14.7954882,3.42696857 14.7276443,2.7260004 14.2944813,2.05289858 L14.2944813,2.05289858 L14.2722149,2.01935269 Z M17.6877549,1.65050683 C16.9045344,1.64578157 16.3305762,2.01380287 15.975995,2.6384614 C15.8105829,2.92986439 15.7109214,3.25708971 15.6903651,3.5422224 C15.6815893,3.66394924 15.6883117,3.76880429 15.7070167,3.84446299 C15.7145054,3.87475358 15.7207738,3.89087399 15.7177667,3.89457252 L15.7177667,3.89457252 C15.8454501,3.95533784 16.3514952,3.84528628 16.7875732,3.54734408 L16.7875732,3.54734408 L16.8375534,3.51213105 C17.3967125,3.10587915 17.7431969,2.49276598 17.7744458,1.69294113 L17.7744458,1.69294113 L17.7754474,1.65269047 Z" id="icon"></path>
            </g>
        </g>
    </g>
</svg>