<?xml version="1.0" encoding="UTF-8"?>
<svg width="13px" height="16px" viewBox="0 0 13 16" version="1.1" xmlns="http://www.w3.org/2000/svg" xmlns:xlink="http://www.w3.org/1999/xlink">
    <!-- Generator: Sketch 61.1 (89650) - https://sketch.com -->
    <title>kettlebells</title>
    <desc>Created with Sketch.</desc>
    <g id="0.-Onboarding" stroke="none" stroke-width="1" fill="none" fill-rule="evenodd">
        <g id="onboarding-icons-copy" transform="translate(-148.000000, -9.000000)" fill="#333230">
            <g id="icon/equipment/kettlebells" transform="translate(144.800000, 7.000000)">
                <path d="M12.9200816,2.125 C14.3698291,2.125 15.5450816,3.30025253 15.5450816,4.75 C15.5450816,4.83954892 15.5404993,4.92901959 15.5313587,5.01806152 L15.5206995,5.10694755 L14.9965168,8.92599251 L14.9913165,8.94918214 C15.7051325,9.95077682 16.125,11.1763558 16.125,12.5 C16.125,15.1778 14.3166923,17.995567 12.1257586,18.000021 L12.1257586,18.000021 L8.30083358,17.9992428 L7.87590043,18.000021 C5.68104769,18.0052691 3.875,15.1861033 3.875,12.5 C3.875,11.1767954 4.29458864,9.95159089 5.00797239,8.95018015 L5.00348316,8.92599251 L4.47930052,5.10694755 C4.28216383,3.67066595 5.28668925,2.34651879 6.72297086,2.1493821 C6.81168801,2.13720524 6.90095074,2.12957874 6.99040856,2.12652654 L7.07991841,2.125 L12.9200816,2.125 Z M10,7.125 C7.03146947,7.125 4.625,9.53146947 4.625,12.5 C4.625,14.8226686 6.1826287,17.2540626 7.87409957,17.2500062 C7.91241604,17.2500062 7.94980547,17.2498247 7.98643436,17.2497476 L7.98643436,17.2497476 L12.1242414,17.2500062 C13.8146161,17.2465811 15.375,14.8151375 15.375,12.5 C15.375,9.53146947 12.9685305,7.125 10,7.125 Z M10,10.5 C11.1045695,10.5 12,11.3954305 12,12.5 C12,13.6045695 11.1045695,14.5 10,14.5 C8.8954305,14.5 8,13.6045695 8,12.5 C8,11.3954305 8.8954305,10.5 10,10.5 Z M10,11.25 C9.30964406,11.25 8.75,11.8096441 8.75,12.5 C8.75,13.1903559 9.30964406,13.75 10,13.75 C10.6903559,13.75 11.25,13.1903559 11.25,12.5 C11.25,11.8096441 10.6903559,11.25 10,11.25 Z M12.9807644,2.87596339 L7.07991841,2.875 C6.99463373,2.875 6.9094484,2.88081877 6.82495587,2.89241579 C5.81915643,3.03046669 5.10977882,3.94226565 5.215037,4.94471242 L5.2223342,5.00496254 L5.6580006,8.17996901 C6.04915058,7.78684239 6.49333425,7.44653221 6.9789179,7.17067218 L6.85067966,5.74948665 C6.78192758,4.99321378 7.3392733,4.32439892 8.09554617,4.25564684 L8.15772549,4.25141244 L8.22003282,4.25 L11.7799672,4.25 C12.5393587,4.25 13.1549672,4.86560847 13.1549672,5.625 L13.1535547,5.68730733 L13.1493203,5.74948665 L13.0210821,7.17067218 C13.5066658,7.44653221 13.9508494,7.78684239 14.3419994,8.17996901 L14.7776658,5.00496254 C14.7892628,4.92047001 14.7950816,4.83528469 14.7950816,4.75 C14.7950816,3.73477068 13.988213,2.90799562 12.9807644,2.87596339 Z M11.7799672,5 L8.22003282,5 C8.20114211,5 8.18226111,5.00085646 8.16344798,5.00256675 C7.833438,5.03256765 7.58676041,5.31394032 7.59520306,5.64053932 L7.59759957,5.68158484 L7.70156953,6.82085388 C8.4112905,6.53333827 9.18715431,6.375 10,6.375 C10.8128457,6.375 11.5887095,6.53333827 12.2984305,6.82085388 L12.4024004,5.68158484 C12.4041107,5.66277171 12.4049672,5.64389071 12.4049672,5.625 C12.4049672,5.29362915 12.1470832,5.02249033 11.8210611,5.00132942 L11.7799672,5 Z" id="icon"></path>
            </g>
        </g>
    </g>
</svg>