<?xml version="1.0" encoding="UTF-8"?>
<svg width="60px" height="60px" viewBox="0 0 60 60" version="1.1" xmlns="http://www.w3.org/2000/svg" xmlns:xlink="http://www.w3.org/1999/xlink">
    <!-- Generator: Sketch 61.1 (89650) - https://sketch.com -->
    <title>lunch</title>
    <desc>Created with Sketch.</desc>
    <g id="0.-Onboarding" stroke="none" stroke-width="1" fill="none" fill-rule="evenodd">
        <g id="onboarding-icons" transform="translate(-181.000000, -648.000000)">
            <g id="lunch" transform="translate(181.000000, 648.000000)">
                <circle id="Oval" fill="#FAF9F7" cx="30" cy="30" r="30"></circle>
                <circle id="Oval-Copy" fill="#FAF9F7" cx="30" cy="30" r="30"></circle>
                <g id="icon/meal/lunch" transform="translate(12.000000, 12.000000)" fill="#333230">
                    <path d="M30.1615463,21.6346388 C30.5986298,21.4889443 31.05,21.8142735 31.05,22.275 L31.05,22.275 L31.05,27 C31.05,27.4607265 30.5986298,27.7860557 30.1615463,27.6403612 L30.1615463,27.6403612 L29.5902,27.45 L26.1,27.45 C25.9782918,27.45 25.8593194,27.4171041 25.7554271,27.3554271 L25.7554271,27.3554271 L25.695,27.315 L25.64955,27.28215 L25.605,27.315 C25.4881601,27.4026299 25.3460499,27.45 25.2,27.45 L25.2,27.45 L19.35,27.45 C19.2452096,27.45 19.1418582,27.4256021 19.0481308,27.3787384 C18.8773867,27.2933663 18.7529532,27.246197 18.7004705,27.2307441 L18.7004705,27.2307441 L18.675,27.225 C18.6600954,27.225 18.5668297,27.2550949 18.4208434,27.321771 L18.4208434,27.321771 L18.3018692,27.3787384 C18.2081418,27.4256021 18.1047904,27.45 18,27.45 L18,27.45 L11.25,27.45 C11.1452096,27.45 11.0418582,27.4256021 10.9481308,27.3787384 L10.9481308,27.3787384 L10.8,27.3042 L10.6518692,27.3787384 C10.5768872,27.4162293 10.495746,27.4393422 10.4126361,27.4470877 L10.4126361,27.4470877 L10.35,27.45 L7.05735,27.45 L6.23871155,27.6548462 C5.83205224,27.756511 5.4375446,27.4675422 5.40252048,27.0591281 L5.40252048,27.0591281 L5.4,27 L5.4,22.275 C5.4,21.8153724 5.84937236,21.4901595 6.28597284,21.6338171 C6.42835735,21.6806669 6.55315777,21.7193048 6.65966534,21.7496398 L6.65966534,21.7496398 L6.80561846,21.7889038 C6.86314769,21.8032861 6.90893183,21.813018 6.93835487,21.818718 L6.93835487,21.818718 L6.975,21.825 L12.1227539,21.825 C12.2039692,21.825 12.2821907,21.8364691 12.3574935,21.8572219 C12.4347492,21.8785129 12.4949997,21.9018567 12.5553882,21.9334959 L12.5553882,21.9334959 L12.5964,21.95685 L12.6632467,21.9201543 C12.7357729,21.8835851 12.8116879,21.8560526 12.8952836,21.8401384 L12.8952836,21.8401384 L12.9815985,21.8281927 C12.9934012,21.8273167 13.0012696,21.8267326 13.0078796,21.8263224 L13.0078796,21.8263224 L25.65,21.825 C25.8827617,21.825 26.0131424,21.8946201 26.1944412,22.0312505 L26.1944412,22.0312505 L26.3890966,22.1840706 C26.4807053,22.2524487 26.5310599,22.275 26.55,22.275 C26.6511874,22.275 26.7896243,22.2057815 26.9727029,22.0227029 C27.09929,21.8961159 27.2709789,21.825 27.45,21.825 L27.45,21.825 L29.58885,21.825 Z M6.75,23.15475 L6.75,26.1351 L6.81128845,26.1201538 C6.84698272,26.1112302 6.88331678,26.1052475 6.91992581,26.1022505 L6.91992581,26.1022505 L6.975,26.1 L10.19025,26.1 L10.4981308,25.9462616 C10.6670473,25.8618034 10.8625477,25.8524191 11.0373717,25.9181089 L11.0373717,25.9181089 L11.1018692,25.9462616 L11.4093,26.1 L17.8461,26.1 L17.9211566,26.066229 C18.1714186,25.9565706 18.3885448,25.8924047 18.5897123,25.8780766 L18.5897123,25.8780766 L18.675,25.875 C18.9000954,25.875 19.1428297,25.9409051 19.4288434,26.066229 L19.4288434,26.066229 L19.50345,26.1 L24.98805,26.1 L25.0615531,26.0547332 C25.2326175,25.9542506 25.3936341,25.893975 25.5639673,25.8788041 L25.5639673,25.8788041 L25.65,25.875 C25.8529728,25.875 26.0388717,25.9375035 26.2384469,26.0547332 L26.2384469,26.0547332 L26.3115,26.1 L29.7,26.1 L29.7,23.175 L27.7074,23.175 L27.6718464,23.204756 C27.353226,23.4545878 27.0113933,23.5995163 26.6492637,23.6219361 L26.6492637,23.6219361 L26.55,23.625 C26.1811999,23.625 25.8848029,23.4922588 25.5815809,23.2659294 L25.5815809,23.2659294 L25.46505,23.175 L13.20795,23.175 L13.1657439,23.2061038 C13.0005625,23.3238709 12.8757754,23.3839974 12.6857444,23.3971889 L12.6857444,23.3971889 L12.6,23.4 C12.4353678,23.4 12.2972369,23.3553782 12.1642714,23.283343 C12.1260414,23.2626315 12.0990991,23.2465957 12.0645842,23.2237245 L12.0645842,23.2237245 L11.99385,23.175 L6.975,23.175 C6.9190842,23.175 6.85787447,23.1704506 6.79031585,23.1613207 L6.79031585,23.1613207 L6.75,23.15475 Z M30.7537384,17.9231308 C30.9204561,18.2565663 30.7853047,18.6620206 30.4518692,18.8287384 C29.766657,19.1713444 29.0797775,19.3548645 28.39544,19.3734234 L27.4243537,19.3980329 C23.5702161,19.4887502 20.0477624,19.4876794 15.7480228,19.4257572 L11.8641376,19.3634601 C11.3316015,19.3558921 10.9116755,19.3515901 10.5560475,19.3503664 L8.9651891,19.3526568 C7.64911231,19.3593332 7.14178039,19.3806636 6.77589805,19.4390059 L6.60877864,19.4700797 L6.5934,19.4733 L6.59893652,19.4756438 C6.65264122,19.4980621 6.7183371,19.5209831 6.79504517,19.5432964 L6.8753877,19.565366 C7.25421283,19.6636804 7.78679975,19.7284811 8.45029529,19.7640498 L8.61888321,19.7723354 C8.98951017,19.7889565 9.31538197,19.7960774 9.7797163,19.7986933 L10.35,19.8 L28.5542821,19.7988785 C28.5919222,19.79822 28.6232725,19.7972045 28.656845,19.795667 C29.0023308,19.779845 29.2996395,19.6955073 29.8481308,19.4212616 C30.1815663,19.2545439 30.5870206,19.3896953 30.7537384,19.7231308 C30.9204561,20.0565663 30.7853047,20.4620206 30.4518692,20.6287384 C29.7424788,20.9834335 29.2635267,21.1192982 28.7186052,21.1442536 L28.5385777,21.1492653 L28.35,21.15 L9.89862265,21.1492715 C9.44007404,21.1475326 9.11052103,21.1422949 8.76719363,21.1295557 L8.55840211,21.1209799 C6.32635283,21.0208818 5.175,20.7220775 5.175,19.575 C5.175,18.7843977 5.53644895,18.3213774 6.36305455,18.1427402 L6.46050233,18.1233878 L6.60471172,18.0992143 C7.11878608,18.0205644 7.76747736,18.0029997 9.7015264,18.0003832 L10.5595266,18.00037 C10.8484795,18.0013587 11.1778774,18.0043363 11.5730326,18.0093942 L15.7660656,18.0758766 C20.4075863,18.1427285 24.1367807,18.1384196 28.3588422,18.0239196 C28.8383165,18.0109165 29.333343,17.8786556 29.8481308,17.6212616 C30.1815663,17.4545439 30.5870206,17.5896953 30.7537384,17.9231308 Z M9.70229708,15.7227029 C10.0600135,16.0804194 10.6399865,16.0804194 10.9977029,15.7227029 C11.8826272,14.8377787 13.3173728,14.8377787 14.2022971,15.7227029 C14.5600135,16.0804194 15.1399865,16.0804194 15.4977029,15.7227029 C16.3826272,14.8377787 17.8173728,14.8377787 18.7022971,15.7227029 C19.0600135,16.0804194 19.6399865,16.0804194 19.9977029,15.7227029 C20.8826272,14.8377787 22.3173728,14.8377787 23.2022971,15.7227029 C23.5600135,16.0804194 24.1399865,16.0804194 24.4977029,15.7227029 C25.3826272,14.8377787 26.8173728,14.8377787 27.7022971,15.7227029 C28.0908619,16.1112678 28.6952249,16.1714066 29.1506423,15.877198 L29.2177922,15.8304058 L29.745,15.435 C30.0432338,15.2113247 30.4663247,15.2717662 30.69,15.57 C30.900518,15.8506906 30.8593614,16.2419813 30.6051516,16.4735238 L30.555,16.515 L30.0277922,16.9104058 C29.0287383,17.6596963 27.6307502,17.5603443 26.7477029,16.6772971 C26.3899865,16.3195806 25.8100135,16.3195806 25.4522971,16.6772971 C24.5673728,17.5622213 23.1326272,17.5622213 22.2477029,16.6772971 C21.8899865,16.3195806 21.3100135,16.3195806 20.9522971,16.6772971 C20.0673728,17.5622213 18.6326272,17.5622213 17.7477029,16.6772971 C17.3899865,16.3195806 16.8100135,16.3195806 16.4522971,16.6772971 C15.5673728,17.5622213 14.1326272,17.5622213 13.2477029,16.6772971 C12.8899865,16.3195806 12.3100135,16.3195806 11.9522971,16.6772971 C11.0673728,17.5622213 9.63262716,17.5622213 8.74770292,16.6772971 C8.37030796,16.2999021 7.78066773,16.2494202 7.34651857,16.5462184 L7.27931449,16.5959702 L6.27166916,17.4020864 C5.98056735,17.6349679 5.555795,17.587771 5.32291355,17.2966692 C5.1045872,17.0237612 5.13242348,16.6333694 5.37661635,16.3937481 L5.42833084,16.3479136 L6.43597617,15.5417973 C7.41182706,14.7611166 8.81862652,14.8390324 9.70229708,15.7227029 Z M30.1615463,8.35963877 C30.5986298,8.21394427 31.05,8.53927354 31.05,9 L31.05,9 L31.05,13.725 C31.05,14.1857265 30.5986298,14.5110557 30.1615463,14.3653612 L30.1615463,14.3653612 L29.5902,14.175 L26.1,14.175 C25.9782918,14.175 25.8593194,14.1421041 25.7554271,14.0804271 L25.7554271,14.0804271 L25.695,14.04 L25.65,14.00715 L25.605,14.04 C25.4881601,14.1276299 25.3460499,14.175 25.2,14.175 L25.2,14.175 L19.35,14.175 C19.2452096,14.175 19.1418582,14.1506021 19.0481308,14.1037384 C18.8773867,14.0183663 18.7529532,13.971197 18.7004705,13.9557441 L18.7004705,13.9557441 L18.675,13.95 C18.6600954,13.95 18.5668297,13.9800949 18.4208434,14.046771 L18.4208434,14.046771 L18.3018692,14.1037384 C18.2081418,14.1506021 18.1047904,14.175 18,14.175 L18,14.175 L11.25,14.175 C11.1452096,14.175 11.0418582,14.1506021 10.9481308,14.1037384 L10.9481308,14.1037384 L10.8,14.0292 L10.6518692,14.1037384 C10.5768872,14.1412293 10.495746,14.1643422 10.4126361,14.1720877 L10.4126361,14.1720877 L10.35,14.175 L7.05735,14.175 L6.23871155,14.3798462 C5.83205224,14.481511 5.4375446,14.1925422 5.40252048,13.7841281 L5.40252048,13.7841281 L5.4,13.725 L5.4,9 C5.4,8.54037242 5.84937236,8.21515946 6.28597284,8.35881714 C6.42835735,8.4056669 6.55315777,8.4443048 6.65966534,8.47463982 L6.65966534,8.47463982 L6.80561846,8.51390381 C6.90629462,8.53907285 6.97100142,8.55 6.975,8.55 L6.975,8.55 L12.1227539,8.55 C12.2039692,8.55 12.2821907,8.56146908 12.3574935,8.5822219 C12.4347492,8.60351291 12.4949997,8.62685672 12.5553882,8.6584959 L12.5553882,8.6584959 L12.5964,8.6823 L12.6632467,8.6451543 C12.7357729,8.60858507 12.8116879,8.58105258 12.8952836,8.56513845 L12.8952836,8.56513845 L12.9815985,8.55319271 C12.9934012,8.55231666 13.0012696,8.55173262 13.0078796,8.55132236 L13.0078796,8.55132236 L13.0538452,8.55 L25.65,8.55 C25.8827617,8.55 26.0131424,8.61962013 26.1944412,8.75625047 L26.1944412,8.75625047 L26.3890966,8.90907064 C26.4807053,8.97744871 26.5310599,9 26.55,9 C26.6511874,9 26.7896243,8.93078151 26.9727029,8.74770292 C27.09929,8.62111587 27.2709789,8.55 27.45,8.55 L27.45,8.55 L29.5902,8.55 Z M6.75,9.87975 L6.75,12.8601 L6.81128845,12.8451538 C6.84698272,12.8362302 6.88331678,12.8302475 6.91992581,12.8272505 L6.91992581,12.8272505 L6.975,12.825 L10.19025,12.825 L10.4981308,12.6712616 C10.6670473,12.5868034 10.8625477,12.5774191 11.0373717,12.6431089 L11.0373717,12.6431089 L11.1018692,12.6712616 L11.4093,12.825 L17.8461,12.825 L17.9211566,12.791229 C18.1714186,12.6815706 18.3885448,12.6174047 18.5897123,12.6030766 L18.5897123,12.6030766 L18.675,12.6 C18.9000954,12.6 19.1428297,12.6659051 19.4288434,12.791229 L19.4288434,12.791229 L19.50345,12.825 L24.98805,12.825 L25.0615531,12.7797332 C25.2326175,12.6792506 25.3936341,12.618975 25.5639673,12.6038041 L25.5639673,12.6038041 L25.65,12.6 C25.8529728,12.6 26.0388717,12.6625035 26.2384469,12.7797332 L26.2384469,12.7797332 L26.3115,12.825 L29.7,12.825 L29.7,9.9 L27.7074,9.9 L27.6718464,9.929756 C27.353226,10.1795878 27.0113933,10.3245163 26.6492637,10.3469361 L26.6492637,10.3469361 L26.55,10.35 C26.1811999,10.35 25.8848029,10.2172588 25.5815809,9.99092936 L25.5815809,9.99092936 L25.46505,9.9 L13.20795,9.9 L13.1657439,9.93110381 C13.0005625,10.0488709 12.8757754,10.1089974 12.6857444,10.1221889 L12.6857444,10.1221889 L12.6,10.125 C12.4353678,10.125 12.2972369,10.0803782 12.1642714,10.008343 C12.1260414,9.98763155 12.0990991,9.97159568 12.0645842,9.94872452 L12.0645842,9.94872452 L11.99385,9.9 L6.975,9.9 C6.9190842,9.9 6.85787447,9.89545061 6.79031585,9.88632067 L6.79031585,9.88632067 L6.75,9.87975 Z" id="icon"></path>
                </g>
            </g>
        </g>
    </g>
</svg>