<?xml version="1.0" encoding="UTF-8"?>
<svg width="60px" height="60px" viewBox="0 0 60 60" version="1.1" xmlns="http://www.w3.org/2000/svg" xmlns:xlink="http://www.w3.org/1999/xlink">
    <!-- Generator: Sketch 61.1 (89650) - https://sketch.com -->
    <title>male-selected</title>
    <desc>Created with Sketch.</desc>
    <g id="0.-Onboarding" stroke="none" stroke-width="1" fill="none" fill-rule="evenodd">
        <g id="onboarding-icons" transform="translate(-96.000000, -14.000000)">
            <g id="male-selected" transform="translate(96.000000, 14.000000)">
                <circle id="Oval" fill="#FAF9F7" cx="30" cy="30" r="30"></circle>
                <circle id="Oval-Copy" fill="#334D7E" cx="30" cy="30" r="30"></circle>
                <g id="icon/sex/male" transform="translate(12.000000, 12.000000)" fill="#FFFFFF">
                    <path d="M28.35,6.3 C29.0689564,6.3 29.6566474,6.86201398 29.6977083,7.57067725 L29.7,7.65 L29.7,14.4 C29.7,14.8970563 29.2970563,15.3 28.8,15.3 C28.3255372,15.3 27.9368257,14.932855 27.9024686,14.4671681 L27.9,14.4 L27.899,9.373 L21.3687734,15.9042912 C22.6383203,17.4557526 23.4,19.4389264 23.4,21.6 C23.4,26.5705627 19.3705627,30.6 14.4,30.6 C9.42943725,30.6 5.4,26.5705627 5.4,21.6 C5.4,16.6294373 9.42943725,12.6 14.4,12.6 C16.5610736,12.6 18.5442474,13.3616797 20.0957088,14.6312266 L26.626,8.1 L21.6,8.1 C21.1255372,8.1 20.7368257,7.73285499 20.7024686,7.26716806 L20.7,7.2 C20.7,6.72553719 21.067145,6.3368257 21.5328319,6.30246858 L21.6,6.3 L28.35,6.3 Z M14.4,14.4 C10.4235498,14.4 7.2,17.6235498 7.2,21.6 C7.2,25.5764502 10.4235498,28.8 14.4,28.8 C18.3764502,28.8 21.6,25.5764502 21.6,21.6 C21.6,17.6235498 18.3764502,14.4 14.4,14.4 Z" id="icon"></path>
                </g>
            </g>
        </g>
    </g>
</svg>