<?xml version="1.0" encoding="UTF-8"?>
<svg width="60px" height="60px" viewBox="0 0 60 60" version="1.1" xmlns="http://www.w3.org/2000/svg" xmlns:xlink="http://www.w3.org/1999/xlink">
    <!-- Generator: Sketch 61.1 (89650) - https://sketch.com -->
    <title>move selector-selected</title>
    <desc>Created with Sketch.</desc>
    <g id="0.-Onboarding" stroke="none" stroke-width="1" fill="none" fill-rule="evenodd">
        <g id="onboarding-icons" transform="translate(-96.000000, -391.000000)">
            <g id="move-selector-selected" transform="translate(96.000000, 391.000000)">
                <circle id="Oval" fill="#FAF9F7" cx="30" cy="30" r="30"></circle>
                <circle id="Oval-Copy" fill="#334D7E" cx="30" cy="30" r="30"></circle>
                <g id="icon/onboarding/moveselector" transform="translate(12.000000, 12.000000)" fill="#FFFFFF">
                    <path d="M18,3.6 C25.9529004,3.6 32.4,10.0470996 32.4,18 C32.4,25.9529004 25.9529004,32.4 18,32.4 C10.0470996,32.4 3.6,25.9529004 3.6,18 C3.6,16.8105159 3.74437182,15.6394246 4.0271514,14.5052984 C4.11734105,14.1435805 4.48368452,13.9234633 4.84540244,14.0136529 C5.20712037,14.1038426 5.42723753,14.470186 5.33704788,14.831904 C5.08085112,15.8594162 4.95,16.9208325 4.95,18 C4.95,25.207316 10.792684,31.05 18,31.05 C25.207316,31.05 31.05,25.207316 31.05,18 C31.05,10.792684 25.207316,4.95 18,4.95 C17.6272078,4.95 17.325,4.64779221 17.325,4.275 C17.325,3.90220779 17.6272078,3.6 18,3.6 Z M18,7.2 C23.9646753,7.2 28.8,12.0353247 28.8,18 C28.8,23.9646753 23.9646753,28.8 18,28.8 C15.8228223,28.8 13.7402455,28.1537602 11.9726345,26.96288 C11.6634632,26.7545842 11.5816874,26.3350942 11.7899832,26.0259229 C11.998279,25.7167516 12.417769,25.6349759 12.7269403,25.8432717 C14.2733646,26.8851333 16.0937078,27.45 18,27.45 C23.2190909,27.45 27.45,23.2190909 27.45,18 C27.45,12.7809091 23.2190909,8.55 18,8.55 C17.6272078,8.55 17.325,8.24779221 17.325,7.875 C17.325,7.50220779 17.6272078,7.2 18,7.2 Z M17.775,15.525 C18.1258633,15.525 18.4142019,15.7926996 18.44691,16.134993 L18.45,16.2 L18.45,19.125 C18.45,19.2404093 18.4204174,19.3534911 18.3645962,19.4536368 L18.3279815,19.5120871 L15.1779815,24.0120871 C14.9641993,24.3174904 14.5433162,24.3917638 14.2379129,24.1779815 C13.9504745,23.9767747 13.867774,23.5921152 14.0372708,23.2929407 L14.0720185,23.2379129 L17.1,18.9117 L17.1,16.2 C17.1,15.8491367 17.3676996,15.5607981 17.709993,15.52809 L17.775,15.525 Z M19.551032,19.5013663 L19.6022971,19.5477029 L20.9522971,20.8977029 C21.0308224,20.9762282 21.0885139,21.0726591 21.1206875,21.1782429 L21.136892,21.2426216 L21.586892,23.4926216 C21.6600025,23.8581744 21.4229312,24.2137814 21.0573784,24.286892 C20.7133287,24.3557019 20.3780891,24.1497487 20.2788869,23.820517 L20.263108,23.7573784 L19.8531,21.70755 L18.6477029,20.5022971 C18.4005743,20.2551684 18.3851287,19.8640903 18.6013663,19.598968 L18.6477029,19.5477029 C18.8948316,19.3005743 19.2859097,19.2851287 19.551032,19.5013663 Z M18.652652,13.6527387 L18.7022971,13.6977029 L20.35755,15.3531 L22.4073784,15.763108 C22.7514281,15.831918 22.9816672,16.1509669 22.9466109,16.4930278 L22.936892,16.5573784 C22.868082,16.9014281 22.5490331,17.1316672 22.2069722,17.0966109 L22.1426216,17.086892 L19.8926216,16.636892 C19.7837266,16.615113 19.6822342,16.5668792 19.5968967,16.4968747 L19.5477029,16.4522971 L18.0621,14.96655 L16.4367,15.6168 L15.2038077,17.6722846 C15.0232901,17.9731474 14.6453905,18.0826654 14.3350482,17.9346039 L14.2777154,17.9038077 C13.9768526,17.7232901 13.8673346,17.3453905 14.0153961,17.0350482 L14.0461923,16.9777154 L15.3961923,14.7277154 C15.4594414,14.6223001 15.5500178,14.5365706 15.6577179,14.4792163 L15.7243113,14.4482782 L17.9743113,13.5482782 C18.2041254,13.4563526 18.4638878,13.4980794 18.652652,13.6527387 Z M18.225,9.9 C19.0948485,9.9 19.8,10.6051515 19.8,11.475 C19.8,12.3448485 19.0948485,13.05 18.225,13.05 C17.3551515,13.05 16.65,12.3448485 16.65,11.475 C16.65,10.6051515 17.3551515,9.9 18.225,9.9 Z M18.225,11.25 C18.1007359,11.25 18,11.3507359 18,11.475 C18,11.5992641 18.1007359,11.7 18.225,11.7 C18.3492641,11.7 18.45,11.5992641 18.45,11.475 C18.45,11.3507359 18.3492641,11.25 18.225,11.25 Z" id="icon"></path>
                </g>
            </g>
        </g>
    </g>
</svg>