<?xml version="1.0" encoding="UTF-8"?>
<svg width="17px" height="17px" viewBox="0 0 17 17" version="1.1" xmlns="http://www.w3.org/2000/svg" xmlns:xlink="http://www.w3.org/1999/xlink">
    <!-- Generator: Sketch 61.1 (89650) - https://sketch.com -->
    <title>nightshades</title>
    <desc>Created with Sketch.</desc>
    <g id="0.-Onboarding" stroke="none" stroke-width="1" fill="none" fill-rule="evenodd">
        <g id="onboarding-icons-copy" transform="translate(-72.000000, -498.000000)" fill="#333230">
            <g id="icon/food/veg/nightshades" transform="translate(71.000000, 497.000000)">
                <path d="M5.9604102,4.3322949 C6.05303116,4.51753684 5.97794703,4.74278923 5.7927051,4.8354102 C4.07807467,5.69272541 3.06451438,7.29103203 2.74671046,9.6745614 C2.24037182,13.4721012 5.63277074,17.25 10.125,17.25 C14.4561402,17.25 17.3854015,13.9229377 17.2502389,10.1383843 C17.1606675,7.63038487 16.605462,6.54357459 15.2991899,5.48771817 L15.1542624,5.37273577 L14.8947723,5.17100708 C14.7312921,5.04385582 14.7018417,4.80825247 14.8289929,4.64477227 C14.9561442,4.48129207 15.1917475,4.45184165 15.3552277,4.57899292 L15.6583594,4.81498357 L15.6978794,4.84619953 C17.2205591,6.05263037 17.9006364,7.33612615 17.9997611,10.1116157 C18.1495561,14.3058759 14.8971207,18 10.125,18 C5.18355579,18 1.43640918,13.8270413 2.00328954,9.5754386 C2.35215229,6.95896797 3.50525866,5.14060793 5.4572949,4.1645898 C5.64253684,4.07196884 5.86778923,4.14705297 5.9604102,4.3322949 Z M10.4169874,2.06298114 C10.6930044,1.87896981 11.0741091,1.85438241 11.4155204,1.95192852 C11.8462637,2.07499803 12.1687637,2.37599804 11.9604102,2.7927051 C11.9159003,2.8817249 11.5900721,3.34719371 11.5488636,3.41021851 L11.5488636,3.41021851 L11.5139623,3.46423349 L11.4495608,3.56794863 L11.41175,3.63175 L11.4364263,3.6141239 C11.6639149,3.45551851 11.907746,3.38364535 12.2997339,3.37573849 L12.2997339,3.37573849 L12.375,3.375 C12.7221592,3.375 13.0103646,3.42208305 13.3855666,3.51919417 C13.9192472,3.65732326 14.0087718,3.67116793 14.1229902,3.59432703 L14.1229902,3.59432703 L14.1773586,3.55610412 C14.4809723,3.36381275 14.8664576,3.68023735 14.7196794,4.02271974 C14.7050082,4.05695242 14.690736,4.09176435 14.6761919,4.12871129 L14.6761919,4.12871129 L14.6310737,4.24751285 L14.5233147,4.54280458 C14.3131087,5.08568154 14.034403,5.41379594 13.5101205,5.58814949 L13.5101205,5.58814949 L13.49125,5.594 L13.5205424,5.6259446 C13.5864415,5.70131304 13.6456628,5.7831635 13.6992424,5.8715461 L13.6992424,5.8715461 L13.7307215,5.92535991 C13.7606134,5.9783166 13.7882388,6.03216085 13.8185711,6.09526872 L13.8185711,6.09526872 L13.9041902,6.27663008 C14.0049345,6.48442614 14.0516009,6.52301337 14.2614096,6.50850456 L14.2614096,6.50850456 L14.3376861,6.50186105 C14.7200423,6.46362544 14.9056522,6.9568016 14.5929643,7.18015005 C13.6251789,7.87142537 12.7700992,7.94746438 11.7597442,7.21250168 L11.7597442,7.21250168 L11.70525,7.172 L11.7134912,7.2298461 C11.8324997,8.11444825 11.6992184,8.50528229 11.2297749,9.26459928 L11.2297749,9.26459928 L11.1929994,9.3237496 C11.0862828,9.49449603 10.8637707,9.5504899 10.6889479,9.45059118 C9.83986369,8.9654002 9.17725658,8.19517958 8.97987139,7.37207487 L8.97987139,7.37207487 L8.96575,7.309 L8.92570054,7.34301231 C8.1488124,7.98487958 7.38175564,8.06628568 6.06158124,7.50600935 L6.06158124,7.50600935 L5.97469294,7.468559 C5.66005346,7.33090423 5.68060459,6.8778471 6.00641459,6.76924376 L6.00641459,6.76924376 L6.02215289,6.76303799 C6.08525924,6.73424228 6.15091383,6.6565445 6.24469354,6.4856323 L6.24469354,6.4856323 L6.29404557,6.39220318 L6.45462619,6.072847 L6.51549557,5.95881612 C6.73381055,5.56261485 6.99381174,5.26041082 7.33292164,5.05725711 L7.33292164,5.05725711 L7.38675,5.026 L7.24332871,4.97612344 C6.31660067,4.62860043 6,4.15369942 6,2.875 C6,2.49824139 6.4933177,2.35675973 6.69299936,2.6762504 L6.69299936,2.6762504 L6.71159646,2.7045219 C6.89094912,2.96365509 7.23558186,3.0920373 8.03504673,3.24135 L8.03504673,3.24135 L8.30700122,3.2929861 C8.89171675,3.40848414 9.27243147,3.52105578 9.54135556,3.70745712 L9.54135556,3.70745712 L9.55675,3.7185 L9.59528933,3.63233297 C9.65906065,3.48495037 9.8257569,3.04579602 9.88522523,2.88871831 L9.88522523,2.88871831 L9.93601167,2.75979689 C10.0816601,2.40768665 10.2117342,2.19981659 10.4169874,2.06298114 Z M11.1282528,2.65513316 C11.0065057,2.63573874 10.8893436,2.64946482 10.8330126,2.68701886 C10.7904352,2.71540381 10.7263598,2.8184657 10.6431221,3.01332214 L10.6431221,3.01332214 L10.6033526,3.10983617 C10.6057565,3.1038045 10.3698807,3.73080182 10.2836169,3.93016703 L10.2836169,3.93016703 L10.2374677,4.03408489 C10.1445153,4.23786046 10.0471713,4.41778393 9.93701886,4.58301257 C9.77730209,4.82258773 9.41835758,4.80024065 9.2895898,4.5427051 L9.2895898,4.5427051 L9.27615085,4.51740431 C9.14531841,4.28535944 8.85988501,4.16637969 8.13942873,4.02448099 L8.13942873,4.02448099 L7.78913579,3.95802253 C7.40003806,3.8826079 7.09487074,3.8070351 6.84834929,3.71032793 L6.84834929,3.71032793 L6.83,3.70275 L6.83524597,3.71909303 C6.92838298,3.99477412 7.11313611,4.12163988 7.46044274,4.2562605 L7.46044274,4.2562605 L7.50667129,4.27387656 C8.04233232,4.45875768 8.39716647,4.59182049 8.7927051,4.7895898 C9.14663813,4.96655632 9.02070916,5.5 8.625,5.5 C7.85130442,5.5 7.48554257,5.75242719 7.17237426,6.32076968 L7.17237426,6.32076968 L7.15291682,6.35652508 C7.13989083,6.38075804 7.12664715,6.40598384 7.11253209,6.43340715 L7.11253209,6.43340715 L6.92648684,6.80149555 C6.89135148,6.8676501 6.85687332,6.92843499 6.82223401,6.98424542 L6.82223401,6.98424542 L6.81625,6.993 L6.86086615,7.00780341 C7.71683108,7.28203612 8.14747743,7.101419 8.74626226,6.4876034 L8.74626226,6.4876034 L8.99819611,6.22376708 L9.10983496,6.10983496 C9.38964359,5.83002633 9.85589046,6.11818274 9.73075624,6.49358541 L9.73075624,6.49358541 L9.71359051,6.55006523 C9.53125312,7.21295559 9.97318625,8.01075711 10.6973996,8.55926689 L10.6973996,8.55926689 L10.753,8.60025 L10.7936044,8.52700788 C11.0752144,8.00067525 11.0650725,7.675487 10.835373,6.56789069 L10.835373,6.56789069 L10.7583241,6.20357341 C10.6783809,5.8305052 11.1417621,5.59028995 11.4005513,5.87064496 C12.255572,6.79691735 12.8245999,7.09680511 13.4234869,6.94446273 L13.4234869,6.94446273 L13.44375,6.93875 L13.4346474,6.92837788 C13.361455,6.84123687 13.2961897,6.73672161 13.2349661,6.61466187 L13.2349661,6.61466187 L13.2089636,6.5612759 L13.11981,6.37369295 C13.1051704,6.34450734 13.0914559,6.31859717 13.0775875,6.29402785 C12.9067419,5.99135689 12.6548739,5.8239685 12.0754386,5.74671046 C11.6116295,5.68486925 11.6570864,5 12.125,5 C13.2462804,5 13.5507896,4.88400611 13.7691776,4.40392802 L13.7691776,4.40392802 L13.78025,4.3785 L13.7584551,4.37506252 C13.6258639,4.35203839 13.4683955,4.31463258 13.272802,4.26461356 L13.272802,4.26461356 L13.0943637,4.21938964 C12.8267445,4.15476339 12.6176008,4.125 12.375,4.125 C12.0109736,4.125 11.9201121,4.16487078 11.7359555,4.3369363 L11.7359555,4.3369363 L11.6736762,4.3941299 C11.4541575,4.5899892 11.2653613,4.69011245 10.9366496,4.74489772 C10.7742627,4.7719622 10.6132132,4.6899518 10.5395898,4.5427051 C10.3810016,4.22552875 10.4500821,3.86631032 10.6595898,3.4472949 C10.7306073,3.30525991 10.8170489,3.15897416 10.9211364,2.99978149 L10.9211364,2.99978149 L11.15325,2.65975 Z" id="Shape"></path>
            </g>
        </g>
    </g>
</svg>