<?xml version="1.0" encoding="UTF-8"?>
<svg width="10px" height="16px" viewBox="0 0 10 16" version="1.1" xmlns="http://www.w3.org/2000/svg" xmlns:xlink="http://www.w3.org/1999/xlink">
    <!-- Generator: Sketch 61.1 (89650) - https://sketch.com -->
    <title>oats copy</title>
    <desc>Created with Sketch.</desc>
    <g id="0.-Onboarding" stroke="none" stroke-width="1" fill="none" fill-rule="evenodd">
        <g id="onboarding-icons-copy" transform="translate(-76.000000, -379.000000)" fill="#FFFFFF">
            <g id="icon/food/grain/oats" transform="translate(70.833333, 377.000000)">
                <path d="M10.3698977,6.56335038 C11.3120358,12.2161786 9.91362812,15.9306989 6.15156144,17.5930075 C5.96212364,17.6767126 5.7406976,17.5909992 5.65699252,17.4015614 C5.57328745,17.2121236 5.65900076,16.9906976 5.84843856,16.9069925 C9.25303855,15.4026344 10.5212976,12.0338214 9.63010228,6.68664962 C9.59605413,6.48236075 9.73406151,6.28915042 9.93835038,6.25510228 C10.1426393,6.22105413 10.3358496,6.35906151 10.3698977,6.56335038 Z M10.3202562,13.5856824 C11.960413,13.0666551 13.1053015,13.7378237 13.5980561,15.4850588 C13.6559291,15.6902678 13.5312873,15.9023758 13.3238529,15.9516812 C11.7144056,16.3342337 10.5876856,15.673716 10.0758694,14.0563469 C10.0133845,13.858891 10.1228002,13.6481673 10.3202562,13.5856824 Z M12.7390776,15.2794758 C12.389544,14.4012425 11.8298265,14.055853 10.9900714,14.1924847 L10.9900714,14.1924847 L10.9302529,14.2030055 L10.944878,14.2366977 C11.3106702,15.0452821 11.8889104,15.3849575 12.7387057,15.2942791 L12.7387057,15.2942791 L12.7447341,15.2936381 Z M5.26104367,14.557443 C5.80520175,12.9254516 7.02113722,12.3937204 8.72431396,13.0220725 C8.92434845,13.0958711 9.02268476,13.3213824 8.94064685,13.5181813 C8.30412889,15.0451103 7.10748943,15.5684034 5.49817239,15.0318057 C5.30169946,14.9662953 5.19553331,14.7539159 5.26104367,14.557443 Z M8.05309889,13.5961621 C7.13714256,13.3627281 6.52872288,13.6125343 6.14566457,14.3722205 L6.14566457,14.3722205 L6.11901566,14.4267986 L6.15486961,14.4347704 C7.02403544,14.6141124 7.63871968,14.3459623 8.06485645,13.6051641 L8.06485645,13.6051641 L8.06788129,13.5999103 Z M10.8617248,11.4302629 C12.3581284,10.5815698 13.6175422,11.0000361 14.4627995,12.6066404 C14.5620732,12.7953327 14.4842548,13.0287201 14.2916046,13.1200761 C12.7968646,13.8288918 11.5574368,13.4170663 10.7205351,11.9414531 C10.6183623,11.7613034 10.681575,11.5324357 10.8617248,11.4302629 Z M13.5798486,12.5841416 C13.0553582,11.7977719 12.4360613,11.5763018 11.6430642,11.8845427 L11.6430642,11.8845427 L11.5867403,11.9072705 L11.6080508,11.9371857 C12.1339637,12.6520482 12.7701905,12.8640779 13.5825626,12.5986987 L13.5825626,12.5986987 L13.588326,12.5968184 Z M5.70685402,11.5785389 C6.44584574,10.0250284 7.71751955,9.64544585 9.33142421,10.4766794 C9.52097389,10.574306 9.59109429,10.8101205 9.48568413,10.9954547 C8.66782485,12.4334301 7.41633157,12.806989 5.88440495,12.0782645 C5.6973802,11.9892985 5.61788795,11.7655637 5.70685402,11.5785389 Z M8.59524835,10.9646893 C7.71456787,10.6213682 7.08023954,10.7951647 6.60745403,11.5025053 L6.60745403,11.5025053 L6.57435236,11.5534289 L6.60896754,11.5657108 C7.44979845,11.8496406 8.0925802,11.6584005 8.6058212,10.9750571 L8.6058212,10.9750571 L8.60946378,10.970211 Z M10.9365058,9.57601012 C12.0523951,8.2666993 13.3789809,8.22918411 14.722754,9.4498033 C14.8805773,9.59316244 14.8872751,9.83909029 14.7374887,9.99082714 C13.5753219,11.1681272 12.2697881,11.2050471 10.9786683,10.1046615 C10.8210424,9.97032133 10.8021656,9.73363603 10.9365058,9.57601012 Z M13.8853565,9.73064832 C13.1235425,9.17108879 12.4658465,9.17478706 11.8260976,9.73565967 L11.8260976,9.73565967 L11.7809438,9.77628074 L11.8112007,9.79710323 C12.5498946,10.2889815 13.2202706,10.2706218 13.8928857,9.74339934 L13.8928857,9.74339934 L13.8976584,9.73966114 Z M5.43650581,8.57601012 C6.55239511,7.2666993 7.87898088,7.22918411 9.222754,8.4498033 C9.3805773,8.59316244 9.38727512,8.83909029 9.23748872,8.99082714 C8.07532188,10.1681272 6.76978806,10.2050471 5.47866833,9.10466153 C5.32104241,8.97032133 5.30216561,8.73363603 5.43650581,8.57601012 Z M8.38535648,8.73064832 C7.62354247,8.17108879 6.96584651,8.17478706 6.32609757,8.73565967 L6.32609757,8.73565967 L6.28094382,8.77628074 L6.31120073,8.79710323 C7.04989456,9.28898145 7.72027064,9.27062183 8.39288567,8.74339934 L8.39288567,8.74339934 L8.39765839,8.73966114 Z M10.9766504,7.67744161 C11.6333249,6.08738428 12.8833901,5.64176766 14.5385863,6.38739677 C14.7329856,6.47496933 14.8153515,6.70679087 14.7197854,6.89738774 C13.9783048,8.37619595 12.7480772,8.81474096 11.1801116,8.16719005 C10.988687,8.08813402 10.8975943,7.86886617 10.9766504,7.67744161 Z M13.8289598,6.91326632 C12.9315183,6.61650705 12.3071551,6.82326354 11.8720368,7.55437839 L11.8720368,7.55437839 L11.8416457,7.6069646 L11.8768562,7.61741806 C12.7313945,7.85695311 13.3632866,7.63233446 13.8400608,6.92306661 L13.8400608,6.92306661 L13.8434448,6.91803651 Z M5.86172475,5.43026286 C7.35812837,4.58156977 8.61754218,5.00003608 9.46279951,6.6066404 C9.56207319,6.79533268 9.4842548,7.02872005 9.29160457,7.12007609 C7.79686463,7.82889181 6.55743679,7.41706626 5.72053513,5.94145313 C5.61836227,5.7613034 5.68157502,5.53243572 5.86172475,5.43026286 Z M8.57984859,6.58414157 C8.05535822,5.79777188 7.4360613,5.57630184 6.64306421,5.88454268 L6.64306421,5.88454268 L6.58674034,5.9072705 L6.60805082,5.93718571 C7.1339637,6.65204822 7.77019052,6.86407794 8.58256261,6.59869874 L8.58256261,6.59869874 L8.58832604,6.59681835 Z M12.9195866,3.33396279 L13.1176506,3.34142654 C13.3305212,3.35351609 13.4904938,3.54042285 13.469579,3.75260817 C13.3073047,5.39891745 12.3159488,6.24920863 10.6200652,6.20657642 C10.4130239,6.20137168 10.2494029,6.02931221 10.2546077,5.82227084 C10.2978405,4.10249334 11.3051822,3.23849108 13.1176506,3.34142654 Z M8.02549825,2.23908265 C8.10277672,2.04036658 8.32996986,1.94598097 8.52530706,2.031441 C10.0408947,2.6945106 10.5432239,3.90010053 9.97862138,5.49980754 C9.90969207,5.69510724 9.69549215,5.79755068 9.50019246,5.72862138 C7.87794655,5.156064 7.36751727,3.93103373 8.02549825,2.23908265 Z M12.6588444,4.08593787 L12.643612,4.08667544 C11.6994291,4.1312411 11.1906308,4.54801667 11.046421,5.38650361 L11.046421,5.38650361 L11.0368937,5.44648828 L11.0735117,5.44362911 C11.9571336,5.3610152 12.4665596,4.92486575 12.6574878,4.09184657 L12.6574878,4.09184657 L12.6588444,4.08593787 Z M8.59175,2.9055 L8.56863682,2.99348611 C8.35170427,3.86491768 8.59790002,4.45535399 9.33043698,4.84090263 L9.33043698,4.84090263 L9.3845,4.8685 L9.39313803,4.83279064 C9.58762172,3.96688714 9.33024023,3.34761665 8.59699197,2.90861607 L8.59699197,2.90861607 L8.59175,2.9055 Z" id="Combined-Shape"></path>
            </g>
        </g>
    </g>
</svg>