<?xml version="1.0" encoding="UTF-8"?>
<svg width="12px" height="17px" viewBox="0 0 12 17" version="1.1" xmlns="http://www.w3.org/2000/svg" xmlns:xlink="http://www.w3.org/1999/xlink">
    <!-- Generator: Sketch 61.1 (89650) - https://sketch.com -->
    <title>onion</title>
    <desc>Created with Sketch.</desc>
    <g id="0.-Onboarding" stroke="none" stroke-width="1" fill="none" fill-rule="evenodd">
        <g id="onboarding-icons-copy" transform="translate(-127.000000, -499.000000)" fill="#333230">
            <g id="icon/food/veg/onion" transform="translate(123.000000, 497.000000)">
                <path d="M12,2 C12.2071068,2 12.375,2.16789322 12.375,2.375 C12.375,2.55991955 12.3940818,2.75218739 12.4316301,2.95169279 C12.5730465,3.70308018 12.9589209,4.51175273 13.5634179,5.43971759 L13.6756149,5.60970864 C13.7707956,5.75208593 13.8713928,5.89812166 13.9864705,6.0617902 L14.4840608,6.76523077 C15.4918678,8.22485655 16,9.49579864 16,10.625 C16,13.4481075 14.050248,15.815826 11.4238637,16.4550359 L11.6185854,16.5192438 C11.8150642,16.5847367 11.9212492,16.7971067 11.8557562,16.9935854 C11.7941158,17.1785066 11.6023698,17.2834444 11.4162191,17.2405483 L11.3814146,17.2307562 L11.085,17.131 L11.2928258,17.3907394 C11.4222044,17.5524626 11.3959839,17.7884472 11.2342606,17.9178258 C11.0826451,18.0391182 10.8657608,18.0236536 10.7326378,17.8879909 L10.7071742,17.8592606 L10.625,17.757 L10.625,17.875 C10.625,18.0821068 10.4011424,18.25 10.125,18.25 C9.86510129,18.25 9.65151711,18.101278 9.62728886,17.911115 L9.625,17.875 L9.625,17.443 L9.2928258,17.8592606 C9.16344722,18.0209839 8.92746258,18.0472044 8.76573936,17.9178258 C8.61412383,17.7965334 8.58160249,17.5815442 8.68473423,17.4218886 L8.7071742,17.3907394 L8.914,17.131 L8.61858541,17.2307562 C8.42210667,17.2962492 8.20973668,17.1900642 8.14424376,16.9935854 C8.08260337,16.8086642 8.17303753,16.6096664 8.34769574,16.5322929 L8.38141459,16.5192438 L8.57613625,16.4550359 C5.94975196,15.815826 4,13.4481075 4,10.625 C4,9.61355608 4.6166264,8.1018584 5.42039212,6.90460845 L5.53894761,6.73194502 L5.91803794,6.19731408 C6.11195513,5.92346875 6.26223071,5.70520874 6.40844594,5.48207958 C7.02463925,4.54174867 7.41680741,3.72995667 7.56402509,2.9741879 C7.60444968,2.7666609 7.625,2.56690432 7.625,2.375 C7.625,2.16789322 7.79289322,2 8,2 C8.20710678,2 8.375,2.16789322 8.375,2.375 C8.375,2.61672341 8.34953374,2.86426464 8.30018866,3.11758664 C8.13050694,3.98867861 7.70061806,4.8785529 7.03575679,5.89315268 L6.92058067,6.06677848 C6.842571,6.18297698 6.7612629,6.30136857 6.67157287,6.42973629 L6.12998185,7.19561398 L6.10683329,7.22902627 C5.34804571,8.3275521 4.75,9.766449 4.75,10.625 C4.75,13.5244949 7.10050506,15.875 10,15.875 C12.8994949,15.875 15.25,13.5244949 15.25,10.625 C15.25,9.70065202 14.8222496,8.60357436 13.9476251,7.30954733 L13.8205096,7.1246216 L13.4451552,6.5955149 L13.3030825,6.39342567 C13.1676445,6.19926557 13.0503201,6.02612443 12.9349939,5.849087 C12.2815977,4.84605687 11.857865,3.95804523 11.6945705,3.09041253 C11.6486697,2.84652784 11.625,2.6080322 11.625,2.375 C11.625,2.16789322 11.7928932,2 12,2 Z M9.74471707,4.47530813 C9.88862969,4.34156396 10.1113703,4.34156396 10.2552829,4.47530813 C12.9927782,7.01937983 14.375,9.09271256 14.375,10.75 C14.375,13.2616372 12.5326852,15.125 10,15.125 C7.46731485,15.125 5.625,13.2616372 5.625,10.75 C5.625,9.14218383 6.92593276,7.14279017 9.50319187,4.70187852 L9.50319187,4.70187852 Z M10,5.26425 L9.90423705,5.35561014 C7.54361681,7.61381045 6.375,9.42776203 6.375,10.75 C6.375,12.8493188 7.88344756,14.375 10,14.375 C12.1165524,14.375 13.625,12.8493188 13.625,10.75 C13.625,9.42776203 12.4563832,7.61381045 10.0957629,5.35561014 L10.0957629,5.35561014 L10,5.26425 Z M9.7413463,6.85347972 C9.88618265,6.71550676 10.1138174,6.71550676 10.2586537,6.85347972 C11.9110324,8.42755683 12.75,9.70808629 12.75,10.75 C12.75,12.3256043 11.5819027,13.5 10,13.5 C8.41809726,13.5 7.25,12.3256043 7.25,10.75 C7.25,9.74976284 8.02319252,8.5296174 9.54696686,7.04096346 L9.54696686,7.04096346 Z M9.99975,7.64725 L9.81542727,7.83223475 C8.59899304,9.06914669 8,10.0549528 8,10.75 C8,11.9122909 8.83321635,12.75 10,12.75 C11.1667836,12.75 12,11.9122909 12,10.75 C12,10.0549528 11.401007,9.06914669 10.1845727,7.83223475 L10.1845727,7.83223475 L9.99975,7.64725 Z M9.70738342,9.39047807 C9.85750108,9.20317398 10.1424989,9.20317398 10.2926166,9.39047807 C10.7617187,9.97578387 11,10.4046903 11,10.75 C11,11.3022847 10.5522847,11.75 10,11.75 C9.44771525,11.75 9,11.3022847 9,10.75 C9,10.4046903 9.23828135,9.97578387 9.70738342,9.39047807 Z M10,10.252 L9.94791969,10.3305445 C9.81542091,10.5351928 9.75,10.680401 9.75,10.75 C9.75,10.8880712 9.86192881,11 10,11 C10.1380712,11 10.25,10.8880712 10.25,10.75 C10.25,10.6750472 10.1741272,10.5124057 10.0203122,10.2822701 L10.0203122,10.2822701 L10,10.252 Z" id="Shape"></path>
            </g>
        </g>
    </g>
</svg>