<?xml version="1.0" encoding="UTF-8"?>
<svg width="19px" height="19px" viewBox="0 0 19 19" version="1.1" xmlns="http://www.w3.org/2000/svg" xmlns:xlink="http://www.w3.org/1999/xlink">
    <!-- Generator: Sketch 61.1 (89650) - https://sketch.com -->
    <title>paleo copy</title>
    <desc>Created with Sketch.</desc>
    <g id="0.-Onboarding" stroke="none" stroke-width="1" fill="none" fill-rule="evenodd">
        <g id="onboarding-icons-copy" transform="translate(-145.000000, -217.000000)" fill="#FFFFFF">
            <g id="icon/diet/paleo" transform="translate(144.800000, 217.000000)">
                <path d="M1.3417355,0.751381819 L1.41425679,0.752060455 C3.06663358,0.925994853 4.21440141,1.27915419 4.86904677,1.84027877 C5.55128797,2.42505695 5.91150688,3.59576841 5.99953213,5.35627339 L5.98996045,5.2089598 L7.75388736,6.97143592 C9.33317898,6.39489371 10.7002183,6.20460613 11.7159774,6.50295926 L14.902,3.3175 L14.8793728,3.275382 C14.4866593,2.52749545 14.5413939,1.86456528 15.0894148,1.37613529 L15.1349309,1.33691702 C16.0786912,0.550450043 17.5526083,1.10859626 17.5636809,2.24567132 L17.5635,2.265 L17.5852031,2.26895642 C18.6390342,2.47464563 19.2418659,3.73195827 18.4281319,4.6009384 L18.390165,4.64016504 C17.8550429,5.17528714 17.257571,5.26744047 16.7009744,4.91662502 L16.64825,4.88175 L13.3752455,8.15603612 C13.693922,9.21776251 13.4794513,10.6603643 12.8456301,12.3232148 C12.8515533,12.3260456 12.8566596,12.3299941 12.8616844,12.3340924 L12.890165,12.359835 L18.640165,18.109835 C18.7866117,18.2562816 18.7866117,18.4937184 18.640165,18.640165 C18.5028713,18.7774587 18.2856057,18.7860396 18.1383156,18.6659076 L18.109835,18.640165 L12.5393727,13.0701136 C12.456396,13.2596941 12.3685513,13.4516521 12.2759898,13.6457741 L12.1671416,13.8703467 C11.0679893,16.1020228 9.51401018,18.2034351 8.59036732,18.686784 C7.73799386,19.4598961 6.15822998,18.911496 3.80860568,16.8197033 L3.80860568,16.8197033 L3.6227477,16.6524775 C1.19015738,14.4410318 0.421216064,12.0484539 1.35983496,11.109835 L1.30496045,11.1699598 L1.31288881,11.1532861 C1.74137388,10.2847362 3.92281387,8.71510569 6.1979759,7.63026022 L6.42764749,7.52243232 C6.61801822,7.43446757 6.80615735,7.35108483 6.99186403,7.27243201 L5.47675899,5.75923518 C4.30063477,5.81200669 3.27408852,5.5371078 2.40995162,4.93221197 C1.4572366,4.26531146 1,2.98504897 1,1.125 C1,0.902362114 1.1928422,0.728753656 1.41425679,0.752060455 Z M3.13682251,11.8861277 C2.46665834,11.570046 2.00196505,11.528365 1.89016504,11.640165 C1.72046355,11.8098665 1.67194466,12.3368276 1.88834948,13.0101759 C2.18780126,13.9419268 2.92229997,15.0021113 4.1272523,16.0975225 C6.36086197,18.1280767 7.64388926,18.5757807 8.10983496,18.109835 C8.2699736,17.9496963 8.3045715,17.5353227 8.10074242,16.949585 C7.82510423,16.1574916 7.16805672,15.1983868 6.10983496,14.140165 C5.02866043,13.0589905 3.99593167,12.291325 3.13682251,11.8861277 Z M8.34333018,7.56263309 L9.51516504,8.73483496 C9.66161165,8.88128157 9.66161165,9.11871843 9.51516504,9.26516504 C9.37787135,9.40245874 9.16060574,9.4110396 9.01331556,9.29090761 L8.98483496,9.26516504 L7.5666069,7.84777524 C7.22824391,7.9830581 6.87900762,8.13642645 6.5207741,8.30723978 L6.31953895,8.40471287 C4.76998378,9.16687194 3.26765311,10.1712697 2.49593844,10.8780224 C3.56246226,11.0780518 5.08548456,12.0551545 6.64016504,13.609835 C8.064667,15.0343369 8.85331701,16.3834468 8.98263482,17.3869507 C9.78051487,16.5147315 10.8314476,14.9327252 11.5990102,13.3229759 L11.7070702,13.0923896 C12.8682065,10.5701608 13.1188209,8.52415103 12.234835,7.64016504 C11.5478453,6.95317537 10.1400936,6.96508574 8.34333018,7.56263309 Z M4.06326309,13.9135869 C4.40685679,13.6246653 4.976903,13.895325 5.54091433,14.4456806 C6.09557766,14.9869145 6.29867607,15.5564216 5.95505445,15.8917235 C5.62137307,16.2173259 5.13455334,16.0515662 4.51249033,15.4997465 C3.89670636,14.9534967 3.6775033,14.2879553 4.03353959,13.9405393 L4.03353959,13.9405393 Z M15.6150691,1.91308298 C15.2829853,2.1898195 15.2829853,2.56093713 15.6870189,3.16698743 C15.7795641,3.30580533 15.768651,3.48757906 15.6640175,3.61396578 L15.640165,3.64016504 L12.4402454,6.84042596 C12.5564309,6.91983171 12.6648684,7.00953831 12.765165,7.10983496 C12.8655462,7.21021607 12.9554615,7.31862694 13.0351891,7.43467506 L16.359835,4.10983496 C16.5062816,3.96338835 16.7437184,3.96338835 16.890165,4.10983496 C17.2437184,4.46338835 17.5062816,4.46338835 17.859835,4.10983496 C18.3195989,3.65007106 17.8690661,2.90991007 17.171513,2.9971042 C16.8977427,3.0313255 16.6819962,2.76815715 16.7692438,2.50641459 C16.9876533,1.851186 16.1638539,1.45576232 15.6150691,1.91308298 Z M5.13840593,4.24902197 L4.49996045,4.2499598 L4.49917543,4.96662361 C4.62385172,4.98488306 4.75126896,4.99804512 4.88145918,5.00610399 L5.14411439,5.01540217 L5.226,5.01525 L5.22009109,4.93918816 C5.19916097,4.69260144 5.17185214,4.46253982 5.13840593,4.24902197 Z M2.84004838,4.31778803 C3.04825303,4.46353129 3.26805635,4.58650514 3.49976317,4.68665433 L3.49996045,4.2499598 L2.75196045,4.2499598 Z M1.75875,1.54825 L1.76570498,1.68206058 C1.80255144,2.3080634 1.90397163,2.83276596 2.0671951,3.25860065 L2.088885,3.25228886 L2.088885,3.25228886 L2.125,3.25 L3.49996045,3.2499598 L3.50073326,1.93668264 C3.12260701,1.80097203 2.66040652,1.68821524 2.11491862,1.60038101 L1.83549992,1.55858624 L1.75875,1.54825 Z M4.50399361,2.53205309 L4.49996045,2.5279598 L4.49996045,3.2499598 L4.89663099,3.24877097 C4.78756451,2.94453328 4.6560567,2.70557862 4.50399361,2.53205309 Z" id="icon"></path>
            </g>
        </g>
    </g>
</svg>