<?xml version="1.0" encoding="UTF-8"?>
<svg width="18px" height="17px" viewBox="0 0 18 17" version="1.1" xmlns="http://www.w3.org/2000/svg" xmlns:xlink="http://www.w3.org/1999/xlink">
    <!-- Generator: Sketch 61.1 (89650) - https://sketch.com -->
    <title>pasta copy</title>
    <desc>Created with Sketch.</desc>
    <g id="0.-Onboarding" stroke="none" stroke-width="1" fill="none" fill-rule="evenodd">
        <g id="onboarding-icons-copy" transform="translate(-125.000000, -378.000000)" fill="#FFFFFF">
            <g id="icon/food/grain/pasta" transform="translate(123.666667, 377.000000)">
                <path d="M13.640165,12.359835 C13.7866117,12.5062816 13.7866117,12.7437184 13.640165,12.890165 L11.640165,14.890165 C11.0878631,15.442467 9.04309196,15.9910641 8.03404914,15.7388034 C7.15952307,15.5201719 6.51015817,15.5201719 6.39016504,15.640165 L6.33747944,15.6947461 C6.11258767,15.9329016 5.46310573,16.6652084 4.40721626,17.8719392 C4.27083549,18.027803 4.03392451,18.043597 3.87806077,17.9072163 C3.72219704,17.7708355 3.70640297,17.5339245 3.84278374,17.3780608 L5.20515831,15.8297468 C5.55290935,15.4384156 5.77007466,15.1995953 5.85983496,15.109835 C6.23984183,14.7298281 7.09047693,14.7298281 8.21595086,15.0111966 C8.97161393,15.2001123 10.7454703,14.7241997 11.109835,14.359835 L13.109835,12.359835 C13.2562816,12.2133883 13.4937184,12.2133883 13.640165,12.359835 Z M7.98668444,5.20909239 L8.01516504,5.23483496 L14.752,11.97175 L14.7948072,12.007438 C15.2327551,12.384574 15.5375074,12.9493232 15.7173234,13.6913655 L15.7804564,13.9655024 C16.1248926,15.4210205 16.5566722,16 17.625,16 C17.8321068,16 18,16.1678932 18,16.375 C18,16.5821068 17.8321068,16.75 17.625,16.75 C16.7501615,16.75 16.1084872,16.3987185 15.6739055,15.7571931 C15.3761124,15.3175938 15.2105867,14.8407461 15.0332053,14.0641334 L15.0089299,13.9563489 C14.8665087,13.3154539 14.6317862,12.861617 14.3140252,12.5832641 L14.2657394,12.5428258 L14.234835,12.515165 L7.48483496,5.76516504 C7.33838835,5.61871843 7.33838835,5.38128157 7.48483496,5.23483496 C7.62212865,5.09754126 7.83939426,5.0889604 7.98668444,5.20909239 Z M7.6537353,6.37413823 C7.79228244,6.52807948 7.77980303,6.76518817 7.62586177,6.9037353 C6.80368368,7.64369559 6.14805355,8.29932571 5.65972123,8.86904677 C4.99253192,9.64743429 4.76286867,10.652211 4.99271775,11.8014564 L5.05803392,12.1339694 C5.2591451,13.1841683 5.23284908,13.3892672 4.93701886,13.8330126 L4.90962695,13.8720651 C4.68138417,14.1838871 3.9392957,14.9224973 2.63147792,16.1485765 C2.48038582,16.2902253 2.24307239,16.28257 2.10142355,16.1314779 C1.9597747,15.9803858 1.96742997,15.7430724 2.11852208,15.6014235 L2.73466604,15.0197755 C3.63367812,14.1643508 4.16688906,13.6227005 4.30305653,13.4313644 L4.33579496,13.3823225 C4.48781215,13.1471568 4.47778911,13.0510779 4.25728225,11.9485436 C3.983798,10.5811223 4.26720834,9.34120207 5.09027877,8.38095323 C5.60194645,7.78400762 6.27964966,7.10630441 7.12413823,6.3462647 C7.27807948,6.20771756 7.51518817,6.22019697 7.6537353,6.37413823 Z M11.4300562,9.98483496 C11.5765029,10.1312816 11.5765029,10.3687184 11.4300562,10.515165 L10.9300562,11.015165 C10.8547479,11.0904733 10.8590638,11.1638425 10.9300562,11.234835 C10.9945949,11.2993736 11.0610977,11.3088075 11.1292359,11.2534092 L11.1590535,11.2255076 L11.6497262,10.734835 C11.7961728,10.5883883 12.0336096,10.5883883 12.1800562,10.734835 C12.3265029,10.8812816 12.3265029,11.1187184 12.1800562,11.265165 L11.6800562,11.765165 C11.2970312,12.1481901 10.7506087,12.1160476 10.3997262,11.765165 C10.0488436,11.4142825 10.0167011,10.86786 10.3997262,10.484835 L10.8997262,9.98483496 C11.0461728,9.83838835 11.2836096,9.83838835 11.4300562,9.98483496 Z M8.86168444,4.33409239 L8.89016504,4.35983496 L15.640165,11.109835 C15.7866117,11.2562816 15.7866117,11.4937184 15.640165,11.640165 C15.5028713,11.7774587 15.2856057,11.7860396 15.1383156,11.6659076 L15.109835,11.640165 L8.35983496,4.89016504 C8.21338835,4.74371843 8.21338835,4.50628157 8.35983496,4.35983496 C8.49712865,4.22254126 8.71439426,4.2139604 8.86168444,4.33409239 Z M9.86168444,3.33409239 L9.89016504,3.35983496 L16.640165,10.109835 C16.7866117,10.2562816 16.7866117,10.4937184 16.640165,10.640165 C16.5028713,10.7774587 16.2856057,10.7860396 16.1383156,10.6659076 L16.109835,10.640165 L9.35983496,3.89016504 C9.21338835,3.74371843 9.21338835,3.50628157 9.35983496,3.35983496 C9.49712865,3.22254126 9.71439426,3.2139604 9.86168444,3.33409239 Z M10.8616844,2.58409239 L10.890165,2.60983496 L17.390165,9.10983496 C17.5366117,9.25628157 17.5366117,9.49371843 17.390165,9.64016504 C17.2528713,9.77745874 17.0356057,9.7860396 16.8883156,9.66590761 L16.859835,9.64016504 L10.359835,3.14016504 C10.2133883,2.99371843 10.2133883,2.75628157 10.359835,2.60983496 C10.4971287,2.47254126 10.7143943,2.4639604 10.8616844,2.58409239 Z M9.14016504,7.60983496 C9.28661165,7.75628157 9.28661165,7.99371843 9.14016504,8.14016504 L8.64016504,8.64016504 C8.56485674,8.71547334 8.56917257,8.78884249 8.64016504,8.85983496 C8.71115751,8.93082743 8.78452666,8.93514326 8.85983496,8.85983496 L9.35983496,8.35983496 C9.50628157,8.21338835 9.74371843,8.21338835 9.89016504,8.35983496 C10.0366117,8.50628157 10.0366117,8.74371843 9.89016504,8.89016504 L9.39016504,9.39016504 C9.00714001,9.77319008 8.46071749,9.74104757 8.10983496,9.39016504 C7.77105182,9.05138191 7.72940565,8.53031179 8.0716887,8.15002639 L8.10983496,8.10983496 C8.19316829,8.02650162 8.19316829,8.02650162 8.60983496,7.60983496 C8.75628157,7.46338835 8.99371843,7.46338835 9.14016504,7.60983496 Z M17.4250243,6.09718871 L17.4658446,6.1292299 L18.1944554,6.73640556 C18.5656977,7.04577413 18.6158562,7.59751824 18.3064877,7.96876053 L18.2804138,7.99864518 L18.2530125,8.02731761 L17.890165,8.39016504 C17.7437184,8.53661165 17.5062816,8.53661165 17.359835,8.39016504 C17.2225413,8.25287135 17.2139604,8.03560574 17.3340924,7.88831556 L17.359835,7.85983496 L17.7303217,7.48862223 C17.7696066,7.44148035 17.76831,7.37396437 17.7302889,7.32850289 L17.7143171,7.31257152 L16.9857063,6.70539586 C16.9422487,6.66918121 16.8809023,6.6671907 16.8356194,6.69788423 L16.8172949,6.71303517 L16.390165,7.14016504 C16.2437184,7.28661165 16.0062816,7.28661165 15.859835,7.14016504 C15.7225413,7.00287135 15.7139604,6.78560574 15.8340924,6.63831556 L15.859835,6.60983496 L16.2869648,6.18270509 C16.5946602,5.87500975 17.0791425,5.84173552 17.4250243,6.09718871 Z M15.3313137,4.05308425 L15.3687184,4.08838835 L15.9116117,4.63128157 C16.2411165,4.96078644 16.2528846,5.48770767 15.9469157,5.83131371 L15.9116117,5.86871843 L15.515165,6.26516504 C15.3687184,6.41161165 15.1312816,6.41161165 14.984835,6.26516504 C14.8475413,6.12787135 14.8389604,5.91060574 14.9590924,5.76331556 L14.984835,5.73483496 L15.3812816,5.33838835 C15.4246732,5.29499676 15.4294944,5.22764066 15.3957454,5.17892362 L15.3812816,5.16161165 L14.8383883,4.61871843 C14.7949968,4.57532685 14.7276407,4.57050556 14.6789236,4.60425457 L14.6616117,4.61871843 L14.265165,5.01516504 C14.1187184,5.16161165 13.8812816,5.16161165 13.734835,5.01516504 C13.5975413,4.87787135 13.5889604,4.66060574 13.7090924,4.51331556 L13.734835,4.48483496 L14.1312816,4.08838835 C14.4607864,3.75888348 14.9877077,3.74711545 15.3313137,4.05308425 Z M12.9250243,1.84718871 L12.9658446,1.8792299 L13.6944554,2.48640556 C14.0656977,2.79577413 14.1158562,3.34751824 13.8064877,3.71876053 L13.7804138,3.74864518 L13.7530125,3.77731761 L13.390165,4.14016504 C13.2437184,4.28661165 13.0062816,4.28661165 12.859835,4.14016504 C12.7225413,4.00287135 12.7139604,3.78560574 12.8340924,3.63831556 L12.859835,3.60983496 L13.2303217,3.23862223 C13.2696066,3.19148035 13.26831,3.12396437 13.2302889,3.07850289 L13.2143171,3.06257152 L12.4857063,2.45539586 C12.4422487,2.41918121 12.3809023,2.4171907 12.3356194,2.44788423 L12.3172949,2.46303517 L11.890165,2.89016504 C11.7437184,3.03661165 11.5062816,3.03661165 11.359835,2.89016504 C11.2225413,2.75287135 11.2139604,2.53560574 11.3340924,2.38831556 L11.359835,2.35983496 L11.7869648,1.93270509 C12.0946602,1.62500975 12.5791425,1.59173552 12.9250243,1.84718871 Z" id="icon"></path>
            </g>
        </g>
    </g>
</svg>