<?xml version="1.0" encoding="UTF-8"?>
<svg width="17px" height="20px" viewBox="0 0 17 20" version="1.1" xmlns="http://www.w3.org/2000/svg" xmlns:xlink="http://www.w3.org/1999/xlink">
    <!-- Generator: Sketch 61.1 (89650) - https://sketch.com -->
    <title>pescetarian copy</title>
    <desc>Created with Sketch.</desc>
    <g id="0.-Onboarding" stroke="none" stroke-width="1" fill="none" fill-rule="evenodd">
        <g id="onboarding-icons-copy" transform="translate(-210.000000, -217.000000)" fill="#FFFFFF">
            <g id="icon/diet/pescetarian" transform="translate(208.200000, 217.000000)">
                <path d="M11.9563489,1.00892985 C14.7890626,1.63842177 16.7191541,3.07236189 17.7084898,5.30218064 C17.7526399,5.40168866 17.7778334,5.50856169 17.7827766,5.61731207 C17.8039884,6.08397025 17.4556269,6.48183911 16.9963122,6.52766773 L16.9484117,6.53114121 L12.1420279,6.7496132 C11.9351347,6.75901744 11.759791,6.59892103 11.7503868,6.39202787 C11.7415358,6.1973049 11.8828306,6.03052887 12.0719723,6.00374157 L12.1079721,6.0003868 L16.9143548,5.78191486 C16.9833195,5.77877989 17.036685,5.7203319 17.0335502,5.65136782 C17.0328441,5.63583214 17.029245,5.62056465 17.0229379,5.6063493 C16.13588,3.60704992 14.4054957,2.32148006 11.7936511,1.74107015 C9.03126409,1.12720637 6.1153426,1.60913384 3.03502141,3.19812615 L2.96775,3.233 L4.40721626,4.87806077 L4.41516213,4.88728716 C4.42676654,4.90145503 4.43724142,4.91637691 4.44654937,4.93190841 L4.40721626,4.87806077 C4.42723301,4.90093705 4.44397164,4.92555924 4.45747044,4.95135322 C4.46552244,4.96683708 4.47265429,4.9832516 4.47858632,5.00006788 C4.4812381,5.0072988 4.48360035,5.01472194 4.48572449,5.02219438 C4.49487252,5.05475804 4.49971794,5.08811577 4.50004231,5.12173744 C4.5001374,5.13781406 4.49921926,5.15417532 4.49724287,5.17041872 C4.4904418,5.22266848 4.47447716,5.27050444 4.44822533,5.31513255 C2.85241106,8.0280168 2.6977701,10.1156697 3.9178258,11.6407394 C5.19829954,13.2413315 7.04544509,14.365681 9.47162349,15.0126619 C9.55534913,15.0349887 9.62837306,15.0855009 9.67874889,15.1550853 L9.69891709,15.1860484 L11.5320872,18.3286258 C11.5525206,18.3636544 11.588677,18.3865938 11.6290729,18.3901581 C11.6902003,18.3955517 11.7449265,18.3559899 11.7605948,18.2988335 L11.7645758,18.2766286 L11.8770929,17.0014353 C11.9633574,16.0237703 12.5420023,15.1597339 13.4082986,14.7066514 L13.4832523,14.6688292 L14.8839587,13.9874044 C14.9269748,13.9664776 14.9542755,13.9228363 14.9542755,13.875 C14.9542755,13.813635 14.9100567,13.7625979 14.8517444,13.7520139 L14.8292755,13.75 L9.875,13.75 C9.00321333,13.75 7.49729982,12.567579 6.74168747,11.319176 C5.75969998,9.69676189 6.18346872,8.27041834 8.28664999,7.76055621 C11.0735395,7.08494664 14.2753748,6.83217017 17.892423,7.00040497 C18.0993061,7.01002744 18.2592175,7.1855399 18.249595,7.39242302 C18.2399726,7.59930615 18.0644601,7.7592175 17.857577,7.74959503 C14.3079585,7.5844965 11.1764605,7.83172002 8.46335001,8.48944379 C6.89541794,8.86954853 6.64528206,9.7114693 7.38331253,10.930824 C8.00305603,11.954748 9.2612024,12.9545662 9.83682607,12.9984969 L9.875,13 L14.8292755,13 C15.3125247,13 15.7042755,13.3917508 15.7042755,13.875 C15.7042755,14.1922303 15.5327576,14.4831054 15.2586761,14.6373987 L15.212058,14.6618307 L13.8113515,15.3432555 C13.1627475,15.6587926 12.7200582,16.2808242 12.6320258,16.9933339 L12.6241903,17.0673557 L12.5116732,18.342549 C12.4691986,18.8239279 12.0445314,19.1797301 11.5631525,19.1372555 C11.2980549,19.1138645 11.0590394,18.9712716 10.912342,18.7515 L10.8842531,18.706529 L9.1285,15.6965 L9.11488819,15.6928186 C6.6745379,15.0143789 4.7731152,13.8568187 3.42146932,12.2191498 L3.3321742,12.1092606 C1.92434108,10.3494692 2.05584343,8.01754653 3.66540849,5.17123633 L2.09278374,3.37193923 C1.93507639,3.19170226 1.98443276,2.91183528 2.19428047,2.79641903 C5.60338188,0.92141326 8.861618,0.321211869 11.9563489,1.00892985 Z M7.50667129,3.02387656 L9.50667129,3.77387656 C9.70059141,3.8465966 9.79884349,4.06275117 9.72612344,4.25667129 C9.6534034,4.45059141 9.43724883,4.54884349 9.24332871,4.47612344 L7.51425,3.82775 L7.4940083,3.85838679 C6.86027573,4.83442539 6.91719194,5.64723917 7.65977799,6.39626292 L7.6925,6.4285 L9.59032611,5.53569299 C9.76669702,5.45269491 9.97496364,5.51905374 10.0723761,5.68337952 L10.089307,5.71532611 C10.1723051,5.89169702 10.1059463,6.09996364 9.94162048,6.1973761 L9.90967389,6.21430701 L7.78467389,7.21430701 C7.65108828,7.27717083 7.49304835,7.25580276 7.38095323,7.15972123 C6.05929268,6.02686932 5.95999315,4.63667581 7.075,3.15 C7.17492198,3.0167707 7.35073818,2.96540164 7.50667129,3.02387656 Z M13.875,3.25 C14.4963203,3.25 15,3.75367966 15,4.375 C15,4.99632034 14.4963203,5.5 13.875,5.5 C13.2536797,5.5 12.75,4.99632034 12.75,4.375 C12.75,3.75367966 13.2536797,3.25 13.875,3.25 Z M13.875,4 C13.6678932,4 13.5,4.16789322 13.5,4.375 C13.5,4.58210678 13.6678932,4.75 13.875,4.75 C14.0821068,4.75 14.25,4.58210678 14.25,4.375 C14.25,4.16789322 14.0821068,4 13.875,4 Z" id="icon"></path>
            </g>
        </g>
    </g>
</svg>