<?xml version="1.0" encoding="UTF-8"?>
<svg width="60px" height="60px" viewBox="0 0 60 60" version="1.1" xmlns="http://www.w3.org/2000/svg" xmlns:xlink="http://www.w3.org/1999/xlink">
    <!-- Generator: Sketch 61.1 (89650) - https://sketch.com -->
    <title>photo-selected</title>
    <desc>Created with Sketch.</desc>
    <g id="0.-Onboarding" stroke="none" stroke-width="1" fill="none" fill-rule="evenodd">
        <g id="onboarding-icons" transform="translate(-266.000000, -85.000000)">
            <g id="photo-selected" transform="translate(266.000000, 85.000000)">
                <circle id="Oval" fill="#FAF9F7" cx="30" cy="30" r="30"></circle>
                <circle id="Oval-Copy" fill="#334D7E" cx="30" cy="30" r="30"></circle>
                <g id="icon/measurements/photo" transform="translate(12.000000, 12.000000)" fill="#FFFFFF">
                    <path d="M20.7540879,5.4 C21.3452358,5.4 21.9068685,5.65831453 22.2915825,6.10714747 L22.2915825,6.10714747 L24.1834139,8.31428418 C24.3116519,8.46389516 24.4988628,8.55 24.6959121,8.55 L24.6959121,8.55 L29.475,8.55 C30.8419048,8.55 31.95,9.65809524 31.95,11.025 L31.95,11.025 L31.95,27.675 C31.95,29.0419048 30.8419048,30.15 29.475,30.15 L29.475,30.15 L6.525,30.15 C5.15809524,30.15 4.05,29.0419048 4.05,27.675 L4.05,27.675 L4.05,11.025 C4.05,9.65809524 5.15809524,8.55 6.525,8.55 L6.525,8.55 L11.3040879,8.55 C11.5011372,8.55 11.6883481,8.46389516 11.8165861,8.31428418 L11.8165861,8.31428418 L13.7084175,6.10714747 C14.0931315,5.65831453 14.6547642,5.4 15.2459121,5.4 L15.2459121,5.4 Z M20.7540879,6.75 L15.2459121,6.75 C15.0488628,6.75 14.8616519,6.83610484 14.7334139,6.98571582 L14.7334139,6.98571582 L12.8415825,9.19285253 C12.4568685,9.64168547 11.8952358,9.9 11.3040879,9.9 L11.3040879,9.9 L6.525,9.9 C5.90367966,9.9 5.4,10.4036797 5.4,11.025 L5.4,11.025 L5.4,27.675 C5.4,28.2963203 5.90367966,28.8 6.525,28.8 L6.525,28.8 L29.475,28.8 C30.0963203,28.8 30.6,28.2963203 30.6,27.675 L30.6,27.675 L30.6,11.025 C30.6,10.4036797 30.0963203,9.9 29.475,9.9 L29.475,9.9 L24.6959121,9.9 C24.1047642,9.9 23.5431315,9.64168547 23.1584175,9.19285253 L23.1584175,9.19285253 L21.2665861,6.98571582 C21.1383481,6.83610484 20.9511372,6.75 20.7540879,6.75 L20.7540879,6.75 Z M18,12.6 C21.603658,12.6 24.525,15.521342 24.525,19.125 C24.525,22.728658 21.603658,25.65 18,25.65 C14.396342,25.65 11.475,22.728658 11.475,19.125 C11.475,15.521342 14.396342,12.6 18,12.6 Z M18,13.95 C15.1419264,13.95 12.825,16.2669264 12.825,19.125 C12.825,21.9830736 15.1419264,24.3 18,24.3 C20.8580736,24.3 23.175,21.9830736 23.175,19.125 C23.175,16.2669264 20.8580736,13.95 18,13.95 Z" id="Shape"></path>
                </g>
            </g>
        </g>
    </g>
</svg>