<?xml version="1.0" encoding="UTF-8"?>
<svg width="19px" height="16px" viewBox="0 0 19 16" version="1.1" xmlns="http://www.w3.org/2000/svg" xmlns:xlink="http://www.w3.org/1999/xlink">
    <!-- Generator: Sketch 61.1 (89650) - https://sketch.com -->
    <title>pork copy</title>
    <desc>Created with Sketch.</desc>
    <g id="0.-Onboarding" stroke="none" stroke-width="1" fill="none" fill-rule="evenodd">
        <g id="onboarding-icons-copy" transform="translate(-200.000000, -298.000000)" fill="#FFFFFF">
            <g id="icon/food/protein/pork" transform="translate(199.142857, 297.000000)">
                <path d="M18.7206133,4.97947862 C19.4089525,6.6142843 18.8193888,7.83750635 17.076428,8.53134206 L16.98425,8.56675 L17.0026807,8.59445505 C17.2413059,8.9641644 17.4002871,9.33886441 17.4773421,9.71837313 L17.4948977,9.81335038 C17.5282955,10.0137372 17.700656,10.1473383 18.1028209,10.2126888 L18.1880988,10.2256199 C18.191948,10.226287 18.1965623,10.2271171 18.2034837,10.2283624 C18.6783974,10.317753 18.9909248,10.7752134 18.9015284,11.2501208 C18.8244543,11.6595997 18.7274605,12.0689088 18.6105715,12.4780204 C18.5855349,12.5656484 18.5294445,12.6411603 18.4527841,12.6904419 C17.3112732,13.4242704 15.7064997,13.8490013 13.6375686,13.9753837 L13.4985,13.983 L13.4978485,14.05732 C13.4766002,16.069734 13.2914951,16.9693109 12.6581599,16.9992269 L12.625,17.0000941 C12.2225062,17.0000941 11.9522978,16.6300224 11.5315741,15.8126163 L11.4477493,15.6469147 C11.4192808,15.5897205 11.3902221,15.5304535 11.3603831,15.4687761 L11.179932,15.086721 C11.0504588,14.8074714 10.8574974,14.3869288 10.8247683,14.3171806 L10.7513863,14.1636305 C10.736319,14.132696 10.722153,14.1039901 10.709038,14.0777198 L10.6835,14.027 L10.5882114,14.0382981 C9.26011859,14.185177 8.18251099,14.0928237 6.98487158,13.818299 L6.83451468,13.7830387 C6.67661168,13.7451919 6.19470792,13.6233135 6.12420941,13.6061703 L5.97678358,13.571341 C5.95377092,13.5660921 5.93149273,13.5611138 5.90988195,13.5563952 L5.79125,13.53175 L5.78083194,13.548039 C5.45756853,14.0520612 5.08545806,15.0313725 4.68340634,16.4646921 L4.61178643,16.723669 C4.55729303,16.9234782 4.3511401,17.0412798 4.15133097,16.9867864 C3.95152184,16.932293 3.83372017,16.7261401 3.88821357,16.526331 L3.95966358,16.2677909 C4.44609046,14.5313408 4.89577096,13.4143061 5.33691702,12.8849309 C5.41868519,12.7868091 5.54477338,12.7370533 5.67151303,12.7528958 C5.81027718,12.7702413 5.9561126,12.797474 6.13706619,12.8386286 L6.37515238,12.8957189 C6.53614724,12.9359743 6.8839956,13.0236562 7.00932642,13.053696 C8.28462516,13.3593646 9.38193193,13.4501297 10.8243325,13.2534387 C10.9404517,13.2376043 11.0572965,13.2769664 11.140165,13.359835 C11.2344726,13.4541425 11.3189415,13.6077595 11.4738438,13.9351325 L11.9169924,14.8930203 L11.9464097,14.9556842 C12.0225944,15.116871 12.0925569,15.2607315 12.1589773,15.3920554 L12.1984259,15.4693837 C12.3292615,15.7235785 12.4450604,15.9249214 12.5450797,16.0696779 L12.56825,16.10225 L12.5717397,16.0906214 C12.5882091,16.0295217 12.6041411,15.9579583 12.6190859,15.8763927 L12.6301023,15.8133504 L12.6498973,15.6835094 C12.716107,15.2087447 12.75,14.5207777 12.75,13.625 C12.75,13.4232941 12.909553,13.2577224 13.1111206,13.2502569 C15.1903404,13.1732488 16.7795815,12.8071349 17.8778803,12.1634908 L17.9275,12.1335 L17.9535109,12.0397718 C18.015324,11.8075872 18.0703301,11.5754714 18.1185346,11.3434171 L18.1644722,11.1113832 C18.1758239,11.0510784 18.1418093,10.9927429 18.0864602,10.971555 L18.0647512,10.9654196 L18.0588028,10.9644478 C17.3463076,10.8656201 16.883946,10.5427103 16.7660642,9.99419719 L16.7551023,9.93664962 C16.6835128,9.50711297 16.4633518,9.06679087 16.086917,8.61506915 C15.9139424,8.40749962 16.0106128,8.09065459 16.27,8.015 C17.7849533,7.57313861 18.4006819,6.8932047 18.2176334,5.88015843 L18.20775,5.83025 L18.1317587,5.89019776 C17.9207373,6.05084818 17.6800653,6.19373383 17.4106138,6.3238068 L17.3082221,6.37199324 L17.2300665,6.40647107 C16.8044663,6.58821727 15.8866793,6.90124101 15.8330126,6.93701886 C15.4762794,7.17484096 14.927208,8.03766746 14.9888034,8.28404914 C15.0390342,8.48497223 14.9168739,8.68857266 14.7159509,8.73880344 C14.5150278,8.78903421 14.3114273,8.66687395 14.2611966,8.46595086 C14.1048433,7.84053767 14.8263522,6.70673799 15.4169874,6.31298114 C15.5716806,6.20985237 16.696091,5.82769983 16.9954111,5.69034138 C17.4795845,5.46815352 17.8409348,5.21208692 18.075,4.9 C18.2487229,4.66836951 18.608256,4.71263006 18.7206133,4.97947862 Z M7.46767933,14.2226981 C7.79313227,14.9549672 8.07590976,15.5003238 8.31201886,15.8544874 C8.39685058,15.981735 8.47370009,16.0811916 8.54020078,16.1519919 L8.56,16.17225 L8.56626894,16.134467 C8.6018477,15.8854157 8.58250261,15.4791687 8.50376894,14.928033 C8.47447962,14.7230078 8.61694174,14.5330583 8.82196699,14.5037689 C9.02699224,14.4744796 9.21694174,14.6169417 9.24623106,14.821967 C9.44883954,16.2402264 9.34030045,17 8.625,17 C8.05644378,17 7.53100522,16.2118422 6.78232067,14.5273019 C6.69820664,14.3380454 6.78344151,14.1164347 6.97269808,14.0323207 C7.16195464,13.9482066 7.3835653,14.0334415 7.46767933,14.2226981 Z M16.1198977,14.3133504 L16.1485966,14.492666 C16.3962979,16.1100143 16.2183749,17 15.375,17 C14.6153284,17 14.1630023,16.1958646 13.8814229,14.6941082 C13.8432555,14.4905487 13.9773323,14.2945903 14.1808918,14.2564229 C14.3844513,14.2182555 14.5804097,14.3523323 14.6185771,14.5558918 L14.6527871,14.7301076 C14.8673776,15.7736871 15.1469961,16.25 15.375,16.25 L15.3883518,16.247788 C15.4168512,16.2374635 15.442931,16.1863781 15.4738523,16.0008504 C15.528103,15.675346 15.4988787,15.149308 15.3801023,14.4366496 C15.3460541,14.2323607 15.4840615,14.0391504 15.6883504,14.0051023 C15.8926393,13.9710541 16.0858496,14.1090615 16.1198977,14.3133504 Z M9.625,3 C11.6360907,3 13.5541671,3.7846676 15.3690468,5.34027877 C15.526294,5.47506208 15.5445045,5.71179957 15.4097212,5.86904677 C15.2749379,6.02629396 15.0382004,6.04450453 14.8809532,5.90972123 C13.1958329,4.4653324 11.4472426,3.75 9.625,3.75 C6.49130529,3.75 3.72034776,5.16927093 2.98234717,7.48870137 C2.4273534,9.23296749 2.67030308,11.7434475 3.73163778,15.0090927 C3.7956516,15.2060583 3.68787288,15.417624 3.49090728,15.4816378 C3.29394167,15.5456516 3.08237605,15.4378729 3.01836222,15.2409073 C1.91303025,11.8398858 1.65597993,9.18369918 2.26765283,7.26129863 C3.12203634,4.57609331 6.1991709,3 9.625,3 Z M15.625,9.625 C16.0392136,9.625 16.375,9.96078644 16.375,10.375 C16.375,10.7892136 16.0392136,11.125 15.625,11.125 C15.2107864,11.125 14.875,10.7892136 14.875,10.375 C14.875,9.96078644 15.2107864,9.625 15.625,9.625 Z M3.78027849,2.34461356 C4.20959072,2.82758982 4.18053248,3.51045851 3.59296432,3.93015005 C3.34700469,4.10583551 3.08232759,4.20176172 2.80119865,4.22148285 L2.72625,4.22475 C2.78270037,4.43560619 2.85370422,4.65879929 2.9421408,4.90143081 L2.97612344,4.99332871 C3.04884349,5.18724883 2.95059141,5.4034034 2.75667129,5.47612344 C2.56275117,5.54884349 2.3465966,5.45059141 2.27387656,5.25667129 C2.1156935,4.8348498 1.99921258,4.45098886 1.92695501,4.10494524 L1.9175,4.058 L1.88145223,4.04326604 C1.5850847,3.91655605 1.2760338,3.72466566 0.956229266,3.47062211 L0.887535829,3.41523399 C0.727244024,3.28408615 0.703618172,3.04782763 0.834766013,2.88753583 C0.965913853,2.72724402 1.20217237,2.70361817 1.36246417,2.83476601 C1.52256096,2.96575429 1.67371155,3.07567228 1.81642863,3.16532424 L1.845,3.183 L1.84537358,3.18012315 C1.87128023,2.80551242 1.98680368,2.50312894 2.19863657,2.27259251 L2.23483496,2.23483496 C2.69108936,1.77858056 3.36881047,1.88171203 3.78027849,2.34461356 Z M2.76516504,2.76516504 C2.63734343,2.89298666 2.57607044,3.12044832 2.5916272,3.44696595 L2.59275,3.46775 L2.62276405,3.4703968 C2.80949696,3.48152336 2.97467415,3.43815726 3.12087839,3.34435022 L3.15703568,3.31984995 C3.36080764,3.17429854 3.36782044,3.00949774 3.21972151,2.84288644 C3.07113367,2.67572512 2.8832031,2.64712699 2.76516504,2.76516504 Z" id="icon"></path>
            </g>
        </g>
    </g>
</svg>