<?xml version="1.0" encoding="UTF-8"?>
<svg width="17px" height="16px" viewBox="0 0 17 16" version="1.1" xmlns="http://www.w3.org/2000/svg" xmlns:xlink="http://www.w3.org/1999/xlink">
    <!-- Generator: Sketch 61.1 (89650) - https://sketch.com -->
    <title>potato</title>
    <desc>Created with Sketch.</desc>
    <g id="0.-Onboarding" stroke="none" stroke-width="1" fill="none" fill-rule="evenodd">
        <g id="onboarding-icons-copy" transform="translate(-178.000000, -339.000000)" fill="#333230">
            <g id="icon/food/grain/potato" transform="translate(176.500000, 337.000000)">
                <path d="M12.6062734,2.00046787 C14.0331603,1.92912353 15.702142,2.88145313 16.7897444,4.40734309 C18.0316434,6.14970884 18.3905037,8.38934304 17.6057562,10.7435854 C16.0513172,15.4069025 12.5346508,18 8.5,18 C5.23033094,18 3.95355585,17.2434306 2.52342416,14.7369626 L2.52342416,14.7369626 L2.42219102,14.5571161 C1.73649914,13.3228707 1.73235789,12.2171545 2.40569634,10.9913332 C2.95543485,9.9905272 3.91840779,8.91895173 5.78693283,7.16165282 L5.78693283,7.16165282 L6.22926838,6.74733541 C7.3465365,5.68814702 9.54118774,3.35621586 10.0891366,2.88917614 L10.0891366,2.88917614 L10.1390775,2.84823161 C10.8447306,2.299252 11.5501644,2.05327332 12.6062734,2.00046787 Z M12.827598,2.74768773 L12.6437266,2.74953213 C11.7365391,2.7948915 11.1793145,2.98919091 10.5996052,3.44018955 C10.2051178,3.74709038 7.92693042,6.17276107 6.74016245,7.29648473 L6.74016245,7.29648473 L6.29060358,7.71772288 C2.71774214,11.0829507 2.06807176,12.3753569 3.07780898,14.1928839 L3.07780898,14.1928839 L3.12567476,14.2785329 C4.4144669,16.5707099 5.42175668,17.2189885 8.28451781,17.2488999 L8.28451781,17.2488999 L8.5,17.25 C12.2084999,17.25 15.4408703,14.866535 16.8942438,10.5064146 C17.6022848,8.38229158 17.2833922,6.39209489 16.1790056,4.84265691 C15.2303085,3.511649 13.7938945,2.69202373 12.6437266,2.74953213 Z M9.375,14.5 C9.58210678,14.5 9.75,14.6678932 9.75,14.875 C9.75,15.0821068 9.58210678,15.25 9.375,15.25 C9.16789322,15.25 9,15.0821068 9,14.875 C9,14.6678932 9.16789322,14.5 9.375,14.5 Z M6.625,13 C6.83210678,13 7,13.1678932 7,13.375 C7,13.5821068 6.83210678,13.75 6.625,13.75 C6.41789322,13.75 6.25,13.5821068 6.25,13.375 C6.25,13.1678932 6.41789322,13 6.625,13 Z M8.875,12 C9.08210678,12 9.25,12.1678932 9.25,12.375 C9.25,12.5821068 9.08210678,12.75 8.875,12.75 C8.66789322,12.75 8.5,12.5821068 8.5,12.375 C8.5,12.1678932 8.66789322,12 8.875,12 Z M14.875,10.25 C15.0821068,10.25 15.25,10.4178932 15.25,10.625 C15.25,10.8321068 15.0821068,11 14.875,11 C14.6678932,11 14.5,10.8321068 14.5,10.625 C14.5,10.4178932 14.6678932,10.25 14.875,10.25 Z M11.125,6.75 C11.3321068,6.75 11.5,6.91789322 11.5,7.125 C11.5,7.33210678 11.3321068,7.5 11.125,7.5 C10.9178932,7.5 10.75,7.33210678 10.75,7.125 C10.75,6.91789322 10.9178932,6.75 11.125,6.75 Z M13.625,5.75 C13.8321068,5.75 14,5.91789322 14,6.125 C14,6.33210678 13.8321068,6.5 13.625,6.5 C13.4178932,6.5 13.25,6.33210678 13.25,6.125 C13.25,5.91789322 13.4178932,5.75 13.625,5.75 Z" id="icon"></path>
            </g>
        </g>
    </g>
</svg>