<?xml version="1.0" encoding="UTF-8"?>
<svg width="46px" height="46px" viewBox="0 0 46 46" version="1.1" xmlns="http://www.w3.org/2000/svg" xmlns:xlink="http://www.w3.org/1999/xlink">
    <!-- Generator: Sketch 61.1 (89650) - https://sketch.com -->
    <title>profile pic default</title>
    <desc>Created with Sketch.</desc>
    <defs>
        <rect id="path-1" x="0" y="0" width="40" height="40"></rect>
        <filter x="-13.8%" y="-8.8%" width="127.5%" height="127.5%" filterUnits="objectBoundingBox" id="filter-2">
            <feOffset dx="0" dy="2" in="SourceAlpha" result="shadowOffsetOuter1"></feOffset>
            <feGaussianBlur stdDeviation="1.5" in="shadowOffsetOuter1" result="shadowBlurOuter1"></feGaussianBlur>
            <feColorMatrix values="0 0 0 0 0   0 0 0 0 0   0 0 0 0 0  0 0 0 0.1 0" type="matrix" in="shadowBlurOuter1"></feColorMatrix>
        </filter>
    </defs>
    <g id="0.-Onboarding" stroke="none" stroke-width="1" fill="none" fill-rule="evenodd">
        <g id="onboarding-icons" transform="translate(-153.000000, -163.000000)">
            <g id="profile-pic-default" transform="translate(156.000000, 164.000000)">
                <g id="Rectangle">
                    <use fill="black" fill-opacity="1" filter="url(#filter-2)" xlink:href="#path-1"></use>
                    <use fill="#FFFFFF" fill-rule="evenodd" xlink:href="#path-1"></use>
                </g>
                <rect id="Rectangle" fill="#C0BFBE" x="2" y="2" width="36" height="36"></rect>
                <g id="icon/function/avatar" transform="translate(10.000000, 10.000000)" fill="#FFFFFF">
                    <path d="M12.3605634,13.3097572 C12.7497187,13.0839145 13.2197006,13.04469 13.6409088,13.2028999 C15.2944752,13.8239959 16.4725072,14.4126934 17.1873475,14.9845656 C17.6794939,15.3782827 18.0358903,15.8879102 18.2518092,16.5036106 C18.525956,17.2853599 18.1144657,18.1413338 17.3327177,18.4154837 C17.1731979,18.4714254 17.0053695,18.5 16.836325,18.5 L16.836325,18.5 L3.25269026,18.5 C2.42426184,18.5 1.75269026,17.8284259 1.75269026,17 C1.75269026,16.8337625 1.78032388,16.6686813 1.83446126,16.5115061 C2.06747345,15.8350097 2.3898512,15.3228066 2.81265248,14.9845656 C3.36194231,14.5451337 4.48358653,13.9857239 6.21029052,13.2790929 L6.21029052,13.2790929 L6.33816427,13.2269483 C6.76684698,13.0527382 7.25193906,13.0861311 7.65270659,13.3174392 C8.44510426,13.7747816 9.22553706,14 10,14 C10.744573,14 11.4944718,13.7918624 12.2511286,13.3718621 L12.2511286,13.3718621 Z M13.2892848,14.1390413 C13.1488818,14.0863045 12.9922208,14.0993794 12.8583928,14.1770193 L12.8583928,14.1770193 L12.7406608,14.2438341 C11.8361797,14.7459193 10.9207527,15 10,15 C9.0429746,15 8.09191906,14.7255431 7.15282838,14.1835349 C7.0192395,14.1064324 6.85754249,14.0953014 6.71520467,14.153145 L6.71520467,14.153145 L6.34689137,14.3043985 C4.84445877,14.928239 3.86542856,15.4229696 3.43734752,15.7654344 C3.1787063,15.9723474 2.95588688,16.3263693 2.77994721,16.837169 C2.76190145,16.8895606 2.75269026,16.9445876 2.75269026,17 C2.75269026,17.2761418 2.97654767,17.5 3.25269026,17.5 L3.25269026,17.5 L16.836325,17.5 C16.892673,17.5 16.9486156,17.4904751 17.0017887,17.471828 C17.2623711,17.3804448 17.3995347,17.0951197 17.3081528,16.8345377 C17.1535593,16.3937086 16.9066352,16.0406206 16.5626525,15.7654344 C15.9850504,15.3033527 14.9835405,14.7923573 13.5683546,14.2453582 L13.5683546,14.2453582 Z M10,1.5 C12.9510187,1.5 14.5,3.64825367 14.5,7 C14.5,10.3517463 12.9510187,12.5 10,12.5 C7.04898134,12.5 5.5,10.3517463 5.5,7 C5.5,3.64825367 7.04898134,1.5 10,1.5 Z M10,2.5 C7.68488947,2.5 6.5,4.14330137 6.5,7 C6.5,9.85669863 7.68488947,11.5 10,11.5 C12.3151105,11.5 13.5,9.85669863 13.5,7 C13.5,4.14330137 12.3151105,2.5 10,2.5 Z" id="icon"></path>
                </g>
            </g>
        </g>
    </g>
</svg>