<?xml version="1.0" encoding="UTF-8"?>
<svg width="18px" height="19px" viewBox="0 0 18 19" version="1.1" xmlns="http://www.w3.org/2000/svg" xmlns:xlink="http://www.w3.org/1999/xlink">
    <!-- Generator: Sketch 61.1 (89650) - https://sketch.com -->
    <title>quinoa</title>
    <desc>Created with Sketch.</desc>
    <g id="0.-Onboarding" stroke="none" stroke-width="1" fill="none" fill-rule="evenodd">
        <g id="onboarding-icons-copy" transform="translate(-230.000000, -337.000000)" fill="#333230">
            <g id="icon/food/grain/quinoa" transform="translate(229.333333, 337.000000)">
                <path d="M1.98982079,10.8868809 C2.60466365,9.82194188 3.87113217,9.33266706 5.03161819,9.68886826 C5.22284988,9.74756518 5.31684787,9.88691622 5.36493697,10.0623512 C5.37873724,10.1126963 5.38651919,10.1521163 5.39460007,10.2137553 L5.39460007,10.2137553 L5.39689382,10.2326574 L5.44703417,10.2120314 C5.47858835,10.1995552 5.50518703,10.190423 5.5345637,10.1818987 L5.5345637,10.1818987 L5.55880431,10.1751571 C5.73471546,10.1281403 5.90242943,10.1389599 6.04949416,10.2752846 L6.04949416,10.2752846 L6.01802719,10.2483228 L6.02631724,10.2538003 L6.10115619,10.3244929 C6.94907101,11.1543718 7.14011646,12.4663072 6.53645416,13.5118809 L6.58342644,13.4220387 C6.87452302,13.5473275 7.16566115,13.7333223 7.45744526,13.9781583 C8.39943917,14.768585 8.66136085,16.1007747 8.10905487,17.1817767 C8.01804265,17.3599105 7.86448608,17.4282824 7.68336578,17.4451769 C7.6443833,17.4488132 7.6120407,17.4501826 7.57210489,17.4494819 L7.5100977,17.4470749 L7.51403525,17.464674 C7.5226145,17.5024548 7.5283106,17.5320778 7.53247509,17.5616339 L7.53860898,17.6165105 C7.55436477,17.7979135 7.51458635,17.9612007 7.35479518,18.0823587 C6.38602074,18.8169094 5.02617189,18.791466 4.08281031,17.9998916 C2.91456393,17.0196165 2.69967536,15.8830396 3.44945246,14.7194104 C3.28746252,14.6531665 3.12053262,14.5707866 2.95063748,14.4726976 C1.47223964,13.6191442 1.1362674,12.3652788 1.98982079,10.8868809 Z M6.15619805,14.0604282 L6.11472199,14.1129279 C5.58544601,14.7255771 4.94562269,14.9977396 4.22358279,14.9218241 C3.51139488,15.8504836 3.62052931,16.6329363 4.56490102,17.4253583 C5.18937032,17.9493502 6.06974142,18.0033083 6.74562669,17.5910759 L6.76966769,17.5757369 L6.7387771,17.4503682 C6.72421832,17.3872748 6.71645331,17.3428183 6.71129095,17.2899054 C6.69619216,17.1351467 6.71906246,16.9972489 6.8234389,16.8728579 C6.92737998,16.7489857 7.05882079,16.702032 7.21339779,16.6893183 C7.26651072,16.6849499 7.31175689,16.6846659 7.37653558,16.6877572 L7.50736554,16.695805 L7.5183937,16.6685351 C7.79776399,15.951296 7.609441,15.1208942 7.0237153,14.5946826 L6.97535455,14.5526916 C6.68835687,14.311872 6.41493387,14.1489284 6.15619805,14.0604282 Z M11.0775067,12.7644292 C12.6816624,12.1805643 13.8581378,12.7291638 14.4420027,14.3333194 C15.0258677,15.9374751 14.4772681,17.1139505 12.8731125,17.6978154 C11.7175859,18.1183927 10.4329149,17.6791287 9.77289279,16.6603167 C9.66413047,16.4924309 9.68169696,16.3252611 9.75762599,16.159959 C9.77941558,16.1125218 9.79879292,16.0773222 9.83222346,16.0249096 L9.83222346,16.0249096 L9.84261631,16.0089554 L9.79094848,15.9925262 C9.75875704,15.9818009 9.73251118,15.9716993 9.70452803,15.9593463 L9.70452803,15.9593463 L9.6816252,15.9489292 C9.51664767,15.8718726 9.395126,15.7557798 9.37009573,15.5568176 L9.37009573,15.5568176 L9.37687011,15.5976982 L9.37404042,15.5881734 L9.36215079,15.4859142 C9.2460462,14.305161 9.94299273,13.1773585 11.0775067,12.7644292 Z M13.7372333,14.5898345 C13.2950378,13.3749123 12.5489441,13.0270031 11.3340218,13.4691986 C10.5679968,13.7480089 10.0810822,14.4834536 10.1001434,15.2749037 L10.1001434,15.2749037 L10.1014068,15.3033933 L10.2254246,15.3393256 C10.2873445,15.358264 10.3297274,15.3737676 10.3781325,15.3957533 C10.5197068,15.4600567 10.6276947,15.5488118 10.6832323,15.7014 C10.7385382,15.8533517 10.7134809,15.9906596 10.6472028,16.1308841 C10.6244295,16.1790655 10.6020523,16.2183918 10.5669858,16.2729461 L10.5669858,16.2729461 L10.4946013,16.3822243 L10.5127036,16.4054099 C10.9941658,17.0059712 11.8074763,17.2580796 12.5560518,17.0139321 L12.5560518,17.0139321 L12.6165974,16.993046 C13.8315196,16.5508504 14.1794288,15.8047567 13.7372333,14.5898345 Z M4.62874114,10.3596794 C3.87388635,10.2091007 3.08880218,10.5387604 2.67229512,11.2069632 L2.67229512,11.2069632 L2.63933985,11.2618809 C1.99289324,12.3815593 2.20595911,13.176732 3.32563748,13.8231786 C4.44531585,14.4696252 5.2404885,14.2565593 5.88693511,13.1368809 C6.2945285,12.4309085 6.19479202,11.5545425 5.67145603,10.9605088 L5.67145603,10.9605088 L5.65217542,10.9394967 L5.53407545,10.991688 C5.47446867,11.0169816 5.43203596,11.0323485 5.38082338,11.0466206 C5.23103771,11.0883636 5.09126347,11.0897865 4.95063748,11.008596 C4.81059803,10.9277442 4.74153315,10.8064537 4.7021706,10.6564328 C4.68864556,10.6048853 4.68050898,10.5603759 4.67230469,10.4960445 L4.67230469,10.4960445 L4.65751175,10.3658047 Z M11.7099821,4.31550536 C12.8110564,4.56626201 13.626718,5.49695975 13.7372104,6.61500306 C13.9660674,6.63279257 14.1962661,6.6820892 14.4224933,6.76442916 C15.5780199,7.18500644 16.2797814,8.34727278 16.130508,9.5519821 C16.1059099,9.75050116 15.9849985,9.86726916 15.8205793,9.94509165 C15.7733955,9.9674246 15.7359257,9.98193353 15.6766263,10.0005952 L15.6766263,10.0005952 L15.6584097,10.0061364 L15.6874291,10.0519333 C15.7051951,10.0808416 15.7188074,10.1054504 15.7323034,10.1329006 L15.7323034,10.1329006 L15.7431519,10.1556022 C15.820001,10.3206765 15.8384691,10.4877213 15.7297529,10.6562244 L15.7322667,10.6501321 L15.6902633,10.7156465 C15.0554958,11.6432528 13.8922789,12.0653996 12.8069504,11.7561653 L12.6268875,11.6978154 C11.648727,11.3417941 11.010773,10.4648212 10.912307,9.49425733 C9.34175983,9.42080207 8.5,8.5097777 8.5,6.875 C8.5,5.64531429 9.3521565,4.58835561 10.5352675,4.31659188 C10.7302274,4.27180906 10.8813076,4.34549162 11.0106715,4.4733782 C11.0385144,4.5009032 11.0603529,4.52479879 11.0854864,4.55584183 L11.1235,4.60475 L11.1344506,4.59056047 C11.1578778,4.5597033 11.1769089,4.53629857 11.1968734,4.51411007 L11.2349684,4.47413728 C11.3638036,4.34546401 11.5144579,4.27097705 11.7099821,4.31550536 Z M14.1659782,7.46919862 C13.1928946,7.11502517 12.1169402,7.61675095 11.7627667,8.58983452 C11.4085933,9.56291809 11.910319,10.6388725 12.8834026,10.993046 C13.6494276,11.2718563 14.4951606,11.0214556 14.9892932,10.4029174 L14.9892932,10.4029174 L15.0066381,10.380281 L14.9347318,10.2730382 C14.8994718,10.2187292 14.8769701,10.1796095 14.8540218,10.1316533 C14.786903,9.9913918 14.7612302,9.85398813 14.8167677,9.70139999 C14.8720736,9.54944828 14.9795285,9.46037078 15.120435,9.39555537 C15.1688507,9.37328469 15.2112711,9.35754273 15.2732005,9.33829206 L15.2732005,9.33829206 L15.3988929,9.30110795 L15.3999291,9.27171079 C15.4171411,8.50217621 14.9561612,7.78626405 14.2257841,7.49211688 L14.2257841,7.49211688 Z M11.69825,5.08925 L11.6218181,5.19363825 C11.5828439,5.24534658 11.5537795,5.27987101 11.5165642,5.31783734 C11.4077175,5.42888065 11.2873809,5.5 11.125,5.5 C10.9632964,5.5 10.8428392,5.4294918 10.7337398,5.31925114 C10.696253,5.28137226 10.6669518,5.24689422 10.627681,5.19528377 L10.54975,5.08975 L10.5217713,5.09896991 C9.79275849,5.34599228 9.27768551,6.02402803 9.25108126,6.81096224 L9.25,6.875 C9.25,8.10613887 9.77782679,8.69277034 10.9445878,8.74600185 C10.9707201,8.60755676 11.0083529,8.46971624 11.0579973,8.33331941 C11.3800768,7.44841313 12.1285116,6.84193742 12.9868876,6.66143866 C12.9057281,5.93829919 12.4092823,5.32843464 11.7252036,5.09794601 L11.69825,5.08925 Z M3.70263653,3.56958054 C4.66714654,2.8786544 5.9923254,2.91832655 6.91718969,3.69437984 C8.22490935,4.79168693 8.33804596,6.08484432 7.24073888,7.39256398 C6.14343179,8.70028364 4.8502744,8.81342026 3.54255474,7.71611317 C2.60056083,6.92568643 2.33863915,5.59349674 2.89094513,4.51249479 C2.98195735,4.33436095 3.13551392,4.26598906 3.31663422,4.2490945 C3.36861086,4.24424622 3.40878327,4.2434277 3.47088915,4.24617311 L3.47088915,4.24617311 L3.4899023,4.2471965 L3.47829649,4.19423624 C3.47148917,4.16099497 3.46711449,4.13321459 3.4638209,4.10280399 L3.4638209,4.10280399 L3.46139102,4.07776097 C3.44563523,3.89635794 3.48541365,3.73307072 3.64520482,3.61191278 L3.64126665,3.61413208 Z M6.43509898,4.26891317 C5.81062968,3.74492122 4.93025858,3.69096311 4.25437331,4.10319559 L4.25437331,4.10319559 L4.23033231,4.11853456 L4.2612229,4.24390326 C4.27578168,4.30699667 4.28354669,4.35145316 4.28870905,4.40436604 C4.30380784,4.55912472 4.28093754,4.69702255 4.1765611,4.82141354 C4.07262002,4.94528571 3.94117921,4.99223947 3.78660221,5.00495315 C3.73348928,5.00932159 3.68824311,5.00960557 3.62346442,5.0065142 L3.62346442,5.0065142 L3.49263446,4.99846649 L3.4816063,5.02573637 C3.20223601,5.74297549 3.390559,6.57337727 3.9762847,7.09958887 L3.9762847,7.09958887 L4.02464545,7.14157984 C5.01505911,7.97263558 5.8351498,7.90088694 6.66620554,6.91047327 C7.49726129,5.92005961 7.42551265,5.09996892 6.43509898,4.26891317 Z M14.0828103,1.44437984 C15.0248042,0.653953102 16.3822372,0.627342913 17.3509093,1.35897214 C17.5105328,1.4795343 17.5512012,1.64263065 17.5363879,1.82393304 C17.5321368,1.87596193 17.5259671,1.91566616 17.5124788,1.97635178 L17.5124788,1.97635178 L17.5081693,1.99489837 L17.5623403,1.99266534 C17.5962587,1.99173372 17.6243767,1.99224951 17.6548972,1.9942867 L17.6548972,1.9942867 L17.6799817,1.99624241 C17.8613648,2.01222629 18.0152638,2.07975491 18.1068337,2.25815736 L18.1068337,2.25815736 L18.1385499,2.32206747 C18.6514939,3.39190246 18.3823096,4.69005988 17.4574453,5.46611317 C16.1497256,6.56342026 14.8565682,6.45028364 13.7592611,5.14256398 C12.661954,3.83484432 12.7750906,2.54168693 14.0828103,1.44437984 Z M16.7428978,1.85153637 C16.0850673,1.45186308 15.2345793,1.49312727 14.6146518,1.97857879 L14.6146518,1.97857879 L14.564901,2.01891317 C13.5744874,2.84996892 13.5027387,3.67005961 14.3337945,4.66047327 C15.1648502,5.65088694 15.9849409,5.72263558 16.9753546,4.89157984 C17.5998239,4.36758788 17.8058371,3.50996132 17.5172336,2.77276084 L17.5172336,2.77276084 L17.5063023,2.7464215 L17.3774741,2.75507274 C17.3128111,2.75845428 17.2676817,2.75838154 17.2146762,2.75427725 C17.0596468,2.74227309 16.9278153,2.69580454 16.8234389,2.57141354 C16.7194978,2.44754138 16.6960818,2.30994402 16.7104033,2.15550768 C16.7153242,2.10244308 16.7229015,2.057835 16.7371946,1.99457725 L16.7371946,1.99457725 L16.7678384,1.86713236 Z" id="icon"></path>
            </g>
        </g>
    </g>
</svg>