<?xml version="1.0" encoding="UTF-8"?>
<svg width="16px" height="16px" viewBox="0 0 16 16" version="1.1" xmlns="http://www.w3.org/2000/svg" xmlns:xlink="http://www.w3.org/1999/xlink">
    <!-- Generator: Sketch 61.1 (89650) - https://sketch.com -->
    <title>resisstance bands</title>
    <desc>Created with Sketch.</desc>
    <g id="0.-Onboarding" stroke="none" stroke-width="1" fill="none" fill-rule="evenodd">
        <g id="onboarding-icons-copy" transform="translate(-210.000000, -9.000000)" fill="#333230">
            <g id="icon/equipment/resistance-bands" transform="translate(208.200000, 7.000000)">
                <path d="M5.625,10.75 C5.83210678,10.75 6,10.9738576 6,11.25 C6,11.5098987 5.85127798,11.7234829 5.661115,11.7477111 L5.625,11.75 L5.5,11.75 L5.5,16.9090909 C5.5,16.9511859 5.4929124,16.9929804 5.47903441,17.032722 C5.25999213,17.6599794 4.7850427,18 4.125,18 C3.4649573,18 2.99000787,17.6599794 2.77096559,17.032722 C2.7617136,17.0062276 2.75547955,16.9788208 2.75235153,16.9510208 L2.75,16.9090909 L2.75,12.125 C2.75,11.9178932 2.91789322,11.75 3.125,11.75 C3.31992403,11.75 3.48011217,11.898722 3.49828336,12.088885 L3.5,12.125 L3.5,15.5 L4.75,15.5 L4.75,11.75 L2.625,11.75 C2.41789322,11.75 2.25,11.5261424 2.25,11.25 C2.25,10.9901013 2.39872202,10.7765171 2.588885,10.7522889 L2.625,10.75 L5.625,10.75 Z M17.375,10.75 C17.5821068,10.75 17.75,10.9738576 17.75,11.25 C17.75,11.5098987 17.601278,11.7234829 17.411115,11.7477111 L17.375,11.75 L17.25,11.75 L17.25,16.9090909 C17.25,16.9511859 17.2429124,16.9929804 17.2290344,17.032722 C17.0099921,17.6599794 16.5350427,18 15.875,18 C15.2149573,18 14.7400079,17.6599794 14.5209656,17.032722 C14.5117136,17.0062276 14.5054796,16.9788208 14.5023515,16.9510208 L14.5,16.9090909 L14.5,12.125 C14.5,11.9178932 14.6678932,11.75 14.875,11.75 C15.069924,11.75 15.2301122,11.898722 15.2482834,12.088885 L15.25,12.125 L15.25,15.5 L16.5,15.5 L16.5,11.75 L14.375,11.75 C14.1678932,11.75 14,11.5261424 14,11.25 C14,10.9901013 14.148722,10.7765171 14.338885,10.7522889 L14.375,10.75 L17.375,10.75 Z M16.5,16.5 L15.25,16.5 L15.25,16.84075 L15.2657153,16.877998 C15.3766271,17.1243354 15.5485956,17.2371854 15.8251094,17.248964 L15.875,17.25 C16.1809616,17.25 16.3668487,17.1388258 16.4842847,16.877998 L16.5,16.84025 L16.5,16.5 Z M4.75,16.5 L3.5,16.5 L3.5,16.84075 L3.51571532,16.877998 C3.62662709,17.1243354 3.79859558,17.2371854 4.07510935,17.248964 L4.125,17.25 C4.43096157,17.25 4.61684868,17.1388258 4.73428468,16.877998 L4.75,16.84025 L4.75,16.5 Z M10,2 L10.2304146,2.00220574 C14.2624898,2.08033529 16.25,4.24428436 16.25,10.125 C16.25,10.3321068 16.0821068,10.5 15.875,10.5 C15.6678932,10.5 15.5,10.3321068 15.5,10.125 C15.5,7.08929625 14.9285818,5.13592875 13.8554426,4.0263237 C13.8547897,4.02564864 13.8541367,4.02497388 13.8534834,4.02429943 L13.7380234,3.82956911 C14.2215953,4.58760078 14.4556783,5.49591876 14.4942424,6.36548253 L14.5,6.625 C14.5,9.01688876 12.8000259,10.875 10,10.875 L10,10.875 C7.19997411,10.875 5.5,9.01688876 5.5,6.625 L5.50575763,6.36548253 C5.5443217,5.49591876 5.77840466,4.58760078 6.26197658,3.82956911 L6.14651656,4.02429943 C6.14586332,4.02497388 6.14521027,4.02564864 6.14455739,4.0263237 C5.07141824,5.13592875 4.5,7.08929625 4.5,10.125 C4.5,10.3321068 4.33210678,10.5 4.125,10.5 C3.91789322,10.5 3.75,10.3321068 3.75,10.125 C3.75,4.13332746 5.81321811,2 10,2 Z M10,2.75 L9.73935135,2.755561 C8.37724589,2.81473509 7.46143685,3.34386388 6.89427342,4.23293089 C6.44927067,4.93050275 6.25,5.81030157 6.25,6.625 C6.25,8.39015176 7.74196948,10.125 10,10.125 L10,10.125 C12.2580305,10.125 13.75,8.39015176 13.75,6.625 C13.75,5.81030157 13.5507293,4.93050275 13.1057266,4.23293089 C12.5031154,3.2882972 11.5069161,2.75 10,2.75 Z M7.6984476,4.66137702 C7.88546391,4.75036083 7.96493495,4.97410313 7.87595114,5.16111944 C7.71174122,5.50623765 7.625,5.88790675 7.625,6.28352782 C7.625,7.67132882 8.69232632,8.7894802 10,8.7894802 C11.3076737,8.7894802 12.375,7.67132882 12.375,6.28352782 C12.375,5.89416366 12.2909856,5.51828862 12.1317228,5.17739518 C12.0440593,4.98975634 12.1251054,4.76657972 12.3127442,4.67891626 C12.500383,4.5912528 12.7235597,4.67229886 12.8112231,4.85993771 C13.0167723,5.29990443 13.125,5.7841084 13.125,6.28352782 C13.125,8.07793895 11.7298924,9.5394802 10,9.5394802 C8.27010756,9.5394802 6.875,8.07793895 6.875,6.28352782 C6.875,5.77605574 6.98675058,5.28434322 7.19870517,4.83888056 C7.28768898,4.65186425 7.51143129,4.5723932 7.6984476,4.66137702 Z" id="icons8-functional_training"></path>
            </g>
        </g>
    </g>
</svg>