<?xml version="1.0" encoding="UTF-8"?>
<svg width="17px" height="16px" viewBox="0 0 17 16" version="1.1" xmlns="http://www.w3.org/2000/svg" xmlns:xlink="http://www.w3.org/1999/xlink">
    <!-- Generator: Sketch 61.1 (89650) - https://sketch.com -->
    <title>rice copy</title>
    <desc>Created with Sketch.</desc>
    <g id="0.-Onboarding" stroke="none" stroke-width="1" fill="none" fill-rule="evenodd">
        <g id="onboarding-icons-copy" transform="translate(-284.000000, -379.000000)" fill="#FFFFFF">
            <g id="icon/food/grain/rice" transform="translate(282.166667, 377.000000)">
                <path d="M15.6807195,2.17141903 C15.8515151,2.26535658 15.9202025,2.47286685 15.8444813,2.64824771 L15.828581,2.68071953 L13.3686846,7.15198995 C13.7003997,7.03620272 14.0300579,7.03076802 14.3343455,7.13315305 L16.8129811,3.41698743 C16.9278633,3.24466417 17.1606893,3.19809897 17.3330126,3.31298114 C17.4951992,3.42110554 17.5459876,3.63370613 17.4556235,3.80201085 L17.4370189,3.83301257 L14.9641084,7.54207992 C15.0781379,7.66002328 15.183501,7.79942187 15.2780725,7.96004482 L15.362,8.1145 L15.4012095,8.11844066 C16.0719715,8.20037845 16.8384469,8.8389179 16.8737342,9.45596925 L16.875,9.5 C16.875,9.70710678 16.7071068,9.875 16.5,9.875 C16.2928932,9.875 16.125,9.70710678 16.125,9.5 C16.125,9.26276129 15.5309758,8.82583582 15.2444569,8.85870038 L15.2159509,8.86380344 C15.0340234,8.9092853 14.8464668,8.8133855 14.7768212,8.6392715 C14.3912479,7.67533803 13.7278445,7.55248557 13.015165,8.26516504 C12.8687184,8.41161165 12.6312816,8.41161165 12.484835,8.26516504 C12.280191,8.06052109 12.0296981,8.03131019 11.9090421,8.12365752 L11.890165,8.14016504 C11.7025702,8.32775992 11.3848271,8.2665682 11.2803206,8.02271974 C11.0030733,7.37580942 10.6357659,7.13763349 10.2453913,7.19862951 C9.90287223,7.25214812 9.57407019,7.54327493 9.48557148,7.85302042 C9.4319032,8.04085941 9.24301828,8.15603012 9.05145645,8.11771775 C8.60588272,8.02860301 8.46266871,8.06766137 8.26516504,8.26516504 C8.09265632,8.43767377 7.80395869,8.40213347 7.67844015,8.19293591 L7.62875915,8.11316676 C7.41952704,7.79147833 7.2813691,7.77857819 6.9177051,7.9604102 C6.841543,7.99849124 6.75468824,8.00951769 6.67142659,7.99167591 C6.01936617,7.85194867 5.6491512,7.95291639 5.4490758,8.20301064 C5.30943268,8.37756454 5.25,8.62718181 5.25,8.875 C5.25,9.06008916 5.11495833,9.21749525 4.93202144,9.24563939 C4.17624447,9.36191277 3.80571711,9.67515562 3.74873454,10.2495601 L17.625,10.25 C17.8373543,10.25 18.0073403,10.4261653 17.9997611,10.6383843 C17.826383,15.4929698 15.6775,18 11.625,18 L11.625,18 L8.375,18 C4.3225,18 2.17361698,15.4929698 2.00023893,10.6383843 C1.99265968,10.4261653 2.16264567,10.25 2.375,10.25 L2.375,10.25 L2.99669699,10.2498396 C3.05434784,9.39275636 3.55956854,8.81902688 4.45537741,8.57966275 L4.52075,8.56275 L4.5304847,8.49952135 C4.57264792,8.25172615 4.66152522,8.01193749 4.81532003,7.79790776 L4.8634242,7.73448936 C5.23102058,7.27499388 5.83313483,7.08760401 6.65532879,7.22520121 L6.702,7.2335 L6.75136834,7.21280527 C7.26793935,7.0029938 7.6972201,7.06637431 8.06082892,7.45438459 L8.07675,7.47175 L8.08491601,7.46741944 C8.30003838,7.35239605 8.54134439,7.3083722 8.84607715,7.33169281 L8.894,7.33575 L8.91056421,7.30599714 C9.15130073,6.89051593 9.58615763,6.56472876 10.0666845,6.46881573 L10.1296087,6.45762049 C10.7630592,6.35864384 11.3475618,6.65717359 11.7579946,7.31775308 L11.7855,7.3635 L11.8165075,7.35547723 C12.0018169,7.31046953 12.2027757,7.31601505 12.3994079,7.3704941 L12.4055187,7.35175229 L12.4055187,7.35175229 L12.421419,7.31928047 L15.171419,2.31928047 C15.2712277,2.13781021 15.4992493,2.07161039 15.6807195,2.17141903 Z M17.23175,11 L2.768,11 L2.77672426,11.1327906 C3.05614948,15.2150668 4.86570506,17.2082864 8.26710384,17.2493519 L8.26710384,17.2493519 L8.375,17.25 L11.625,17.25 C15.1307417,17.25 16.9776299,15.217998 17.2312749,11.0084457 L17.2312749,11.0084457 L17.23175,11 Z" id="icon"></path>
            </g>
        </g>
    </g>
</svg>