<?xml version="1.0" encoding="UTF-8"?>
<svg width="17px" height="11px" viewBox="0 0 17 11" version="1.1" xmlns="http://www.w3.org/2000/svg" xmlns:xlink="http://www.w3.org/1999/xlink">
    <!-- Generator: Sketch 61.1 (89650) - https://sketch.com -->
    <title>salmon</title>
    <desc>Created with Sketch.</desc>
    <g id="0.-Onboarding" stroke="none" stroke-width="1" fill="none" fill-rule="evenodd">
        <g id="onboarding-icons-copy" transform="translate(-246.000000, -262.000000)" fill="#333230">
            <g id="icon/food/protein/salmon" transform="translate(244.428571, 257.000000)">
                <path d="M16.5,11.5625 C16.694924,11.5625 16.8551122,11.711222 16.8732834,11.901385 L16.875,11.9375 L16.875,13.6875 C16.875,14.4283698 16.289055,15.0323848 15.5553018,15.0614082 L15.5,15.0625 L4.5,15.0625 C3.75913021,15.0625 3.15511522,14.476555 3.1260918,13.7428018 L3.125,13.6875 L3.125,12.453125 C3.125,12.2460182 3.29289322,12.078125 3.5,12.078125 C3.69492403,12.078125 3.85511217,12.226847 3.87328336,12.41701 L3.875,12.453125 L3.875,13.6875 C3.875,14.0188708 4.13288398,14.2900097 4.45890608,14.3111706 L4.5,14.3125 L15.5,14.3125 C15.8313708,14.3125 16.1025097,14.054616 16.1236706,13.7285939 L16.125,13.6875 L16.125,11.9375 C16.125,11.7303932 16.2928932,11.5625 16.5,11.5625 Z M9.67346939,5.0625 C13.3163876,5.0625 15.8612312,6.18545653 17.2589993,8.4162629 C17.3050576,8.46022092 17.340095,8.51613239 17.3590675,8.57901137 C17.7803843,9.29798995 18.0891651,10.1264739 18.282701,11.0641673 C18.3082797,11.1880974 18.2956029,11.3168727 18.2464462,11.4334624 C18.1122632,11.751494 17.7456708,11.9005327 17.4287058,11.7667977 L17.4287058,11.7667977 L17.2346151,11.6856099 C14.4870422,10.5464661 12.0746027,9.97916667 10,9.97916667 C8.42266868,9.97916667 6.89807002,10.2268111 5.42476837,10.7226471 C5.35777173,10.7832923 5.26913694,10.8154545 5.1755566,10.8123549 C4.3689666,11.0970395 3.5783905,11.4597008 2.80302721,11.8973362 C2.63585232,11.9916941 2.43458819,12.0039916 2.25716905,11.9306888 C1.93815334,11.7988837 1.78638915,11.4334212 1.91877217,11.1130146 L1.91877217,11.1130146 L1.97313068,10.982939 C3.63245384,7.05854079 6.2118832,5.0625 9.67346939,5.0625 Z M4.31448895,8.42400046 L4.2050674,8.56004086 C3.67199983,9.24989602 3.19473538,10.0707696 2.77256768,11.0239146 L2.77256768,11.0239146 L2.75275,11.06875 L2.94316867,10.9683878 C3.56956542,10.6427109 4.20582813,10.3627245 4.85185098,10.1284689 C4.94416296,9.32689751 4.7630631,8.77441795 4.31448895,8.42400046 Z M17.1289584,9.81135653 L17.0463234,9.97610097 C16.9265575,10.1992538 16.7744313,10.4150571 16.5905543,10.623121 C16.896387,10.7390469 17.2076413,10.8625232 17.5229443,10.993248 L17.4965,10.98225 L17.4760752,10.8954124 C17.3824487,10.5122766 17.2667944,10.1509405 17.1289584,9.81135653 Z M15.1135526,7.21394249 L15.1214605,7.40426742 C15.1555745,8.50389414 14.9172956,9.34146377 14.390513,9.89688674 C14.8533644,10.0250474 15.3291373,10.1742635 15.8155014,10.3425141 L15.7477477,10.4100225 C16.3001725,9.90781812 16.5849264,9.37923018 16.621053,8.81207897 C16.2222697,8.17865582 15.7205589,7.64614446 15.1135526,7.21394249 Z M6.96277341,6.34635442 L6.86644184,6.38697084 C6.11468435,6.72621682 5.42926697,7.21631101 4.80929863,7.85883394 C5.38061793,8.32002155 5.65002551,9.00231843 5.6224844,9.87395223 C6.29136325,9.6694193 6.97067556,9.5145694 7.66005635,9.40769178 L7.6117717,9.49228434 C8.46582706,8.0915142 8.260731,7.10242822 6.96277341,6.34635442 Z M11.0898482,5.87635234 L11.1934427,6.03900975 C12.0447765,7.40997087 12.1080362,8.52797594 11.3331283,9.29883635 L11.5948391,9.32700531 C12.2046743,9.39936848 12.8366012,9.51185056 13.4906873,9.66437871 C13.5097773,9.64836691 13.530212,9.63252035 13.552617,9.61865057 C14.2359968,9.19560595 14.5072575,8.2556696 14.3155795,6.73547114 C13.4192487,6.2809963 12.3448701,5.99539167 11.0898482,5.87635234 Z M9.80917326,5.81303674 L9.67346939,5.8125 C9.03013384,5.8125 8.42098388,5.88816242 7.84569726,6.04005884 C8.9050317,6.87707419 9.14939405,7.99053764 8.56302223,9.29696921 C8.97588823,9.25705818 9.39340899,9.2352141 9.81442992,9.23025766 L9.81442992,9.23025766 L10,9.22916667 C10.0622274,9.22916667 10.1247173,9.22964547 10.1874698,9.23060298 C10.220577,9.17978886 10.2674442,9.13605343 10.3256873,9.10547579 C11.4126078,8.53484253 11.4126078,7.54953166 10.1986661,5.91071033 C10.1774501,5.88206884 10.1609215,5.85140069 10.1489435,5.81962341 C10.0378916,5.81603058 9.92417004,5.8139504 9.80917326,5.81303674 L9.80917326,5.81303674 Z" id="icon"></path>
            </g>
        </g>
    </g>
</svg>