<?xml version="1.0" encoding="UTF-8"?>
<svg width="19px" height="18px" viewBox="0 0 19 18" version="1.1" xmlns="http://www.w3.org/2000/svg" xmlns:xlink="http://www.w3.org/1999/xlink">
    <!-- Generator: Sketch 61.1 (89650) - https://sketch.com -->
    <title>shellfish</title>
    <desc>Created with Sketch.</desc>
    <g id="0.-Onboarding" stroke="none" stroke-width="1" fill="none" fill-rule="evenodd">
        <g id="onboarding-icons-copy" transform="translate(-290.000000, -258.000000)" fill="#333230">
            <g id="icon/food/protein/shellfish" transform="translate(289.714286, 257.000000)">
                <path d="M18.8545149,9.37775349 C19.7711611,12.0360274 18.242756,13.934955 14.4935854,14.9807562 C13.6084658,15.2757961 12.8639168,15.8566833 12.2542095,16.7342802 L12.1870189,16.8330126 C11.4653759,17.915477 10.745807,18.455735 9.99910674,18.3776809 C9.24643206,18.4557862 8.52060957,17.9093845 7.79230481,16.8147429 L7.79230481,16.8147429 L7.72431842,16.7146417 C7.13023687,15.8578297 6.40956852,15.2799158 5.55723367,14.9711607 L5.55723367,14.9711607 L5.47424664,14.942 L5.38445598,14.9209847 C2.14557367,14.1432472 0.685223681,12.2859318 1.12957104,9.44210867 C1.16154354,9.23748468 1.35334289,9.09752299 1.55796688,9.12949549 C1.76259087,9.16146799 1.90255256,9.35326734 1.87058006,9.55789133 C1.48653128,12.0158035 2.70657402,13.5362969 5.66112573,14.2155786 L5.66112573,14.2155786 L5.69590025,14.2253589 L5.80459814,14.2630805 C6.84940902,14.6394301 7.7220285,15.3551636 8.41672568,16.3992931 L8.41672568,16.3992931 L8.4696511,16.4778054 C9.04948238,17.3265674 9.55152685,17.6852593 9.94693863,17.6286589 L9.94693863,17.6286589 L9.98293247,17.6252408 C9.98872519,17.6249689 9.99449865,17.6248319 10.0002495,17.6248273 L10.0170382,17.6253609 L10.0170382,17.6253609 L10.053033,17.6287689 C10.4421665,17.6843594 10.9370403,17.3317839 11.5091231,16.4966931 L11.5629811,16.4169874 C12.2743755,15.3498959 13.1743164,14.6299432 14.2742004,14.2638014 C17.6739107,13.315045 18.8955056,11.7973059 18.1454851,9.62224651 C18.0779703,9.42645335 18.1819603,9.21300001 18.3777535,9.14548513 C18.5735466,9.07797025 18.787,9.18196034 18.8545149,9.37775349 Z M13.8650691,16.086917 C14.7222458,16.8012309 14.7869715,17.9662942 13.9935854,18.2307562 C13.6754622,18.3367973 13.0627599,18.3367973 12.0910491,18.24846 C11.8847929,18.2297094 11.7327895,18.0473053 11.75154,17.8410491 C11.7702906,17.6347929 11.9526947,17.4827895 12.1589509,17.50154 L12.4252264,17.5240415 C13.1350086,17.5791734 13.5940246,17.5733738 13.7564146,17.5192438 L13.7696449,17.4976004 C13.7897319,17.4604022 13.8013497,17.4034524 13.7974524,17.3333013 C13.7860671,17.1283663 13.653592,16.8869673 13.3849309,16.663083 C13.225827,16.5304964 13.2043305,16.2940347 13.336917,16.1349309 C13.4695036,15.975827 13.7059653,15.9543305 13.8650691,16.086917 Z M6.29393069,16.0897537 C6.45146787,15.9553095 6.68816558,15.97403 6.82260983,16.1315672 C6.95705408,16.2891043 6.93833356,16.525802 6.78079638,16.6602463 C6.51877274,16.8838606 6.38902512,17.1259865 6.37780509,17.3328133 C6.37121072,17.4543722 6.4040026,17.5165611 6.41439336,17.5201081 C6.57029243,17.5733266 7.01703515,17.5790286 7.70806522,17.5240508 L7.70806522,17.5240508 L7.96730881,17.5016147 C8.17352383,17.4824161 8.35625762,17.634023 8.37545616,17.840238 C8.39465469,18.046453 8.24304787,18.2291868 8.03683285,18.2483853 C7.08550231,18.3369538 6.48572676,18.3369538 6.17209795,18.2298919 C5.39348023,17.9640989 5.45638524,16.8045257 6.29393069,16.0897537 Z M16.3892715,4.02682124 C16.8771536,4.22197407 17.2764549,4.58938438 17.5114501,5.05937463 L18.4604102,6.9572949 C18.8680688,7.77261202 18.6666016,8.53243299 17.9079433,9.1304535 L17.87225,9.15775 L13.890165,13.140165 C13.7528713,13.2774587 13.5356057,13.2860396 13.3883156,13.1659076 L13.359835,13.140165 C13.2225413,13.0028713 13.2139604,12.7856057 13.3340924,12.6383156 L13.359835,12.609835 L17.359835,8.60983496 L17.4,8.575 C17.9271858,8.17961065 18.0384064,7.79033839 17.7895898,7.2927051 L16.8406297,5.39478483 C16.6877813,5.08908799 16.4280628,4.85011246 16.1107285,4.72317876 C15.9184347,4.64626123 15.8249037,4.42802232 15.9018212,4.2357285 C15.9787388,4.04343468 16.1969777,3.94990371 16.3892715,4.02682124 Z M3.23471577,4.35983496 C3.38116238,4.21338835 3.61859925,4.21338835 3.76504586,4.35983496 C3.91149247,4.50628157 3.91149247,4.74371843 3.76504586,4.89016504 C2.99387799,5.66133292 2.69816499,6.00023868 2.54423763,6.29438324 L2.54423763,6.29438324 L2.51773894,6.3474571 C2.46645172,6.45531339 2.42836966,6.56721292 2.38889917,6.72661509 L2.38889917,6.72661509 L2.35880796,6.85575252 L2.28685812,7.20043475 C2.17476877,7.74626119 2.30816139,8.2049446 2.70000397,8.61637931 L2.70000397,8.61637931 L6.76268898,12.6074988 L6.78868257,12.6357505 C6.91011325,12.7819719 6.90345536,12.9993049 6.76738198,13.1378082 C6.62223704,13.285545 6.38480947,13.2876461 6.23707266,13.1425012 L6.23707266,13.1425012 L2.16564409,9.14250116 L2.1080493,9.08030339 C1.58259974,8.49613441 1.39604562,7.80991673 1.55218922,7.04956525 L1.55218922,7.04956525 L1.60014803,6.81662983 L1.64515836,6.61171211 C1.70108862,6.37282736 1.75704336,6.20071151 1.84041588,6.02538027 C2.02016841,5.64736322 2.30048137,5.30458755 3.02037564,4.57544202 L3.02037564,4.57544202 Z M11.125,1.75 C12.3134833,1.75 13.877667,2.14104592 14.8110521,2.67440882 C15.5414045,3.09175304 15.8209035,3.76255065 15.6138034,4.59095086 L15.6051357,4.62043114 L15.5940834,4.64910279 L12.3440834,12.1491028 C12.2617362,12.3391348 12.0409292,12.4264306 11.8508972,12.3440834 C11.6720436,12.2665801 11.584195,12.0664274 11.6431322,11.8847173 L11.6559166,11.8508972 L14.8925,4.38125 L14.8991367,4.35366376 C14.9979081,3.89806421 14.8697205,3.59008186 14.486198,3.35362727 L14.4389479,3.32559118 C13.622333,2.85895408 12.1865167,2.5 11.125,2.5 C10.5844321,2.5 10.3890028,2.63698475 10.3757331,2.962996 L10.375,3 L10.375,11.375 C10.375,11.5821068 10.2071068,11.75 10,11.75 C9.80507597,11.75 9.64488783,11.601278 9.62671664,11.411115 L9.625,11.375 L9.625,3 C9.625,2.18601365 10.185589,1.75 11.125,1.75 Z M8.85684036,1.75039778 C9.04764263,1.74108959 9.21781453,1.87827562 9.24578908,2.07118182 C9.27551204,2.27614466 9.13345205,2.46639508 8.92848921,2.49611805 C8.83993659,2.50895962 8.75244546,2.52203611 8.66025259,2.53642163 L8.66025259,2.53642163 L8.3638055,2.58457944 C8.04823873,2.6377161 7.73202676,2.69702091 7.42491525,2.7625305 C6.61328564,2.93565825 5.97416892,3.12933186 5.623906,3.32670224 L5.623906,3.32670224 L5.57589253,3.35478973 C5.1862001,3.59161494 5.05659469,3.89853722 5.15642978,4.35264112 L5.15642978,4.35264112 L5.16317103,4.3805 L8.44509811,11.8491351 L8.45805581,11.8828892 C8.51792379,12.0642947 8.43110256,12.2648952 8.25264863,12.3433144 C8.06304132,12.4266348 7.8417897,12.3404722 7.75846931,12.1508649 L7.75846931,12.1508649 L4.46269466,4.65086492 L4.45138466,4.62192841 L4.44250878,4.592155 C4.23207321,3.76210359 4.51601146,3.09011639 5.25571776,2.67329776 C5.69152332,2.42772478 6.38608832,2.2172485 7.2684536,2.0290322 C7.58701359,1.96108055 7.9136546,1.8998198 8.23927004,1.8449911 C8.38667196,1.82017085 8.51499941,1.79970051 8.63818627,1.78097863 L8.63818627,1.78097863 L8.82085285,1.75388195 Z" id="icon"></path>
            </g>
        </g>
    </g>
</svg>