<?xml version="1.0" encoding="UTF-8"?>
<svg width="60px" height="60px" viewBox="0 0 60 60" version="1.1" xmlns="http://www.w3.org/2000/svg" xmlns:xlink="http://www.w3.org/1999/xlink">
    <!-- Generator: Sketch 61.1 (89650) - https://sketch.com -->
    <title>snack-selected</title>
    <desc>Created with Sketch.</desc>
    <g id="0.-Onboarding" stroke="none" stroke-width="1" fill="none" fill-rule="evenodd">
        <g id="onboarding-icons" transform="translate(-96.000000, -736.000000)">
            <g id="snack-selected" transform="translate(96.000000, 736.000000)">
                <circle id="Oval" fill="#FAF9F7" cx="30" cy="30" r="30"></circle>
                <circle id="Oval-Copy" fill="#334D7E" cx="30" cy="30" r="30"></circle>
                <g id="icon/meal/snack" transform="translate(12.000000, 12.000000)" fill="#FFFFFF">
                    <path d="M16.11839,9.91540595 C16.4826737,9.99459807 16.7137862,10.3541063 16.634594,10.71839 C16.5554019,11.0826737 16.1958937,11.3137862 15.83161,11.234594 C13.1272885,10.6466981 10.4723686,11.0281661 8.8554113,12.3952234 C6.9370012,14.0171441 6.42889976,16.9785949 7.77609498,21.4035079 L7.84384824,21.622307 C9.35972859,26.4374564 10.6540786,28.7672177 11.9449109,29.4835427 C12.6435554,29.8712434 13.1547604,29.8487495 14.8091572,29.4478667 L14.9676468,29.4091764 C16.068201,29.1386802 16.7369286,29.025 17.55,29.025 C18.3836824,29.025 19.0583431,29.1549469 20.3462408,29.5062913 L20.8605027,29.6465876 C22.8592503,30.1800385 23.6674927,30.1982451 24.6109554,29.5931594 C26.0231744,28.6874389 27.2634543,26.2460913 28.3688445,21.6666176 C29.7266819,16.0412911 28.7976658,13.1233074 26.165704,12.1044835 C24.166218,11.3304889 21.4879017,11.5953112 17.7203848,12.5781417 C17.3596646,12.6722426 16.9909593,12.456105 16.8968583,12.0953848 C16.8027574,11.7346646 17.018895,11.3659593 17.3796152,11.2718583 C21.416735,10.2186967 24.2978389,9.93382347 26.653046,10.8455165 C30.0274256,12.151728 31.1802731,15.7727522 29.6811555,21.9833824 C28.5010807,26.8722638 27.1222441,29.5863441 25.3397624,30.729531 C23.9356295,31.6300654 22.8279658,31.5808267 20.3419318,30.9049975 L19.8443301,30.7689855 C18.7677662,30.4793972 18.1984854,30.375 17.55,30.375 C16.9579615,30.375 16.4390375,30.450634 15.6470253,30.6345927 L14.9490156,30.8026072 C13.0861741,31.2447997 12.3608656,31.258306 11.2898548,30.663967 C9.59762749,29.7248947 8.17087659,27.1568189 6.55615176,22.027693 C4.976542,17.010109 5.56139548,13.4123276 7.98381193,11.3642945 C9.96646204,9.68806201 13.0407054,9.24634408 16.11839,9.91540595 Z M11.7346535,13.3167644 C11.8358518,13.6755581 11.6270293,14.0484553 11.2682356,14.1496535 C9.67651735,14.5985997 9.01350839,15.9246176 9.28101897,18.3767979 C9.32144736,18.7473915 9.05379561,19.0805906 8.68320207,19.121019 C8.31260853,19.1614474 7.97940942,18.8937956 7.93898103,18.5232021 C7.60649161,15.4753824 8.59348265,13.5014003 10.9017644,12.8503465 C11.2605581,12.7491482 11.6334553,12.9579707 11.7346535,13.3167644 Z M18.279317,4.33550263 C18.6186945,4.48976514 18.7687599,4.88993946 18.6144974,5.22931699 C18.15634,6.23726314 18.0959181,7.75644222 18.467032,9.77812897 C18.5343395,10.1447947 18.2916617,10.4965994 17.924996,10.563907 C17.5583303,10.6312145 17.2065256,10.3885367 17.139218,10.021871 C16.7228319,7.75355778 16.79366,5.97273686 17.3855026,4.67068301 C17.5397651,4.33130549 17.9399395,4.18124012 18.279317,4.33550263 Z M25.8017802,4.39886489 C26.1270627,4.47393008 26.3486155,4.77550086 26.3230118,5.10834908 C26.1458954,7.41086171 24.0536048,9.08469422 20.214,10.2045789 C19.8561195,10.3089608 19.4813818,10.1034595 19.377,9.74557895 C19.2726182,9.38769843 19.4781195,9.01296077 19.836,8.90857895 C22.6891657,8.07640561 24.3148702,6.99476421 24.8158575,5.70939713 L24.8457035,5.62815 L24.8317842,5.62754531 C23.4184755,5.58514483 21.9634983,6.43801081 20.4439739,8.26127003 L20.323877,8.40722897 C20.0887969,8.69655822 19.6636792,8.74053591 19.37435,8.5054559 C19.0850207,8.27037588 19.041043,7.84525818 19.276123,7.55592893 C21.3726445,4.97559487 23.5605283,3.88165293 25.8017802,4.39886489 Z" id="icon"></path>
                </g>
            </g>
        </g>
    </g>
</svg>