<?xml version="1.0" encoding="UTF-8"?>
<svg width="13px" height="17px" viewBox="0 0 13 17" version="1.1" xmlns="http://www.w3.org/2000/svg" xmlns:xlink="http://www.w3.org/1999/xlink">
    <!-- Generator: Sketch 61.1 (89650) - https://sketch.com -->
    <title>spin bike</title>
    <desc>Created with Sketch.</desc>
    <g id="0.-Onboarding" stroke="none" stroke-width="1" fill="none" fill-rule="evenodd">
        <g id="onboarding-icons-copy" transform="translate(-275.000000, -8.000000)" fill="#333230">
            <g id="icon/equipment/spin-bike" transform="translate(271.600000, 7.000000)">
                <path d="M4.625,1.75 C4.81992403,1.75 4.98011217,1.89872202 4.99828336,2.088885 L5,2.125 L5,3.4475 L6.015,4.278 L6.07859278,4.30999097 C6.12283947,4.3385227 6.15965295,4.37552578 6.18768294,4.41793145 L7.61246417,5.58476601 C7.76273774,5.70771711 7.79289474,5.92305064 7.68801487,6.08156343 L7.66523399,6.11246417 C7.54228289,6.26273774 7.32694936,6.29289474 7.16843657,6.18801487 L7.13753583,6.16523399 L6.03946019,5.26835337 C5.16377458,7.83891029 5.15292783,10.5970042 6.0110851,13.5522731 C6.83921264,12.524667 8.04746829,12 9.625,12 C10.4802733,12 11.2270028,12.1542188 11.8633023,12.4591367 L13.113,8.5 L11.875,8.5 C11.6679783,8.5 11.5054632,8.33401722 11.5000392,8.13599724 L11.5055887,8.06049962 C11.7385644,6.7261845 12.4647489,6 13.625,6 C14.7852511,6 15.5114356,6.7261845 15.7444113,8.06049962 C15.7844702,8.28992805 15.6078994,8.5 15.375,8.5 L15.375,8.5 L13.899,8.5 L12.5231867,12.8585902 C13.5729251,13.6457857 14.2243227,14.9685101 14.4645777,16.8028765 L14.4979395,17.0857432 C14.5212463,17.3071578 14.3476379,17.5 14.125,17.5 L14.125,17.5 L5.125,17.5 C4.90236211,17.5 4.72875366,17.3071578 4.75206046,17.0857432 C4.86439962,16.0185211 5.10857206,15.1147114 5.48225881,14.378641 L5.51924376,14.4935854 C4.36110394,11.0191659 4.32691623,7.77120434 5.42239742,4.76292881 L4.38753583,3.91523399 C4.31015735,3.85192432 4.26167033,3.76071357 4.25185072,3.66223138 L4.25,3.625 L4.25,2.125 C4.25,1.91789322 4.41789322,1.75 4.625,1.75 Z M9.71345983,12.7506216 L9.625,12.75 C7.28284487,12.75 5.94526662,14.0427424 5.55063872,16.7432163 L5.55063872,16.7432163 L5.5495,16.75 L13.70025,16.75 L13.6830616,16.635875 C13.2741753,14.0421838 11.9699559,12.7825163 9.71345983,12.7506216 L9.71345983,12.7506216 Z M9.375,13.75 C9.56992403,13.75 9.73011217,13.898722 9.74828336,14.088885 L9.75,14.125 L9.75,15.25 L10.875,15.25 C11.069924,15.25 11.2301122,15.398722 11.2482834,15.588885 L11.25,15.625 C11.25,15.819924 11.101278,15.9801122 10.911115,15.9982834 L10.875,16 L9.375,16 C9.18007597,16 9.01988783,15.851278 9.00171664,15.661115 L9,15.625 L9,14.125 C9,13.9178932 9.16789322,13.75 9.375,13.75 Z M13.6832577,6.75087079 L13.625,6.75 C12.996754,6.75 12.5874411,7.04655078 12.364391,7.70486568 L12.364391,7.70486568 L12.34975,7.75 L14.9,7.75 L14.885609,7.70486568 C14.6695292,7.06712312 14.2786461,6.76888771 13.6832577,6.75087079 L13.6832577,6.75087079 Z" id="icon"></path>
            </g>
        </g>
    </g>
</svg>