<?xml version="1.0" encoding="UTF-8"?>
<svg width="60px" height="60px" viewBox="0 0 60 60" version="1.1" xmlns="http://www.w3.org/2000/svg" xmlns:xlink="http://www.w3.org/1999/xlink">
    <!-- Generator: Sketch 61.1 (89650) - https://sketch.com -->
    <title>stay perfect-selected</title>
    <desc>Created with Sketch.</desc>
    <g id="0.-Onboarding" stroke="none" stroke-width="1" fill="none" fill-rule="evenodd">
        <g id="onboarding-icons" transform="translate(-266.000000, -224.000000)">
            <g id="stay-perfect-selected" transform="translate(266.000000, 224.000000)">
                <circle id="Oval" fill="#FAF9F7" cx="30" cy="30" r="30"></circle>
                <circle id="Oval-Copy" fill="#334D7E" cx="30" cy="30" r="30"></circle>
                <g id="icon/onboarding/stay-perfect" transform="translate(12.000000, 12.000000)" fill="#FFFFFF">
                    <path d="M24.0391977,21.9733098 C26.1045917,20.9374705 28.5731496,22.0385755 29.2160897,24.4816722 L29.2160897,24.4816722 L29.24055,24.5808 L29.6638491,24.5454071 C30.0648266,24.5158593 30.3708635,24.5091594 30.700519,24.5289424 C32.394251,24.6305852 33.5138574,25.509465 33.6859784,27.4085575 C33.8298215,28.9956458 32.6181252,30.5757826 30.9570484,30.8534711 C30.4813939,30.9329881 29.8294257,31.0478488 29.0014479,31.1980034 L29.0014479,31.1980034 L25.0085571,31.9383701 C24.6690326,32.0022246 24.336098,31.7994095 24.2371023,31.4684198 L24.2371023,31.4684198 L22.6111149,26.0319701 L22.5987892,25.984555 C22.1765412,24.0786576 22.6435944,22.6732347 24.0391977,21.9733098 Z M18,4.5 C25.4558441,4.5 31.5,10.5441559 31.5,18 C31.5,19.1733865 31.3501309,20.3275971 31.057028,21.4422382 C30.9622225,21.8027738 30.5930956,22.0181907 30.23256,21.9233852 C29.8720243,21.8285798 29.6566075,21.4594529 29.7514129,21.0989173 C30.0151122,20.096095 30.15,19.0572627 30.15,18 C30.15,11.2897403 24.7102597,5.85 18,5.85 C11.2897403,5.85 5.85,11.2897403 5.85,18 C5.85,24.7102597 11.2897403,30.15 18,30.15 C19.2085986,30.15 20.392787,29.9737199 21.525934,29.630678 C21.8827346,29.5226624 22.2595425,29.7243425 22.3675581,30.0811431 C22.4755737,30.4379437 22.2738936,30.8147517 21.9170931,30.9227673 C20.657453,31.3041029 19.3414841,31.5 18,31.5 C10.5441559,31.5 4.5,25.4558441 4.5,18 C4.5,10.5441559 10.5441559,4.5 18,4.5 Z M28.0060972,25.3618686 C27.8068532,23.3633662 26.0774578,22.4613443 24.6444043,23.1800512 C23.8720244,23.5674163 23.6164165,24.3365732 23.9168296,25.6925456 L23.91165,25.66935 L25.35615,30.4992 L26.207193,30.3403347 C28.0254698,30.0011987 29.3934559,29.7524093 30.312397,29.5937618 L30.312397,29.5937618 L30.7344528,29.521949 C31.697121,29.3610161 32.4217566,28.4160405 32.3414892,27.530413 C32.2356893,26.3630725 31.6983301,25.9412509 30.6196495,25.8765181 C30.291801,25.8568435 29.9711345,25.8710755 29.4636462,25.9164348 L29.4636462,25.9164348 L29.0465805,25.9530441 C28.9508535,25.9609622 28.8898119,25.9651724 28.8376269,25.9674056 L28.8376269,25.9674056 L28.6777674,25.9699054 C28.3309076,25.9699054 28.0405073,25.7070174 28.0060972,25.3618686 Z M17.2602038,18.225 C18.3610373,18.225 19.8391603,19.0914371 20.3725396,20.1410894 L20.3725396,20.1410894 L20.4123393,20.2228103 C20.9317692,21.3378187 20.4475132,22.3757422 19.053,23.1597 L19.053,23.1597 L19.1856056,23.2310521 C20.5844264,24.0168241 21.0098537,25.0439324 20.3486765,26.1394161 C19.7720381,27.0948303 18.266232,27.9 17.2602038,27.9 C16.8874116,27.9 16.5852034,27.5977922 16.5852034,27.225 C16.5852034,26.8522078 16.8874116,26.55 17.2602038,26.55 L17.2602038,26.55 L17.330847,26.5470843 C17.8917426,26.5027078 18.8804943,25.9594065 19.1928742,25.4418339 C19.4905437,24.9486346 19.070929,24.4154194 17.0684734,23.8221974 C16.4276159,23.6323451 16.4228858,22.7263736 17.0617259,22.5298399 C18.9985789,21.9339838 19.4616692,21.3285906 19.1690112,20.7526606 C18.8707615,20.1657265 17.8629948,19.575 17.2602038,19.575 L17.2602038,19.575 L17.1951968,19.57191 C16.8529035,19.5392019 16.5852034,19.2508633 16.5852034,18.9 C16.5852034,18.5272078 16.8874116,18.225 17.2602038,18.225 Z M13.5,13.95 C14.2455844,13.95 14.85,14.5544156 14.85,15.3 C14.85,16.0455844 14.2455844,16.65 13.5,16.65 C12.7544156,16.65 12.15,16.0455844 12.15,15.3 C12.15,14.5544156 12.7544156,13.95 13.5,13.95 Z M26.5321245,15.2314506 C26.8185114,15.4701064 26.8572051,15.8957376 26.6185494,16.1821245 C26.3798936,16.4685114 25.9542624,16.5072051 25.6678755,16.2685494 C24.1181965,14.9771502 22.6818035,14.9771502 21.1321245,16.2685494 C20.8457376,16.5072051 20.4201064,16.4685114 20.1814506,16.1821245 C19.9427949,15.8957376 19.9814886,15.4701064 20.2678755,15.2314506 C22.3181965,13.5228498 24.4818035,13.5228498 26.5321245,15.2314506 Z" id="Shape"></path>
                </g>
            </g>
        </g>
    </g>
</svg>