<?xml version="1.0" encoding="UTF-8"?>
<svg width="60px" height="60px" viewBox="0 0 60 60" version="1.1" xmlns="http://www.w3.org/2000/svg" xmlns:xlink="http://www.w3.org/1999/xlink">
    <!-- Generator: Sketch 61.1 (89650) - https://sketch.com -->
    <title>strength-selected</title>
    <desc>Created with Sketch.</desc>
    <g id="0.-Onboarding" stroke="none" stroke-width="1" fill="none" fill-rule="evenodd">
        <g id="onboarding-icons" transform="translate(-92.000000, -562.000000)">
            <g id="strength-selected" transform="translate(92.000000, 562.000000)">
                <circle id="Oval" fill="#FAF9F7" cx="30" cy="30" r="30"></circle>
                <circle id="Oval-Copy" fill="#334D7E" cx="30" cy="30" r="30"></circle>
                <g id="icon/fitness/goals/strength" transform="translate(12.000000, 12.000000)" fill="#FFFFFF">
                    <path d="M20.25,1.575 C23.853658,1.575 26.775,4.49634201 26.775,8.1 C26.775,11.703658 23.853658,14.625 20.25,14.625 C18.5917951,14.625 17.0780592,14.0064545 15.9269362,12.9875073 L16.0835461,12.7540135 C13.8172891,16.0937607 12.919644,18.519036 13.2618374,20.0021017 L13.2768,20.0637 L13.3221003,20.030046 C14.9185206,18.8659977 16.8545279,18.6465406 18.376387,19.5870338 L18.4545,19.63665 L19.0707136,19.1654797 C21.7617278,17.0965523 23.71643,16.7281003 27.4002525,18.5667176 L27.5517,18.64305 L27.6038442,18.6333581 C28.9651556,18.3598114 30.1518123,17.9228368 31.1665868,17.3244336 L31.3672507,17.2026011 C31.6833779,17.0050217 32.0998194,17.1011236 32.2973989,17.4172507 C32.4949783,17.7333779 32.3988764,18.1498194 32.0827493,18.3473989 C30.8068676,19.1448249 29.3015218,19.699426 27.5707477,20.0141122 C27.423134,20.040951 27.2707856,20.0178453 27.1377679,19.9484448 L26.7970419,19.7741141 C23.6783941,18.2116003 22.2509229,18.4529054 20.014167,20.143764 L19.3357167,20.663689 C19.1484836,20.8052828 18.9981293,20.915252 18.8370871,21.0279815 C18.5846739,21.2046708 18.24465,21.1880132 18.0107158,20.9874982 C16.7896721,19.9408893 14.9419864,20.2126077 13.5272971,21.6272971 C13.2340066,21.9205875 12.7480623,21.8824597 12.5041031,21.5470159 C11.0749898,19.581985 11.9685296,16.4139802 14.9664539,11.9959865 L14.9917295,11.9641756 C14.5762214,11.3997111 14.2494231,10.7659182 14.0318976,10.0833598 C8.46080585,14.2151899 5.60240055,19.0134519 5.40229192,24.5055058 C5.32031139,26.755491 7.60266657,28.3646292 11.402317,28.9654354 C14.8370591,29.5085417 18.7571001,29.0517939 20.7697201,27.9021462 L20.8494,27.85455 L20.8772394,27.8329395 C21.1461443,27.6354018 21.4347543,27.6716612 21.7133462,27.8111661 L21.7728803,27.8425927 C21.9251529,27.9270205 22.091097,28.0549857 22.286889,28.2318937 C22.6323749,28.5440579 23.0951612,29.0332945 23.683124,29.7056635 C23.9285243,29.9862926 23.8999657,30.4127238 23.6193365,30.658124 C23.3387074,30.9035243 22.9122762,30.8749657 22.666876,30.5943365 L22.4511441,30.3496139 C22.0679339,29.9186348 21.752552,29.5850352 21.5081046,29.3512051 L21.3553378,29.209825 L21.29265,29.15505 L21.1637439,29.2230053 C18.84753,30.406721 14.9311496,30.8444678 11.4198739,30.3335374 L11.1914726,30.2988688 C6.80131864,29.6046913 3.93912782,27.5867493 4.05318715,24.4563498 C4.2756032,18.3520605 7.52610466,13.0642485 13.7455646,8.62239022 C13.7319758,8.45056187 13.725,8.27609557 13.725,8.1 C13.725,4.49634201 16.646342,1.575 20.25,1.575 Z M20.25,2.925 C17.3919264,2.925 15.075,5.24192642 15.075,8.1 C15.075,10.9580736 17.3919264,13.275 20.25,13.275 C23.1080736,13.275 25.425,10.9580736 25.425,8.1 C25.425,5.24192642 23.1080736,2.925 20.25,2.925 Z M20.25,5.625 C21.6169048,5.625 22.725,6.73309524 22.725,8.1 C22.725,9.46690476 21.6169048,10.575 20.25,10.575 C18.8830952,10.575 17.775,9.46690476 17.775,8.1 C17.775,6.73309524 18.8830952,5.625 20.25,5.625 Z M20.25,6.975 C19.6286797,6.975 19.125,7.47867966 19.125,8.1 C19.125,8.72132034 19.6286797,9.225 20.25,9.225 C20.8713203,9.225 21.375,8.72132034 21.375,8.1 C21.375,7.47867966 20.8713203,6.975 20.25,6.975 Z" id="Combined-Shape"></path>
                </g>
            </g>
        </g>
    </g>
</svg>