<?xml version="1.0" encoding="UTF-8"?>
<svg width="18px" height="18px" viewBox="0 0 18 18" version="1.1" xmlns="http://www.w3.org/2000/svg" xmlns:xlink="http://www.w3.org/1999/xlink">
    <!-- Generator: Sketch 61.1 (89650) - https://sketch.com -->
    <title>sweet potato</title>
    <desc>Created with Sketch.</desc>
    <g id="0.-Onboarding" stroke="none" stroke-width="1" fill="none" fill-rule="evenodd">
        <g id="onboarding-icons-copy" transform="translate(-336.000000, -338.000000)" fill="#333230">
            <g id="icon/food/grain/sweet-potato" transform="translate(335.000000, 337.000000)">
                <path d="M17.1308346,1.12448923 L17.3347383,1.12674059 C17.7312802,1.142907 18.1404726,1.27057752 18.4487496,1.46325064 C18.8618591,1.72144405 19.0966705,2.10419749 18.8243028,2.44895574 L18.8243028,2.44895574 L18.7981667,2.48012339 L18.7908195,2.50501803 C18.7808894,2.54124201 18.7704778,2.58953959 18.7602333,2.64929893 C18.7367881,2.78606285 18.7159248,2.97195427 18.6981274,3.20530965 L18.6981274,3.20530965 L18.686722,3.36789335 C18.6522388,3.90238306 18.6321363,4.63694027 18.6263223,5.58096447 L18.6263223,5.58096447 L18.6245546,6.14327096 C18.4544429,9.63056169 17.6409407,12.3279638 16.1717319,14.2292928 C14.0640827,16.9568388 11.1731341,18.3546601 7.40171764,18.624047 C5.19531859,18.7816469 3.16430594,18.016476 1.32826345,16.344309 C1.23326753,16.257792 1.15849135,16.1514152 1.10924793,16.032737 C0.924041952,15.5863847 1.13574284,15.0744056 1.57904599,14.8904806 L1.57904599,14.8904806 L1.71776495,14.8314983 C2.88940972,14.3208634 3.93034763,13.5458449 4.84278374,12.5030608 C5.34076782,11.9339361 5.71363288,11.1898369 6.22819204,9.83637185 L6.22819204,9.83637185 L6.32052178,9.59111106 L6.81671669,8.25519532 C6.88149516,8.08483027 6.94208663,7.92870818 7.00311795,7.77518188 L7.00311795,7.77518188 L7.0653938,7.61998031 C7.7924569,5.82512319 8.54040999,4.58146585 9.6227477,3.59752247 C10.3391973,2.94620463 11.161347,2.4337495 12.0690667,2.04568374 C13.0447477,1.6285633 14.0811821,1.36942075 15.148766,1.23441344 C15.87214,1.14293512 16.4322401,1.12061792 17.1308346,1.12448923 L17.1308346,1.12448923 Z M17.25,1.875 L16.9475416,1.8741139 C16.3603511,1.87515819 15.865181,1.89978848 15.242862,1.97848732 C14.2402357,2.10528005 13.270326,2.34778924 12.3638918,2.73530547 C11.5302087,3.09171934 10.7790821,3.55990498 10.1272523,4.15247753 C9.11551935,5.07223475 8.40851176,6.27012529 7.70006748,8.05224027 L7.70006748,8.05224027 L7.66426608,8.14273653 C7.56868693,8.38549848 7.47146259,8.64172271 7.35399251,8.95829723 L7.35399251,8.95829723 L7.03427329,9.82355836 L6.92575461,10.1120991 C6.38207903,11.5415344 5.97976696,12.3425956 5.40721626,12.9969392 C4.42326973,14.1214495 3.29260047,14.9632765 2.01435712,15.5203539 L2.01435712,15.5203539 L1.86953261,15.5819331 C1.80576649,15.6083917 1.77552279,15.6815333 1.80198141,15.7452995 C1.80901635,15.7622539 1.81969892,15.7774509 1.83327008,15.7898108 C3.52248806,17.328258 5.35429756,18.0183805 7.34828236,17.875953 C10.9168659,17.6210542 13.6087642,16.319477 15.5782681,13.7707072 C16.9423927,12.0053695 17.7122238,9.45277164 17.875,6.125 C17.875,3.83443564 17.931141,2.63702667 18.125662,2.16317529 L18.125662,2.16317529 L18.1295,2.154 L18.1043026,2.13491497 L18.0791743,2.1173619 L18.0512504,2.09924936 C17.8384437,1.96624519 17.5296138,1.875 17.25,1.875 L17.25,1.875 Z M7.56772366,14.0507604 L7.5854102,14.0822949 C7.6014986,14.1144717 7.62411064,14.1472945 7.66249889,14.1938557 L7.77245798,14.3224309 C7.92106385,14.5007579 8,14.6586302 8,14.875 C8,15.0821068 7.83210678,15.25 7.625,15.25 C7.41789322,15.25 7.25,15.0821068 7.25,14.875 L7.24532168,14.8658147 C7.24039668,14.8581271 7.23065535,14.8446817 7.2120097,14.8216757 L7.11805655,14.7116394 C7.02740231,14.6058761 6.96720833,14.5229421 6.9145898,14.4177051 C6.82196884,14.2324632 6.89705297,14.0072108 7.0822949,13.9145898 C7.25664025,13.8274171 7.46642739,13.8887998 7.56772366,14.0507604 Z M11.0474027,12.5215348 L11.0679994,12.5512504 C11.1059226,12.6119275 11.1548554,12.6705817 11.2287259,12.7444392 L11.3293382,12.8405136 C11.36641,12.8747588 11.4497467,12.9519251 11.4784494,12.9794798 C11.7409789,13.2315081 11.875,13.4459418 11.875,13.75 C11.875,13.9571068 11.7071068,14.125 11.5,14.125 C11.2928932,14.125 11.125,13.9571068 11.125,13.75 C11.125,13.7078867 11.0931922,13.6534847 10.9892247,13.5499907 L10.9158488,13.4799236 L10.8532443,13.4217989 C10.8231136,13.3938993 10.7989486,13.3716055 10.7996862,13.3722939 C10.6329368,13.2166611 10.5252856,13.0980055 10.4320006,12.9487496 C10.3222343,12.7731234 10.3756242,12.541767 10.5512504,12.4320006 C10.7165456,12.3286911 10.9312074,12.3699076 11.0474027,12.5215348 Z M14.1185854,8.76924376 C14.5135183,8.90088805 14.8130952,9.35025351 15.1011234,10.1183287 C15.1738435,10.3122488 15.0755914,10.5284034 14.8816713,10.6011234 C14.6877512,10.6738435 14.4715966,10.5755914 14.3988766,10.3816713 C14.1957369,9.83996557 14.0032037,9.54129091 13.8950386,9.48651736 L13.8814146,9.48075624 C13.6849358,9.41526332 13.5787508,9.20289333 13.6442438,9.00641459 C13.7097367,8.80993584 13.9221067,8.70375085 14.1185854,8.76924376 Z M9.5854102,8.8322949 C9.68173012,9.02493475 9.84850553,9.125 10.25,9.125 C10.4571068,9.125 10.625,9.29289322 10.625,9.5 C10.625,9.70710678 10.4571068,9.875 10.25,9.875 C9.56816113,9.875 9.13969845,9.61792239 8.9145898,9.1677051 C8.82196884,8.98246316 8.89705297,8.75721077 9.0822949,8.6645898 C9.26753684,8.57196884 9.49278923,8.64705297 9.5854102,8.8322949 Z M13.2104102,4.7072949 L13.2146986,4.71033486 C13.2305139,4.71881152 13.2927239,4.74155645 13.4546764,4.77655214 L13.7116943,4.82890046 C13.8058295,4.84830236 13.8856272,4.86611564 13.9659509,4.88619656 C14.3876087,4.99161101 14.7507463,5.250995 15.05,5.65 C15.1742641,5.81568542 15.1406854,6.05073593 14.975,6.175 C14.8093146,6.29926407 14.5742641,6.26568542 14.45,6.1 C14.2492537,5.83233833 14.029058,5.67505565 13.7840491,5.61380344 L13.6780959,5.58871837 L13.4714597,5.54549333 C13.4208363,5.5353017 13.3654006,5.5241552 13.3453192,5.52000044 C12.9005629,5.4279819 12.6833568,5.33023915 12.5395898,5.0427051 C12.4469688,4.85746316 12.522053,4.63221077 12.7072949,4.5395898 C12.8925368,4.44696884 13.1177892,4.52205297 13.2104102,4.7072949 Z" id="icon"></path>
            </g>
        </g>
    </g>
</svg>