<?xml version="1.0" encoding="UTF-8"?>
<svg width="30px" height="30px" viewBox="0 0 30 30" version="1.1" xmlns="http://www.w3.org/2000/svg" xmlns:xlink="http://www.w3.org/1999/xlink">
    <!-- Generator: Sketch 61.1 (89650) - https://sketch.com -->
    <title>thumbs down copy</title>
    <desc>Created with Sketch.</desc>
    <g id="0.-Onboarding" stroke="none" stroke-width="1" fill="none" fill-rule="evenodd">
        <g id="onboarding-icons-copy" transform="translate(-325.000000, -127.000000)">
            <g id="thumbs-down-copy" transform="translate(325.000000, 127.000000)">
                <circle id="Oval-Copy-2" stroke="#E8E7E6" cx="15" cy="15" r="14.5"></circle>
                <g id="icon/thumbs/down" transform="translate(5.000000, 5.000000)" fill="#C0BFBE">
                    <path d="M14.4659509,2.87369656 C15.8350931,3.21598213 16.3076105,3.96310825 16.3681276,5.2947422 L16.37275,5.43275 L16.375796,5.43533249 C16.8974574,5.89843362 17.0755164,6.50665055 16.9174941,7.4331468 L16.9055,7.4985 L16.9453117,7.54592816 C17.3804791,8.08046204 17.4546082,8.66324632 17.1857642,9.50150435 L17.1645,9.56575 L17.2101757,9.64274364 C17.6963066,10.4854122 17.7504983,11.2780784 17.4254985,11.944594 L17.3939205,12.0067079 C17.0846725,12.590843 16.4851094,13.0159878 15.9366496,13.1073977 C15.9162753,13.1107934 15.8956553,13.1125 15.875,13.1125 C15.2475142,13.1125 14.3530694,13.029328 13.1859256,12.8636288 C13.1650724,12.8606683 13.1438093,12.8630248 13.1241104,12.8704796 C13.0595419,12.8949148 13.0270088,12.9670643 13.0514464,13.0316356 C14.3021521,16.3365487 13.6963143,18.164189 11.2011882,18.1145784 L11.125,18.1125 C10.7909445,18.1125 10.5514077,17.9331248 10.4335405,17.626811 C10.3707848,17.4637213 10.3424512,17.2954497 10.3155253,16.9776693 L10.2853645,16.593284 C10.2040369,15.5974487 10.1090803,15.0800414 9.81327865,14.3415167 L9.77824571,14.2552812 C9.00925767,12.3877388 8.50502843,11.8625 7.75,11.8625 C7.54289322,11.8625 7.37490591,11.6946068 7.37490591,11.4875 C7.37490591,11.2803932 7.54289322,11.1125 7.75,11.1125 C8.88997157,11.1125 9.59964791,11.8517462 10.4717543,13.9697188 L10.5476512,14.1592326 C10.8475721,14.9313336 10.9483948,15.5015796 11.032045,16.5220456 L11.0657437,16.946512 C11.084004,17.1505136 11.1020017,17.2649325 11.1270854,17.3396009 L11.1335082,17.3574687 L11.135,17.363 L11.1379234,17.3627228 C13.0120747,17.4273487 13.4430799,16.2369461 12.3857923,13.3925252 L12.3499981,13.297098 C12.1789458,12.8451285 12.4066821,12.3400725 12.8586546,12.1690289 C12.9965419,12.116847 13.1453788,12.1003518 13.2913459,12.1210747 L13.6882566,12.1756002 C14.5869101,12.2946762 15.2931016,12.3567204 15.8034289,12.3621147 L15.83925,12.36225 L15.8618945,12.3578997 C16.1562994,12.2895577 16.5034536,12.0407836 16.6997884,11.7114159 L16.7310795,11.6557921 C16.9881254,11.170261 16.9302016,10.5588433 16.4379811,9.82051257 C16.3710802,9.72016114 16.3565285,9.59375695 16.3988766,9.48082871 C16.7073274,8.65829323 16.6529505,8.29578055 16.234835,7.87766504 C16.1441749,7.78700502 16.1061166,7.6563106 16.1339299,7.53115108 C16.3324807,6.63767246 16.213618,6.24146347 15.775,5.9125 C15.6805728,5.84167961 15.625,5.73053399 15.625,5.6125 C15.625,4.3856252 15.3574606,3.86965629 14.2840491,3.60130344 C13.3612684,3.37060826 11.8324698,3.53153444 9.71595086,4.10130344 L9.32816455,4.2012 C8.97496361,4.29392532 8.48155716,4.42668058 7.84866903,4.59928643 C7.6488599,4.65377983 7.44270697,4.53597816 7.38821357,4.33616903 C7.33372017,4.1363599 7.45152184,3.93020697 7.65133097,3.87571357 L8.66066063,3.60247949 C9.04779752,3.49874802 9.33702622,3.42297883 9.52750995,3.37539409 C11.7508635,2.7767989 13.3887316,2.60439174 14.4659509,2.87369656 Z M5.6875,3.25 C6.40003555,3.25 6.97151423,3.8401966 6.99896736,4.56868463 L7,4.62357347 L7,11.375 C7,12.2529527 6.30375095,12.9682876 5.43328353,12.9989742 L5.375,13 L4.125,13 C3.91789322,13 3.75,12.8321068 3.75,12.625 C3.75,12.430076 3.89872202,12.2698878 4.088885,12.2517166 L4.125,12.25 L5.375,12.25 C5.84214085,12.25 6.22378161,11.8839306 6.24870528,11.4230088 L6.25,11.375 L6.25,4.62357347 C6.25,4.28864015 6.01368116,4.02297075 5.72538365,4.00141312 L5.6875,4 L3.8125,4 C3.52003108,4 3.27152603,4.25171384 3.25132503,4.58029368 L3.25,4.62357347 L3.25,12.625 C3.25,12.8321068 3.08210678,13 2.875,13 C2.68007597,13 2.51988783,12.851278 2.50171664,12.661115 L2.5,12.625 L2.5,4.62357347 C2.5,3.88845331 3.05409976,3.28032695 3.75933061,3.25109956 L3.8125,3.25 L5.6875,3.25 Z M4.75,9.75 C5.30228475,9.75 5.75,10.1977153 5.75,10.75 C5.75,11.3022847 5.30228475,11.75 4.75,11.75 C4.19771525,11.75 3.75,11.3022847 3.75,10.75 C3.75,10.1977153 4.19771525,9.75 4.75,9.75 Z M4.75,10.5 C4.61192881,10.5 4.5,10.6119288 4.5,10.75 C4.5,10.8880712 4.61192881,11 4.75,11 C4.88807119,11 5,10.8880712 5,10.75 C5,10.6119288 4.88807119,10.5 4.75,10.5 Z" id="icon"></path>
                </g>
            </g>
        </g>
    </g>
</svg>