<?xml version="1.0" encoding="UTF-8"?>
<svg width="16px" height="16px" viewBox="0 0 16 16" version="1.1" xmlns="http://www.w3.org/2000/svg" xmlns:xlink="http://www.w3.org/1999/xlink">
    <!-- Generator: Sketch 61.1 (89650) - https://sketch.com -->
    <title>thumbs up-icon</title>
    <desc>Created with Sketch.</desc>
    <g id="0.-Onboarding" stroke="none" stroke-width="1" fill="none" fill-rule="evenodd">
        <g id="onboarding-icons-copy" transform="translate(-83.000000, -89.000000)" fill="#333230">
            <g id="icon/thumbs/up" transform="translate(81.000000, 87.000000)">
                <path d="M11.2011882,2.00109427 C13.6963143,1.95148363 14.3021521,3.77912398 13.0514464,7.08403707 C13.0270088,7.14860839 13.0595419,7.22075781 13.1241104,7.24519301 C13.1438093,7.25264782 13.1650724,7.25500437 13.1859256,7.25204384 C14.3530694,7.0863446 15.2475142,7.00317265 15.875,7.00317265 C15.8956553,7.00317265 15.9162753,7.00487921 15.9366496,7.00827493 C16.4851094,7.09968488 17.0846725,7.52482963 17.3939205,8.10896475 L17.3939205,8.10896475 L17.4254985,8.17107868 C17.7504983,8.83759425 17.6963066,9.63026045 17.2101757,10.472929 L17.2101757,10.472929 L17.1645,10.5499226 L17.1857642,10.6141683 C17.4546082,11.4524263 17.3804791,12.0352106 16.9453117,12.5697445 L16.9453117,12.5697445 L16.9055,12.6171726 L16.9174941,12.6825258 C17.0755164,13.6090221 16.8974574,14.217239 16.375796,14.6803402 L16.375796,14.6803402 L16.37275,14.6829226 L16.3681276,14.8209304 C16.3076105,16.1525644 15.8350931,16.8996905 14.4659509,17.2419761 C13.3887316,17.5112809 11.7508635,17.3388738 9.52750995,16.7402786 C9.33702622,16.6926938 9.04779752,16.6169246 8.66066063,16.5131932 L8.66066063,16.5131932 L7.65133097,16.2399591 C7.45152184,16.1854657 7.33372017,15.9793128 7.38821357,15.7795036 C7.44270697,15.5796945 7.6488599,15.4618928 7.84866903,15.5163862 C8.48155716,15.6889921 8.97496361,15.8217473 9.32816455,15.9144727 L9.32816455,15.9144727 L9.71595086,16.0143692 C11.8324698,16.5841382 13.3612684,16.7450644 14.2840491,16.5143692 C15.3136479,16.2569695 15.6018175,15.7717548 15.6236263,14.6498807 L15.6236263,14.6498807 L15.625,14.5031726 C15.625,14.3851387 15.6805728,14.273993 15.775,14.2031726 C16.213618,13.8742092 16.3324807,13.4780002 16.1339299,12.5845216 C16.1061166,12.4593621 16.1441749,12.3286676 16.234835,12.2380076 C16.6529505,11.8198921 16.7073274,11.4573794 16.3988766,10.6348439 C16.3565285,10.5219157 16.3710802,10.3955115 16.4379811,10.2951601 C16.9302016,9.55682935 16.9881254,8.94541164 16.7310795,8.45988054 L16.7310795,8.45988054 L16.6997884,8.4042568 C16.5034536,8.07488903 16.1562994,7.826115 15.8618945,7.75777293 L15.8618945,7.75777293 L15.83925,7.75342265 L15.8034289,7.75355794 C15.2931016,7.75895229 14.5869101,7.82099643 13.6882566,7.94007247 L13.6882566,7.94007247 L13.2913459,7.99459792 C13.1453788,8.01532086 12.9965419,7.99882563 12.8586546,7.94664379 C12.4066821,7.77560013 12.1789458,7.27054419 12.3499981,6.81857467 L12.3499981,6.81857467 L12.3857923,6.72314749 C13.4430799,3.87872656 13.0120747,2.68832399 11.1379234,2.7529499 L11.1379234,2.7529499 L11.135,2.75267265 L11.1335082,2.75820392 L11.1270854,2.77607172 C11.1020017,2.85074011 11.084004,2.96515901 11.0657437,3.16916061 L11.0657437,3.16916061 L11.032045,3.59362709 C10.9483948,4.61409301 10.8475721,5.18433905 10.5476512,5.9564401 L10.5476512,5.9564401 L10.4717543,6.14595382 C9.59964791,8.26392646 8.88997157,9.00317265 7.75,9.00317265 C7.54289322,9.00317265 7.37490591,8.83527943 7.37490591,8.62817265 C7.37490591,8.42106587 7.54289322,8.25317265 7.75,8.25317265 C8.50502843,8.25317265 9.00925767,7.72793386 9.77824571,5.86039147 L9.77824571,5.86039147 L9.81327865,5.77415599 C10.1090803,5.03563124 10.2040369,4.51822395 10.2853645,3.52238864 L10.2853645,3.52238864 L10.3155253,3.13800332 C10.3424512,2.82022295 10.3707848,2.65195137 10.4335405,2.48886166 C10.5514077,2.18254787 10.7909445,2.00317265 11.125,2.00317265 L11.125,2.00317265 Z M5.6875,7.5 C6.40003555,7.5 6.97151423,8.0901966 6.99896736,8.81868463 L7,8.87357347 L7,15.625 C7,16.5029527 6.30375095,17.2182876 5.43328353,17.2489742 L5.375,17.25 L4.125,17.25 C3.91789322,17.25 3.75,17.0821068 3.75,16.875 C3.75,16.680076 3.89872202,16.5198878 4.088885,16.5017166 L4.125,16.5 L5.375,16.5 C5.84214085,16.5 6.22378161,16.1339306 6.24870528,15.6730088 L6.25,15.625 L6.25,8.87357347 C6.25,8.53864015 6.01368116,8.27297075 5.72538365,8.25141312 L5.6875,8.25 L3.8125,8.25 C3.52003108,8.25 3.27152603,8.50171384 3.25132503,8.83029368 L3.25,8.87357347 L3.25,16.875 C3.25,17.0821068 3.08210678,17.25 2.875,17.25 C2.68007597,17.25 2.51988783,17.101278 2.50171664,16.911115 L2.5,16.875 L2.5,8.87357347 C2.5,8.13845331 3.05409976,7.53032695 3.75933061,7.50109956 L3.8125,7.5 L5.6875,7.5 Z M4.75,14 C5.30228475,14 5.75,14.4477153 5.75,15 C5.75,15.5522847 5.30228475,16 4.75,16 C4.19771525,16 3.75,15.5522847 3.75,15 C3.75,14.4477153 4.19771525,14 4.75,14 Z M4.75,14.75 C4.61192881,14.75 4.5,14.8619288 4.5,15 C4.5,15.1380712 4.61192881,15.25 4.75,15.25 C4.88807119,15.25 5,15.1380712 5,15 C5,14.8619288 4.88807119,14.75 4.75,14.75 Z" id="icon"></path>
            </g>
        </g>
    </g>
</svg>