<?xml version="1.0" encoding="UTF-8"?>
<svg width="17px" height="16px" viewBox="0 0 17 16" version="1.1" xmlns="http://www.w3.org/2000/svg" xmlns:xlink="http://www.w3.org/1999/xlink">
    <!-- Generator: Sketch 61.1 (89650) - https://sketch.com -->
    <title>tofu</title>
    <desc>Created with Sketch.</desc>
    <g id="0.-Onboarding" stroke="none" stroke-width="1" fill="none" fill-rule="evenodd">
        <g id="onboarding-icons-copy" transform="translate(-336.000000, -259.000000)" fill="#333230">
            <g id="icon/food/protein/tofu" transform="translate(335.000000, 257.000000)">
                <path d="M12.875,2 L12.8933341,2.0004484 C12.9061387,2.00107571 12.9189105,2.00235549 12.9315954,2.00428475 L12.875,2 C12.9090247,2 12.941991,2.0045314 12.9733284,2.01302364 C12.9840857,2.01597394 12.995128,2.01950238 13.0060131,2.02354958 C13.0177422,2.02791009 13.0288286,2.03268961 13.0396238,2.03797253 C13.0518354,2.04388236 13.0644704,2.05093938 13.0767347,2.05877263 C13.0872651,2.06558135 13.0970753,2.07255993 13.1065201,2.07998229 C13.1134817,2.08538679 13.1205621,2.0913777 13.1274567,2.09766917 L13.1355822,2.10532953 C13.138663,2.10830711 13.1416929,2.11133701 13.1446705,2.11441778 L13.1544655,2.12495193 L17.4044655,6.87495193 C17.4825102,6.96217833 17.5122421,7.07582634 17.4954834,7.18309961 C17.4984223,7.20400384 17.5,7.22681768 17.5,7.25 L17.5,17 C17.5,17.2761424 17.2761424,17.5 17,17.5 L6.75,17.5 L6.68647173,17.4949566 C6.58306983,17.5120482 6.47388414,17.4856986 6.38831556,17.4159076 L6.35983496,17.390165 L1.85983496,12.890165 L1.84271035,12.8718631 C1.83235829,12.8600352 1.82273764,12.8475508 1.81391898,12.8344807 L1.85983496,12.890165 C1.83588598,12.8662161 1.81585347,12.8398337 1.79973743,12.8118139 C1.77387779,12.7669552 1.75693688,12.7157452 1.75171664,12.661115 L1.75,12.625 L1.75,2.875 C1.75,2.40785915 2.1160694,2.02621839 2.5769912,2.00129472 L2.625,2 L12.875,2 Z M16.75,7.5 L7,7.5 L7,16.75 L16.75,16.75 L16.75,7.5 Z M2.5,3.303 L2.5,12.469 L6.25,16.219 L6.25,7.274 L2.5,3.303 Z M12.707,2.75 L3.009,2.75 L6.786,6.75 L16.286,6.75 L12.707,2.75 Z" id="icon"></path>
            </g>
        </g>
    </g>
</svg>