<?xml version="1.0" encoding="UTF-8"?>
<svg width="60px" height="60px" viewBox="0 0 60 60" version="1.1" xmlns="http://www.w3.org/2000/svg" xmlns:xlink="http://www.w3.org/1999/xlink">
    <!-- Generator: Sketch 61.1 (89650) - https://sketch.com -->
    <title>tone up</title>
    <desc>Created with Sketch.</desc>
    <g id="0.-Onboarding" stroke="none" stroke-width="1" fill="none" fill-rule="evenodd">
        <g id="onboarding-icons" transform="translate(-11.000000, -306.000000)">
            <g id="tone-up" transform="translate(11.000000, 306.000000)">
                <circle id="Oval" fill="#FAF9F7" cx="30" cy="30" r="30"></circle>
                <circle id="Oval-Copy" fill="#FAF9F7" cx="30" cy="30" r="30"></circle>
                <g id="icon/onboarding/tone-up" transform="translate(12.000000, 12.000000)">
                    <path d="M21.825,6.75 C22.2496641,6.75 22.5688337,7.13746567 22.4875061,7.55426949 L22.4875061,7.55426949 L20.71215,16.6518 L22.4880785,25.9736993 C22.5635351,26.3698461 22.2778989,26.7382309 21.8847474,26.7724169 L21.8847474,26.7724169 L21.825,26.775 L13.05,26.775 C12.6265675,26.775 12.3076921,26.3896534 12.3869215,25.9736993 L12.3869215,25.9736993 L14.1624,16.6518 L12.3874939,7.55426949 C12.310039,7.15731347 12.5958469,6.78696802 12.9900832,6.75259715 L12.9900832,6.75259715 L13.05,6.75 Z M4.75688687,24.3844101 C4.90447716,24.1844517 5.186221,24.141999 5.38617935,24.2895893 C5.58613769,24.4371796 5.62859039,24.7189235 5.48100009,24.9188818 L5.48100009,24.9188818 L4.41205661,26.3671082 C4.26446632,26.5670666 3.98272248,26.6095193 3.78276413,26.461929 C3.58280579,26.3143387 3.54035309,26.0325949 3.68794339,25.8326365 L3.68794339,25.8326365 Z M30.2297825,24.3844101 L31.298726,25.8326365 C31.4463163,26.0325949 31.4038636,26.3143387 31.2039052,26.461929 C31.0039469,26.6095193 30.722203,26.5670666 30.5746127,26.3671082 L29.5056693,24.9188818 C29.358079,24.7189235 29.4005317,24.4371796 29.60049,24.2895893 C29.8004483,24.141999 30.0821922,24.1844517 30.2297825,24.3844101 Z M21.0051,8.1 L13.86945,8.1 L15.5125061,16.5207305 C15.5248539,16.5840128 15.5280501,16.6486272 15.5220904,16.7126062 L15.5220904,16.7126062 L15.5130785,16.7763007 L13.8654,25.425 L21.00915,25.425 L19.3619215,16.7763007 C19.3498573,16.7129637 19.3469505,16.6483357 19.3531968,16.5843839 L19.3531968,16.5843839 L19.3624939,16.5207305 L21.0051,8.1 Z M6.89477383,21.4879572 C7.04236412,21.2879988 7.32410796,21.2455461 7.52406631,21.3931364 C7.72402465,21.5407267 7.76647734,21.8224706 7.61888705,22.0224289 L7.61888705,22.0224289 L6.54994357,23.4706554 C6.40235327,23.6706137 6.12060943,23.7130664 5.92065109,23.5654761 C5.72069274,23.4178858 5.67824005,23.136142 5.82583035,22.9361836 L5.82583035,22.9361836 Z M28.0918955,21.4879572 L29.160839,22.9361836 C29.3084293,23.136142 29.2659766,23.4178858 29.0660183,23.5654761 C28.8660599,23.7130664 28.5843161,23.6706137 28.4367258,23.4706554 L27.3677823,22.0224289 C27.220192,21.8224706 27.2626447,21.5407267 27.462603,21.3931364 C27.6625614,21.2455461 27.9443052,21.2879988 28.0918955,21.4879572 Z M9.03266079,18.5915043 C9.18025108,18.3915459 9.46199492,18.3490932 9.66195327,18.4966835 C9.86191161,18.6442738 9.9043643,18.9260177 9.75677401,19.125976 L9.75677401,19.125976 L8.68783053,20.5742025 C8.54024023,20.7741608 8.25849639,20.8166135 8.05853805,20.6690232 C7.8585797,20.5214329 7.81612701,20.2396891 7.96371731,20.0397307 L7.96371731,20.0397307 Z M25.9540086,18.5915043 L27.022952,20.0397307 C27.1705423,20.2396891 27.1280896,20.5214329 26.9281313,20.6690232 C26.728173,20.8166135 26.4464291,20.7741608 26.2988388,20.5742025 L25.2298953,19.125976 C25.082305,18.9260177 25.1247577,18.6442738 25.3247161,18.4966835 C25.5246744,18.3490932 25.8064183,18.3915459 25.9540086,18.5915043 Z M10.2380897,15.6092477 C10.4363305,15.4593583 10.7185458,15.4985549 10.8684352,15.6967957 L10.8684352,15.6967957 L11.5866985,16.6467569 L10.8257175,17.6777496 C10.6781272,17.8777079 10.3963834,17.9201606 10.196425,17.7725703 C9.99646666,17.62498 9.95401397,17.3432362 10.1016043,17.1432778 L10.1016043,17.1432778 L10.4629708,16.652 L10.1505418,16.2395931 C10.0193886,16.0661325 10.0330043,15.8283788 10.1712633,15.6712365 Z M24.7485796,15.6092477 C24.9468204,15.7591371 24.986017,16.0413524 24.8361276,16.2395931 L24.5229708,16.653 L24.8850651,17.1432778 C25.0326554,17.3432362 24.9902027,17.62498 24.7902443,17.7725703 C24.590286,17.9201606 24.3085422,17.8777079 24.1609519,17.6777496 L23.3999708,16.6467569 L24.1182342,15.6967957 C24.2681236,15.4985549 24.5503388,15.4593583 24.7485796,15.6092477 Z M8.06689995,12.7376741 C8.26514074,12.5877848 8.547356,12.6269813 8.69724537,12.8252221 L8.69724537,12.8252221 L9.78284027,14.2610089 C9.93272964,14.4592497 9.89353308,14.7414649 9.69529229,14.8913543 C9.4970515,15.0412437 9.21483624,15.0020471 9.06494687,14.8038063 L9.06494687,14.8038063 L7.97935197,13.3680195 C7.8294626,13.1697788 7.86865916,12.8875635 8.06689995,12.7376741 Z M26.9197694,12.7376741 C27.1180102,12.8875635 27.1572068,13.1697788 27.0073174,13.3680195 L25.9217225,14.8038063 C25.7718331,15.0020471 25.4896178,15.0412437 25.2913771,14.8913543 C25.0931363,14.7414649 25.0539397,14.4592497 25.2038291,14.2610089 L26.289424,12.8252221 C26.4393134,12.6269813 26.7215286,12.5877848 26.9197694,12.7376741 Z M5.89571016,9.86610053 C6.09395095,9.71621116 6.37616621,9.75540772 6.52605558,9.95364851 L6.52605558,9.95364851 L7.61165048,11.3894353 C7.76153985,11.5876761 7.72234329,11.8698914 7.5241025,12.0197807 C7.32586171,12.1696701 7.04364646,12.1304735 6.89375708,11.9322328 L6.89375708,11.9322328 L5.80816218,10.496446 C5.65827281,10.2982052 5.69746937,10.0159899 5.89571016,9.86610053 Z M29.0909592,9.86610053 C29.2892,10.0159899 29.3283965,10.2982052 29.1785072,10.496446 L28.0929123,11.9322328 C27.9430229,12.1304735 27.6608076,12.1696701 27.4625668,12.0197807 C27.2643261,11.8698914 27.2251295,11.5876761 27.3750189,11.3894353 L28.4606138,9.95364851 C28.6105031,9.75540772 28.8927184,9.71621116 29.0909592,9.86610053 Z M3.77860128,7.0660533 C3.97684206,6.91616392 4.25905732,6.95536049 4.4089467,7.15360128 L4.4089467,7.15360128 L5.44046069,8.51786171 C5.59035006,8.7161025 5.5511535,8.99831776 5.35291271,9.14820714 C5.15467192,9.29809651 4.87245667,9.25889995 4.72256729,9.06065916 L4.72256729,9.06065916 L3.6910533,7.69639872 C3.54116392,7.49815794 3.58036049,7.21594268 3.77860128,7.0660533 Z M31.2080681,7.0660533 C31.4063089,7.21594268 31.4455054,7.49815794 31.295616,7.69639872 L30.2641021,9.06065916 C30.1142127,9.25889995 29.8319974,9.29809651 29.6337566,9.14820714 C29.4355158,8.99831776 29.3963193,8.7161025 29.5462087,8.51786171 L30.5777226,7.15360128 C30.727612,6.95536049 31.0098273,6.91616392 31.2080681,7.0660533 Z" id="Shape" fill="#333230"></path>
                    <g id="Group" stroke-width="1" transform="translate(4.050000, 7.200000)"></g>
                </g>
            </g>
        </g>
    </g>
</svg>