<?xml version="1.0" encoding="UTF-8"?>
<svg width="16px" height="16px" viewBox="0 0 16 16" version="1.1" xmlns="http://www.w3.org/2000/svg" xmlns:xlink="http://www.w3.org/1999/xlink">
    <!-- Generator: Sketch 61.1 (89650) - https://sketch.com -->
    <title>treadmill</title>
    <desc>Created with Sketch.</desc>
    <g id="0.-Onboarding" stroke="none" stroke-width="1" fill="none" fill-rule="evenodd">
        <g id="onboarding-icons-copy" transform="translate(-337.000000, -9.000000)" fill="#333230">
            <g id="icon/equipment/treadmill" transform="translate(335.000000, 7.000000)">
                <path d="M3.39607876,12.997336 C5.74910149,13.0540213 7.26641025,14.0695463 7.85875271,16.0158144 C7.91905425,16.213948 7.80731925,16.4234512 7.60918561,16.4837527 C7.41105196,16.5440543 7.20154884,16.4323193 7.14124729,16.2341856 C6.64877632,14.6160667 5.42411673,13.7964099 3.37800837,13.7471183 C3.31666287,13.7456392 3.26457598,13.7886153 3.25259072,13.8466572 L3.25003626,13.8690717 L3.25,16.625 C3.25,16.686365 3.29421879,16.7374021 3.35253109,16.7479861 L3.375,16.75 L16.125,16.75 C16.5845599,16.75 16.75,16.5845599 16.75,16.125 C16.75,15.681853 16.596166,15.5121923 16.173119,15.5006389 L8.125,15.5 C7.91789322,15.5 7.75,15.3321068 7.75,15.125 C7.75,14.930076 7.89872202,14.7698878 8.088885,14.7517166 L8.125,14.75 L16.125,14.75 C16.9987734,14.75 17.5,15.2512266 17.5,16.125 C17.5,16.9774619 17.0229254,17.4753283 16.1882679,17.4991074 L16.125,17.5 L3.375,17.5 C2.90785915,17.5 2.52621839,17.1339306 2.50129472,16.6730088 L2.5,16.625 L2.50025379,13.8510091 C2.51189223,13.3678941 2.9129714,12.9856877 3.39607876,12.997336 Z M6.99043261,8.14320831 C7.17589201,8.20320988 7.28252248,8.39401979 7.24127533,8.58054277 L7.23179169,8.61543261 L5.85679169,12.8654326 C5.79304003,13.0624832 5.581618,13.1705434 5.38456739,13.1067917 C5.19910799,13.0467901 5.09247752,12.8559802 5.13372467,12.6694572 L5.14320831,12.6345674 L6.51820831,8.38456739 C6.58195997,8.18751678 6.793382,8.07945664 6.99043261,8.14320831 Z M5.24358541,8.14424376 C5.42850658,8.20588415 5.53344436,8.39763019 5.49054825,8.58378086 L5.48075624,8.61858541 L4.23075624,12.3685854 C4.16526332,12.5650642 3.95289333,12.6712492 3.75641459,12.6057562 C3.57149342,12.5441158 3.46655564,12.3523698 3.50945175,12.1662191 L3.51924376,12.1314146 L4.76924376,8.38141459 C4.83473668,8.18493584 5.04710667,8.07875085 5.24358541,8.14424376 Z M5.62664707,2.59693433 L5.6537353,2.62413823 L7.792,4.99999678 L15.4178932,4.99999678 C15.6321065,4.99999678 15.8382211,5.07855007 15.9977282,5.21969933 L16.0366117,5.25628157 C16.3783204,5.59799032 16.3783204,6.15200968 16.0366117,6.49371843 L15.390165,7.14016504 C15.0045879,7.52574215 14.5214221,7.73002496 13.9598254,7.74860614 L13.875,7.75 L4.875,7.75 C4.66789322,7.75 4.5,7.58210678 4.5,7.375 C4.5,7.18007597 4.64872202,7.01988783 4.838885,7.00171664 L4.875,6.99999678 L13.875,6.99999678 C14.2771384,6.99999678 14.5980243,6.87164566 14.859835,6.60983496 L15.5062816,5.96338835 C15.5550971,5.91457281 15.5550971,5.83542719 15.5062816,5.78661165 C15.4875279,5.76785801 15.4634289,5.75567874 15.4375656,5.75155718 L15.4178932,5.75 L7.625,5.75 C7.53198099,5.75 7.44278666,5.7154546 7.37429939,5.65388256 L7.3462647,5.62586177 L5.0962647,3.12586177 C4.95771756,2.97192052 4.97019697,2.73481183 5.12413823,2.5962647 C5.26845816,2.46637676 5.48587446,2.46922699 5.62664707,2.59693433 Z M6.25667129,5.02387656 C6.43918435,5.09231895 6.53695339,5.28781753 6.48719692,5.47225301 L6.47612344,5.50667129 L6.10112344,6.50667129 C6.0284034,6.70059141 5.81224883,6.79884349 5.61832871,6.72612344 C5.43581565,6.65768105 5.33804661,6.46218247 5.38780308,6.27774699 L5.39887656,6.24332871 L5.77387656,5.24332871 C5.8465966,5.04940859 6.06275117,4.95115651 6.25667129,5.02387656 Z" id="Shape"></path>
            </g>
        </g>
    </g>
</svg>