<?xml version="1.0" encoding="UTF-8"?>
<svg width="60px" height="60px" viewBox="0 0 60 60" version="1.1" xmlns="http://www.w3.org/2000/svg" xmlns:xlink="http://www.w3.org/1999/xlink">
    <!-- Generator: Sketch 61.1 (89650) - https://sketch.com -->
    <title>treat</title>
    <desc>Created with Sketch.</desc>
    <g id="0.-Onboarding" stroke="none" stroke-width="1" fill="none" fill-rule="evenodd">
        <g id="onboarding-icons" transform="translate(-181.000000, -735.000000)">
            <g id="treat" transform="translate(181.000000, 735.000000)">
                <circle id="Oval" fill="#FAF9F7" cx="30" cy="30" r="30"></circle>
                <circle id="Oval-Copy" fill="#FAF9F7" cx="30" cy="30" r="30"></circle>
                <g id="icon/meal/treat" transform="translate(12.000000, 12.000000)" fill="#333230">
                    <path d="M31.05,17.325 C31.4607708,17.325 31.7763077,17.6888171 31.7182159,18.0954594 C30.7842391,24.6332974 27.5861272,28.0510692 22.2255672,28.1238138 L22.05,28.125 L13.61295,28.125 L13.5923897,28.1325694 C12.4003712,28.5669632 11.725699,29.3852535 11.5330394,30.6680443 L11.5119,30.825 L24.92235,30.825 L24.9196818,30.8081101 C24.8216712,30.2592556 24.5943106,29.882794 24.2446985,29.6464818 L24.1777154,29.6038077 C23.8580487,29.4120077 23.7543923,28.997382 23.9461923,28.6777154 C24.1379923,28.3580487 24.552618,28.2543923 24.8722846,28.4461923 C25.8477901,29.0314955 26.325,30.0813574 26.325,31.5 C26.325,31.8508633 26.0573004,32.1392019 25.715007,32.17191 L25.65,32.175 L10.8,32.175 C10.4272078,32.175 10.125,31.8727922 10.125,31.5 C10.125,29.1188422 11.2010183,27.5048148 13.2865463,26.8096388 C13.3324312,26.7943438 13.3797599,26.7840471 13.4277105,26.7788821 L13.5,26.775 L22.05,26.775 C26.5102713,26.775 29.2025127,24.21863 30.2145943,18.9114954 L30.258,18.675 L5.85045,18.675 L5.86879717,18.7318513 C6.79199659,21.5352928 8.49424286,23.829713 10.9885244,25.6308481 L11.1870871,25.7720185 C11.4924904,25.9858007 11.5667638,26.4066838 11.3529815,26.7120871 C11.1391993,27.0174904 10.7183162,27.0917638 10.4129129,26.8779815 C7.28257063,24.6867419 5.23761257,21.7766093 4.29685834,18.1703848 C4.19036371,17.7621553 4.47957708,17.3629947 4.89049857,17.3275509 L4.95,17.325 L31.05,17.325 Z M18.225,4.05 C22.0187074,4.05 24.1605022,6.32696069 24.5141307,10.6345312 C27.070802,11.3343384 28.7441596,13.2048571 29.4512156,15.7973958 C29.5493037,16.1570522 29.3372607,16.5281275 28.9776042,16.6262156 C28.6179478,16.7243037 28.2468725,16.5122607 28.1487844,16.1526042 C27.4362859,13.5401098 25.6232274,11.8824563 22.6828947,11.6986855 C20.5961525,11.5682641 18.9598667,12.8118414 17.715547,15.5769962 C17.5625663,15.9169534 17.1629611,16.0685278 16.8230038,15.915547 C16.4830466,15.7625663 16.3314722,15.3629611 16.484453,15.0230038 C17.9401333,11.7881586 20.0538475,10.1817359 22.7671053,10.3513145 C22.8908907,10.3590511 23.013128,10.3690486 23.133811,10.3812732 C22.7605474,6.98625333 21.1651355,5.4 18.225,5.4 C15.3530527,5.4 13.5584182,6.98745687 12.7581509,10.3317065 C13.8977725,10.2201069 15.1712484,10.3214881 16.5731563,10.6368852 C16.9368578,10.7187097 17.1653643,11.0798799 17.0835398,11.4435814 C17.0017153,11.8072829 16.6405452,12.0357893 16.2768437,11.9539649 C11.96288,10.9834221 9.30927247,12.211538 8.06026411,15.6888908 C7.93424571,16.0397375 7.54767018,16.2219968 7.1968235,16.0959784 C6.84597683,15.96996 6.66371749,15.5833845 6.78973589,15.2325378 C7.67118474,12.7785041 9.19761828,11.2332653 11.3164955,10.607212 L11.2605114,10.9063413 C12.0641245,6.40610783 14.4202323,4.05 18.225,4.05 Z" id="Shape"></path>
                </g>
            </g>
        </g>
    </g>
</svg>