<?xml version="1.0" encoding="UTF-8"?>
<svg width="17px" height="20px" viewBox="0 0 17 20" version="1.1" xmlns="http://www.w3.org/2000/svg" xmlns:xlink="http://www.w3.org/1999/xlink">
    <!-- Generator: Sketch 61.1 (89650) - https://sketch.com -->
    <title>vegan copy</title>
    <desc>Created with Sketch.</desc>
    <g id="0.-Onboarding" stroke="none" stroke-width="1" fill="none" fill-rule="evenodd">
        <g id="onboarding-icons-copy" transform="translate(-273.000000, -217.000000)" fill="#FFFFFF">
            <g id="icon/diet/vegan" transform="translate(271.600000, 217.000000)">
                <path d="M17.8672377,0.922358604 C18.0828808,0.917976192 18.2578322,1.09589985 18.2497357,1.31143713 C18.1634105,3.609511 17.7256561,5.21261647 16.9037353,6.12586177 C16.4439339,6.63675217 16.0044745,6.83292566 15.1080986,7.02877293 L14.6211665,7.13096976 C14.569895,7.14212561 14.5267924,7.15195584 14.4804058,7.16298553 L14.4520881,7.16976748 C13.7022738,7.35054031 13.2299642,7.62322454 12.8051501,8.21796432 C12.1972959,9.06896014 11.787843,10.51564 11.2937441,13.306932 L11.1079801,14.3938074 L10.8058177,16.2140671 C10.6439073,17.1825855 10.5103259,17.944867 10.3684638,18.6947094 C10.226433,19.4454437 8.9127042,19.4381148 7.9572949,18.9604102 C7.85938032,18.9114529 7.78774738,18.8221541 7.76119656,18.7159509 C7.54896949,17.8670426 7.35465555,17.0152862 7.14977405,16.0506593 L6.94549622,15.0671403 C6.775986,14.2399619 6.55512189,13.1507701 6.55528715,13.1515745 L6.44480999,12.6221689 C5.37856197,7.59521391 4.34305571,5.16332853 1.72906177,2.43162383 C1.43349545,2.12274786 1.80216703,1.63920861 2.17827586,1.8424473 L2.27131739,1.89374247 C2.34847793,1.93725664 2.42731376,1.98440653 2.52740327,2.04805679 C2.73607137,2.1807558 2.96094357,2.33952836 3.20054454,2.52793282 C3.84958646,3.0382913 4.51380836,3.69120528 5.16744818,4.50556316 C6.716302,6.43525179 7.98896421,8.98492216 8.84794511,12.238617 L8.886,12.3855 L8.89400763,12.3578382 C9.94575672,8.7039894 11.9684873,5.48876565 15.0083201,3.18133249 L15.1515574,3.07383824 C15.3178845,2.9504343 15.5527578,2.98523036 15.6761618,3.1515574 C15.7995657,3.31788445 15.7647696,3.55275782 15.5984426,3.67616176 C12.2072284,6.19222389 10.1086556,9.88821778 9.24222266,14.0759771 C9.15967631,14.4749511 8.58967834,14.4745637 8.50767441,14.0754779 C7.73804974,10.3299711 6.46029169,7.45491086 4.85776704,5.32887444 L4.78125,5.2285 L4.81581519,5.29024554 C5.8449982,7.14528039 6.50611705,9.30597364 7.16926503,12.4231862 L7.83228346,15.6528367 L7.93390757,16.1312855 C8.06829735,16.7569774 8.19894806,17.3364086 8.33422464,17.9019568 L8.445,18.35775 L8.45307931,18.3613432 C8.70194434,18.4607972 8.98354352,18.5225943 9.23533753,18.5350635 L9.31807919,18.537377 C9.44211426,18.5380689 9.54551537,18.5251923 9.61559317,18.5037345 L9.643,18.49425 L9.71409334,18.1124035 C9.79828162,17.65406 9.88217104,17.1767694 9.97384312,16.6377161 L10.4526341,13.7675424 L10.5322082,13.3066342 C11.0576265,10.3078264 11.4877318,8.77200106 12.1948499,7.78203568 C12.7183942,7.04907373 13.3218368,6.68582926 14.1830407,6.463905 L14.336985,6.42622671 C14.4059077,6.41008956 14.471443,6.39570175 14.5666853,6.37574029 L14.7652336,6.33469434 C15.6452107,6.15415678 15.994424,6.01507231 16.3462647,5.62413823 C16.9650295,4.93662173 17.3485554,3.67018244 17.4719665,1.8287019 L17.481,1.68375 L17.3518026,1.68921965 C15.2871447,1.77945187 13.9330491,2.13832366 13.3035642,2.72800948 L13.265165,2.76516504 C12.2388527,3.79147742 11.7405433,4.70941567 11.4927178,5.94854355 C11.4521008,6.15162846 11.2545414,6.28333473 11.0514564,6.24271775 C10.8483715,6.20210077 10.7166653,6.00454136 10.7572822,5.80145645 C11.0344567,4.41558433 11.6048973,3.36477258 12.734835,2.23483496 C13.5731226,1.39654731 15.2776195,0.976055953 17.8672377,0.922358604 Z" id="Combined-Shape"></path>
            </g>
        </g>
    </g>
</svg>