<?xml version="1.0" encoding="UTF-8"?>
<svg width="16px" height="16px" viewBox="0 0 16 16" version="1.1" xmlns="http://www.w3.org/2000/svg" xmlns:xlink="http://www.w3.org/1999/xlink">
    <!-- Generator: Sketch 61.1 (89650) - https://sketch.com -->
    <title>vegetarian copy</title>
    <desc>Created with Sketch.</desc>
    <g id="0.-Onboarding" stroke="none" stroke-width="1" fill="none" fill-rule="evenodd">
        <g id="onboarding-icons-copy" transform="translate(-337.000000, -219.000000)" fill="#FFFFFF">
            <g id="icon/diet/vegetarian" transform="translate(335.000000, 217.000000)">
                <path d="M10.35,2.575 C12.1021081,3.8890811 13,5.10123512 13,6.25 C13,7.38102158 12.2375441,8.591981 10.7481081,9.9061892 C10.5928116,10.0432155 10.3558371,10.0284046 10.2188108,9.87310811 C10.0817845,9.71781161 10.0965954,9.48083713 10.2518919,9.3438108 C11.5957893,8.158019 12.25,7.11897842 12.25,6.25 C12.25,5.73581504 11.9694962,5.15354113 11.3988624,4.511672 C11.179668,4.88258861 10.9525566,5.1489895 10.7080126,5.31201886 C10.5356893,5.42690103 10.3028633,5.38033583 10.1879811,5.20801257 C10.073099,5.03568932 10.1196642,4.80286331 10.2919874,4.68798114 C10.4588895,4.57671309 10.6492833,4.33380761 10.8488947,3.95957397 C10.6772765,3.79891194 10.4871367,3.63601363 10.2804591,3.47002158 L10.125,3.347 L10.0630305,3.39561516 C9.50866339,3.83288565 9.06792834,4.24903833 8.73852928,4.6420472 C9.1620323,5.14187633 9.86477021,5.74613987 10.8429643,6.44484995 C11.011494,6.56522832 11.0505284,6.7994346 10.9301501,6.96796432 C10.8097717,7.13649404 10.5755654,7.17552842 10.4070357,7.05515005 C9.47334252,6.38822637 8.76981859,5.79587163 8.29383717,5.27138514 C8.10888828,5.60006679 8.01174049,5.90874086 8.0010014,6.19655517 L8,6.25 C8,7.11088639 8.38179276,7.73563819 9.17956955,8.17078916 C9.28909028,8.23052774 9.36099518,8.34031333 9.37316367,8.46288288 L9.375,8.5 L9.375,16.751 L9.39083252,16.7574176 C9.97841313,16.9820591 10.4545367,16.9938154 10.8394073,16.809016 L10.875,16.79075 L10.875,10.25 C10.875,10.055076 11.023722,9.89488783 11.213885,9.87671664 L11.25,9.875 C11.444924,9.875 11.6051122,10.023722 11.6232834,10.213885 L11.625,10.25 L11.625,17 C11.625,17.1211067 11.5665129,17.2347582 11.4679643,17.3051501 C10.7626998,17.8089104 9.87337448,17.8089104 8.8448239,17.3413874 C8.72210711,17.2856071 8.63965796,17.1687965 8.62676864,17.0364465 L8.625,17 L8.625,8.71475 L8.59035928,8.6933722 C7.73032301,8.14384761 7.27565038,7.34721318 7.2510544,6.33710289 L7.25,6.25 C7.25,5.68662105 7.46595485,5.10799618 7.89271289,4.50957973 C7.91709901,4.43555163 7.9640219,4.36843122 8.03203568,4.31984995 C8.47776537,3.75404749 9.09979477,3.17515392 9.9,2.575 C10.0333333,2.475 10.2166667,2.475 10.35,2.575 Z M12.9666952,8.33182513 L13.0177479,8.3676655 C13.0862925,8.4139845 13.1860807,8.47590857 13.3150455,8.55172347 C13.419217,8.6129631 13.4868407,8.7201752 13.498275,8.83902895 L13.5,8.875 L13.5,16.126 L13.5158325,16.1324176 C14.1034131,16.3570591 14.5795367,16.3688154 14.9644073,16.184016 L15,16.16575 L15,10.625 C15,10.430076 15.148722,10.2698878 15.338885,10.2517166 L15.375,10.25 C15.569924,10.25 15.7301122,10.398722 15.7482834,10.588885 L15.75,10.625 L15.75,16.375 C15.75,16.4961067 15.6915129,16.6097582 15.5929643,16.6801501 C14.8876998,17.1839104 13.9983745,17.1839104 12.9698239,16.7163874 C12.8471071,16.6606071 12.764658,16.5437965 12.7517686,16.4114465 L12.75,16.375 L12.75,9.087 L12.7156576,9.06556012 C12.6521995,9.02569199 12.5982537,8.99008791 12.5534346,8.95842803 L12.5215255,8.93541765 C12.354848,8.81248743 12.3193839,8.57771401 12.4423141,8.41103654 C12.5652443,8.24435906 12.8000177,8.20889491 12.9666952,8.33182513 Z M5.98502879,2.95779037 L6.24343699,3.16720394 C6.79309405,3.61629856 7.17908751,3.95718934 7.40593095,4.19498141 C7.54888702,4.34483728 7.54329363,4.58220825 7.39343776,4.72516432 C7.24358189,4.86812039 7.00621092,4.862527 6.86325485,4.71267113 L6.79403051,4.64213642 C6.59473354,4.44405216 6.27795883,4.16616124 5.84640175,3.81151231 L5.74325,3.72725 L5.68803052,3.77061516 C5.40622723,3.99289432 5.15378678,4.20971659 4.93040758,4.42081583 L4.78065795,4.25129111 C5.33218366,4.87366562 5.8484489,5.3729549 6.32795069,5.74896105 C6.49092553,5.87675941 6.5194417,6.11247766 6.39164334,6.2754525 C6.26384498,6.43842734 6.02812673,6.46694351 5.86515189,6.33914515 C5.40485022,5.97819497 4.9208164,5.51946395 4.41199607,4.96281326 C3.9027136,5.55237432 3.64393077,6.09103671 3.6260014,6.57155517 L3.625,6.625 C3.625,7.48588639 4.00679276,8.11063819 4.80456955,8.54578916 C4.91409028,8.60552774 4.98599518,8.71531333 4.99816367,8.83788288 L5,8.87499983 L5,16.126 L5.01583252,16.1324176 C5.60341313,16.3570591 6.07953666,16.3688154 6.46440734,16.184016 L6.5,16.16575 L6.5,10.625 C6.5,10.430076 6.64872202,10.2698878 6.838885,10.2517166 L6.875,10.25 C7.06992403,10.25 7.23011217,10.398722 7.24828336,10.588885 L7.25,10.625 L7.25,16.3749998 C7.25,16.4961067 7.19151287,16.6097582 7.09296432,16.6801501 C6.38769981,17.1839104 5.49837448,17.1839104 4.4698239,16.7163874 C4.34710711,16.6606071 4.26465796,16.5437965 4.25176864,16.4114465 L4.25,16.3749998 L4.25,9.08975 L4.21535928,9.0683722 C3.35532301,8.51884761 2.90065038,7.72221318 2.8760544,6.71210289 L2.875,6.625 C2.875,5.47623512 3.77289187,4.2640811 5.525,2.95 C5.66210694,2.84716979 5.85148223,2.85037677 5.98502879,2.95779037 Z M14.475,2.95 C16.2271081,4.2640811 17.125,5.47623512 17.125,6.625 C17.125,7.75602158 16.3625441,8.966981 14.8731081,10.2811892 C14.7178116,10.4182155 14.4808371,10.4034046 14.3438108,10.2481081 C14.2067845,10.0928116 14.2215954,9.85583713 14.3768919,9.7188108 C15.7207893,8.533019 16.375,7.49397842 16.375,6.625 C16.375,6.14764902 16.1332449,5.61161487 15.6420326,5.02369357 C15.4248722,5.38820033 15.1999757,5.65071013 14.9580126,5.81201886 C14.7856893,5.92690103 14.5528633,5.88033583 14.4379811,5.70801257 C14.323099,5.53568932 14.3696642,5.30286331 14.5419874,5.18798114 C14.7097573,5.07613457 14.9012638,4.83127817 15.102009,4.45372605 C14.8719617,4.23188376 14.6081874,4.00426418 14.3119695,3.77061516 L14.25525,3.72625 L14.0913505,3.8594711 C13.7431199,4.14410031 13.4857715,4.36699932 13.3212346,4.52611484 L13.2893097,4.55733995 C13.1421298,4.70304957 12.9046959,4.70185766 12.7589863,4.55467775 C12.6132767,4.40749784 12.6144686,4.17006397 12.7616485,4.02435435 L12.8347326,3.95358649 C13.0814976,3.71933154 13.4740556,3.38843728 14.0164278,2.9566248 C14.1499636,2.85030952 14.3384487,2.84758655 14.475,2.95 Z M7.73405099,8.21775033 C7.90156768,8.33953447 7.93864124,8.57405913 7.8168571,8.74157582 C7.57167121,9.07883427 7.09711054,9.58428833 6.38515638,10.2700808 C6.23599485,10.4137612 5.99859956,10.4093179 5.85491916,10.2601564 C5.71123876,10.1109948 5.71568209,9.87359956 5.86484362,9.72991916 L6.10039963,9.50104174 C6.65174818,8.96030543 7.02351166,8.55738532 7.2102255,8.30055644 C7.33200964,8.13303974 7.5665343,8.09596619 7.73405099,8.21775033 Z M14.160427,6.88177902 C14.303304,7.04944941 14.6085736,7.27840158 15.0676376,7.55326137 C15.245329,7.65965219 15.3031295,7.88994629 15.1967386,8.06763762 C15.0903478,8.24532896 14.8600537,8.30312945 14.6823624,8.19673863 C14.1589703,7.88336312 13.7975732,7.6123153 13.589573,7.36822098 C13.4552458,7.21058401 13.4741421,6.97390027 13.631779,6.83957303 C13.789416,6.70524579 14.0260997,6.72414206 14.160427,6.88177902 Z" id="icon"></path>
            </g>
        </g>
    </g>
</svg>